<?xml version="1.0" standalone="no"?>
<!DOCTYPE svg PUBLIC "-//W3C//DTD SVG 1.1//EN" "http://www.w3.org/Graphics/SVG/1.1/DTD/svg11.dtd" >
<svg xmlns="http://www.w3.org/2000/svg" xmlns:xlink="http://www.w3.org/1999/xlink" version="1.1">
<metadata></metadata>
<defs>
<font id="belistaregular" horiz-adv-x="1218" >
<font-face units-per-em="2048" ascent="1638" descent="-410" />
<missing-glyph horiz-adv-x="700" />
<glyph unicode="at" horiz-adv-x="702" d="M100 438q0 167 135 263q97 68 208 68q82 0 155 -46t99 -163q5 -33 5 -59q0 -55 -23 -121q-23 -68 -65 -111q-34 -36 -64 -36q-10 0 -15 2q-42 21 -45 95q-25 -31 -59 -53q-23 -15 -45 -15q-8 0 -24 4q-54 20 -70 43q-29 41 -29 90q0 18 11 70q10 49 84 90q32 18 59 18 q15 0 25 -5h1q13 -4 36 -18q35 -23 50 -96q3 3 6 3t11 -2v1h1l25 -13q28 -17 28 -24l-1 -3q-35 -49 -52 -97q-12 -33 -12 -51q0 -6 2 -12q9 -7 16 -7q18 0 51 34q32 33 60 108q18 49 18 104q0 137 -109 179q-42 16 -91 16q-44 0 -117 -21q-72 -21 -140 -111 q-56 -77 -56 -198q0 -14 2 -46q3 -89 47 -154q40 -51 120 -75q54 -16 113 -16q30 0 83 7q59 8 119 62l14 -14q-83 -76 -216 -76q-160 0 -248 100q-42 52 -76 137q-27 81 -27 149zM356 325q0 -27 20 -30l4 -1q49 0 118 96q2 9 6 19q-8 66 -24 96q-15 24 -26 24q-3 0 -5 -1 q-8 -2 -28 -26q-21 -24 -47 -96q-18 -56 -18 -81z" />
<glyph unicode="&#xd;" horiz-adv-x="0" />
<glyph horiz-adv-x="0" />
<glyph horiz-adv-x="0" />
<glyph unicode=" "  horiz-adv-x="700" />
<glyph unicode="&#x09;" horiz-adv-x="700" />
<glyph unicode="&#xa0;" horiz-adv-x="700" />
<glyph unicode="!" horiz-adv-x="407" d="M100 122q0 21 14 35q15 15 36 15q20 0 35 -15t15 -35q0 -21 -15 -36q-16 -14 -35 -14q-20 0 -36 14q-14 14 -14 36zM150 463q0 181 34 389q35 212 100 372q15 31 45 31q7 0 18 -1q16 -1 41 -22q19 -17 19 -36q0 -4 -2 -12q-34 -66 -82 -238q-46 -165 -88 -349 q-38 -169 -50 -262l-32 4v5q-3 60 -3 119z" />
<glyph unicode="&#x22;" horiz-adv-x="334" d="M100 1235q3 7 48 33q31 19 44 19q6 0 8 -3q9 -32 9 -57q0 -55 -39 -99q-28 -33 -33 -33l-20 20h1q-2 45 -10 74q-6 27 -8 46zM226 1244q2 6 19 15q13 7 38 16q19 7 30 9q6 1 13 1q3 -1 5 -3q1 -2 1 -6q0 -3 1 -4l1 -24q0 -85 -59 -153q-2 -2 -2 -3l-24 15v1 q-23 110 -23 136z" />
<glyph unicode="#" horiz-adv-x="776" d="M100 527q64 7 129 12q26 134 59 217q9 16 35 16q33 0 64 -19q23 -14 23 -31l-1 -5q-33 -88 -59 -170l120 5q47 145 109 247q11 14 29 14q35 0 69 -34q16 -16 16 -30q0 -6 -3 -12q-56 -91 -97 -183q51 0 149 -2l-1 -32q-108 2 -162 2q-32 -76 -49 -132l245 9l1 -32 q-174 -6 -256 -10q-30 -103 -41 -171q-13 -69 -13 -85l-32 1v5q-11 77 -11 144q0 51 6 102l-138 -7q-42 -167 -49 -213l-31 4v4q-8 64 -8 142l1 58l-92 -6l-2 32l96 6q6 67 17 133q-80 -6 -119 -11zM300 379l133 6q10 67 28 135q-120 -6 -122 -6q-21 -66 -39 -135z" />
<glyph unicode="$" horiz-adv-x="536" d="M100 321l31 7q22 -100 59 -155q16 181 42 351q-33 48 -66 110q-51 106 -51 193q0 16 10 84q11 62 63 122q67 76 129 76q7 0 23 -2l9 41q15 45 58 45q26 0 46 -16q21 -17 21 -46l-1 -14l-16 -65q65 -73 79 -123l-30 -11q-10 37 -58 96l-97 -412q75 -100 120 -208 q24 -60 24 -120q0 -55 -17 -103q-32 -80 -98 -108q-22 -9 -48 -9q-47 0 -98 32l-28 -129l-31 6l1 7q6 104 10 157l-14 16q-47 62 -72 178zM213 900q0 -87 52 -170q29 173 68 346l-14 1q-67 0 -91 -80q-15 -51 -15 -97zM243 126q23 -10 46 -10t55 18t32 90q0 70 -69 185z" />
<glyph unicode="%" horiz-adv-x="689" d="M100 50q0 4 1 5v2q17 55 48 96q18 208 88 410q71 205 196 369l-24 -1q-57 0 -114 20q-11 -34 -30 -62l-5 -6q-24 -34 -73 -34h-1q-57 15 -70 94q-2 18 -2 26q0 65 50 130l2 3q9 10 15 10q13 0 39 -23q14 25 39 26q26 0 43 -29q9 -16 9 -44q0 -27 -7 -59q45 -20 113 -20 q22 0 43 3q119 143 214 143l5 -1q10 -3 10 -17q-4 -78 -127 -131q-83 -175 -163 -376q-62 -156 -138 -326q46 29 84 46q25 80 90 132q6 23 22 36q17 14 38 14l11 -1q43 -10 43 -14q38 -18 60 -73q14 -36 14 -76q0 -103 -71 -169q-48 -45 -127 -47q-43 2 -68 45 q-21 33 -21 85l1 28q-59 -29 -103 -67q-44 -94 -64 -121q-28 -40 -58 -40q-7 0 -9 2q-3 3 -3 12zM205 917q0 -11 3 -16q2 -6 10 -6q4 0 14 5q23 24 34 67q-14 9 -29 27q-24 -34 -32 -77zM247 1065l2 -3l4 -4q20 -19 20 -27v-1l-4 -3q-3 -2 -10 -9q10 -12 16 -17q5 30 5 42 q0 19 -6 29q-6 11 -14 11q-12 0 -13 -18zM367 235q0 -31 15 -63q14 -32 43 -34q10 0 14 7q6 8 10 24q4 15 12 53q8 39 27 121q-42 18 -53 50q-32 -33 -49 -71q33 15 76 30l11 -30q-59 -21 -101 -40q-5 -28 -5 -47zM464 416q0 -27 32 -41l1 4q3 8 6 23q5 27 5 32q0 8 -3 14 q-15 -9 -41 -29v-3zM587 1007q46 26 64 64q-43 -19 -64 -64z" />
<glyph unicode="&#x26;" horiz-adv-x="640" d="M100 349q0 74 46 172q46 99 156 195q-3 32 -3 59q0 100 45 160q54 72 123 72q1 0 6.5 -0.5t16 -1t21.5 -0.5q40 -3 71 -106q4 -22 4 -33q0 -40 -26 -95q-23 -51 -73 -110q-59 -68 -92 -101q17 -35 144 -271q49 47 49 92q0 9 -13 50q-12 37 -81 77q-10 7 -10 16 q0 13 10 19q4 3 10 3q5 0 11 -3q94 -59 110 -138q3 -13 3 -26q0 -66 -70 -126q82 -152 82 -158q0 -5 -1 -9t-8 -9q-8 -4 -11 -4q-2 0 -10 4q-7 4 -46 79l-39 73q-99 -57 -200 -57q-54 0 -120 19q-105 37 -105 158zM204 272q0 -3 2 -11q18 -49 114 -49q94 0 186 53l-103 193 q-35 66 -37 71q-126 -131 -156 -229q-6 -20 -6 -28zM338 747q41 33 73 54q107 69 107 119q0 25 -19 38q-13 12 -31 12q-57 0 -103 -79q-27 -48 -27 -124v-20z" />
<glyph unicode="'" horiz-adv-x="209" d="M100 1235q3 7 48 33q31 19 44 19q6 0 8 -3q9 -32 9 -57q0 -55 -39 -99q-28 -33 -33 -33l-20 20h1q-2 45 -10 74q-6 27 -8 46z" />
<glyph unicode="(" horiz-adv-x="606" d="M100 353q0 169 68 369q69 203 241 387q40 43 76 74q42 37 98 96l23 -22q-89 -97 -177 -280q-89 -183 -151 -397q-64 -223 -64 -414q0 -171 80 -263l-23 -23q-171 179 -171 473z" />
<glyph unicode=")" horiz-adv-x="594" d="M100 -63q103 46 179 187q75 139 123 328q81 322 81 615q0 110 -13 168l-7 32l30 8q15 -49 20 -62q81 -229 81 -453q0 -44 -1 -103q-1 -86 -67 -283q-58 -162 -126 -252q-69 -92 -142 -138q-74 -47 -145 -77z" />
<glyph unicode="*" horiz-adv-x="417" d="M100 1225q0 15 25 30q17 11 32 11q7 0 10 -5l12 -18q7 -13 37 -51q13 89 20 103q6 12 26 12q20 -1 36 -9q16 -7 16 -19v-1q-5 -12 -20 -73l68 54l6 1q9 0 22 -10t22 -27q5 -10 5 -15q0 -12 -131 -99q38 -46 67 -83q20 -32 32 -53l-17 -10l-1 2q-35 30 -70 57l-37 30 l-27 -114l-20 4v2q-5 65 -5 117q-26 -16 -40 -24q-21 -12 -36 -21l-15 -9l-11 17l2 1q43 50 82 87q-90 90 -90 113z" />
<glyph unicode="+" horiz-adv-x="503" d="M100 504q0 53 19 53l118 -9q-5 73 -5 100q0 17 2 29q1 10 21 16q23 6 53 6q51 0 53 -17q-4 -53 -5 -68q-3 -33 -6 -76l96 -9q55 -5 56 -6l1 -31l-3 -1q-78 -32 -158 -46l-15 -148l-32 2q-28 67 -42 134q-52 -4 -98 -4q-24 0 -33 1q-10 1 -16 22q-6 22 -6 52z" />
<glyph unicode="," horiz-adv-x="242" d="M100 309q55 14 62 90l-1 2l30 11l1 -1q50 -32 50 -89q0 -5 -3 -38q-3 -35 -56 -70h-1q-8 0 -20 12q-16 16 -29 33q-15 19 -24 33q-9 15 -9 17z" />
<glyph unicode="-" horiz-adv-x="503" d="M100 494q0 51 17 52l385 -33l1 -32h-3v-1q-152 -62 -337 -62q-29 0 -41 1q-10 3 -16 22q-6 23 -6 53z" />
<glyph unicode="." horiz-adv-x="213" d="M100 321q0 26 13 51q14 27 29 29q16 0 22 -12l8 1q18 0 32 -27q9 -19 9 -39q0 -40 -27 -59q-16 -11 -29 -11q-18 0 -36 15q-21 19 -21 52z" />
<glyph unicode="/" horiz-adv-x="509" d="M100 80l2 7q31 268 109 558q79 291 176 534q18 34 50 34q33 0 56 -24q16 -16 16 -37q0 -6 -4 -22q-175 -439 -274 -739q-93 -282 -100 -319z" />
<glyph unicode="0" horiz-adv-x="649" d="M100 418q0 104 26 237q27 132 103 239q78 107 201 119h5q71 0 143 -63l20 9q51 -132 51 -268q0 -62 -25 -204q-24 -137 -132 -324q-68 -126 -152 -178q-28 -18 -56 -18q-38 0 -66 34q-118 148 -118 417zM224 166q0 -37 5 -94q6 -50 33 -68q10 -4 17 -4q83 0 185 179 q96 168 136 358q16 73 16 151q0 110 -35 223l-3 -4q-77 74 -142 74q-57 0 -97 -70q-61 -110 -85 -331q-13 -135 -13 -154l-5 -58q-12 -114 -12 -202z" />
<glyph unicode="1" horiz-adv-x="469" d="M100 -24q1 12 30 38q26 25 73 43q21 403 114 805q-21 -6 -28 -10q-7 -3 -19 -9l-1 -1l-24 21l1 1q6 36 30 68q25 32 49 51q26 20 34 24h2q17 11 37 11q31 0 56 -22q15 -14 15 -33q0 -5 -98 -394l-129 -502q33 5 57 5q32 0 56 -7q7 -4 7 -32q0 -16 -3 -37q-4 -20 -9 -40 q-6 -17 -10 -17h-1q-73 22 -146 22q-24 0 -48 -3t-24 -8l-21 24v2z" />
<glyph unicode="2" horiz-adv-x="838" d="M100 30q0 22 21 51q24 31 71 49q30 11 63 11q25 0 54 -6q143 180 250 401q110 228 119 345q-2 75 -41 122q-30 36 -81 36q-18 0 -35 -4q-132 -42 -180 -234l-31 9q56 210 203 255q31 9 63 9q21 0 48 -5q158 -45 158 -249q0 -70 -30 -187q-28 -115 -122 -269t-228 -269 q48 -33 88 -66q66 -60 118 -60q56 0 110 48q45 45 91 143l29 -14q-36 -81 -89 -143q-54 -63 -142 -66q-41 0 -73 20q-33 21 -65 48q-35 31 -93 68q-38 -29 -94 -57q-72 -36 -123 -36q-41 0 -57 34q-2 5 -2 16zM132 24q3 -9 23 -9q43 0 129 92q-20 2 -28 2q-35 0 -66 -14 q-28 -13 -46 -37q-12 -18 -12 -34z" />
<glyph unicode="3" horiz-adv-x="661" d="M100 877q63 121 198 150q2 1 8 1l1 1h3q16 4 51 4q87 0 129 -57l3 -4v-1q28 -50 28 -106q0 -21 -11 -82q-11 -58 -73 -134q30 -9 57 -28q167 -120 167 -327q0 -75 -36 -171q-34 -95 -139 -154q-53 -29 -115 -29t-138 29q-69 31 -105 93q-27 46 -27 97q0 15 3 32l31 -6 q-2 -16 -2 -25q0 -43 27 -88q26 -46 86 -73q27 -10 48 -10q30 0 74 23q41 22 82 69q63 81 63 213q0 87 -28 174q-29 89 -90 140q-53 -42 -111 -61q-27 -8 -48 -8q-34 0 -63 16q-7 6 -7 14l2 7q36 67 119 84q37 53 75 139q30 67 30 120q0 10 -2 26q-6 22 -28 38 q-19 14 -45 14l-13 -1q-119 -26 -176 -133zM207 578q22 3 47 37q-30 -14 -47 -37z" />
<glyph unicode="4" horiz-adv-x="817" d="M100 385q0 21 19 56q18 35 103 60q39 91 214 439l30 58q10 16 33 16q35 0 66 -27q17 -14 17 -32q0 -8 -2 -12q-121 -228 -262 -431q65 -1 137 -11q67 -9 130 -9q19 0 53 2q21 212 54 332q11 29 49 29q30 0 52 -14q24 -13 24 -36l-44 -207q-21 -104 -23 -106 q-35 -203 -49 -352q-12 -134 -12 -155v-3h-32v5q-27 161 -27 321q0 78 6 154l-51 -1q-67 0 -136 9q-70 10 -142 10h-12q-76 -103 -134 -133l-2 -2q-11 -6 -22 -6q-10 0 -18 5q-19 12 -19 41zM132 385q0 -9 4 -14q41 43 65 89q-69 -32 -69 -75z" />
<glyph unicode="5" horiz-adv-x="771" d="M100 162q0 32 21 89q22 57 132 107l12 -30q-133 -60 -133 -168q0 -36 19 -64q34 -49 122 -49q79 0 170 59q90 60 150 198q53 133 53 231q0 8 -5 75q-6 60 -60 103q-33 27 -72 27q-23 0 -51 -11q-51 -22 -90 -64q-38 -43 -71 -89l-38 16q-27 144 -48 205q-21 60 -21 97 q0 108 93 146q39 12 136 12q99 0 208 -8q34 -9 34 -61q0 -64 -41 -66q-119 10 -149 13q-105 9 -127 9q-30 0 -38 -5q-24 -15 -24 -57q0 -20 5 -58q8 -40 8 -123l-1 -70q73 99 151 133q61 23 108 23q139 0 194 -163q24 -71 24 -150q0 -28 -8 -111q-9 -78 -72 -184 q-65 -108 -182 -167q-87 -38 -160 -38q-148 0 -224 109q-25 38 -25 84z" />
<glyph unicode="6" horiz-adv-x="659" d="M100 288q0 70 20 192q21 116 110 269q87 150 249 266q21 12 39 12q12 0 33 -13q25 -16 25 -54q0 -32 -32 -55q-14 -7 -77 -61q-161 -136 -241 -372q-40 -127 -40 -255q0 -27 5 -90q6 -56 44 -109q49 -56 104 -56q43 0 112 53q63 48 114 119q52 71 61 158l1 18 q0 88 -58 119q-21 9 -43 9q-33 0 -82 -27q-48 -28 -98 -103q-49 -74 -61 -173l-32 4q12 100 66 184q53 84 125 125q39 23 80 23q32 0 59 -13q76 -42 76 -148q0 -14 -1 -21q-11 -93 -65 -171q-57 -82 -123 -130q-67 -50 -117 -58q-6 0 -9 -1l-21 -1q-43 0 -75 15 q-103 48 -137 220q-11 55 -11 125z" />
<glyph unicode="7" horiz-adv-x="684" d="M100 926q126 61 228 83q99 21 126 21l18 1q19 0 40 -4q58 -12 92 -64q28 -43 28 -115q0 -109 -59 -269q37 5 109 11l2 -32q-70 -5 -124 -13q-49 -119 -112 -245q-80 -153 -136 -318l-3 -10q-6 -19 -13 -32q-8 -14 -23 -21q-16 -8 -30 -8q-54 0 -63 53v4q0 97 257 555 q-66 -14 -128 -33l-10 30q74 23 157 40q60 116 90 221q15 51 15 92q0 43 -16 72q-24 45 -104 45q-139 0 -327 -93z" />
<glyph unicode="8" horiz-adv-x="590" d="M100 668q0 124 52 227q53 105 164 146q24 6 46 6q74 0 139 -62q67 -72 84 -201q5 -42 5 -75q0 -269 -199 -462q26 -69 26 -116q0 -9 -3 -40t-28 -65q-48 -68 -117 -68q-49 0 -94 39q-49 40 -49 128q0 82 78 193q-104 174 -104 350zM158 89q2 -36 40 -70q34 -29 71 -29 l15 1q24 0 40 24q17 23 17 60q0 12 -1 27q-2 24 -36 78q-4 8 -10 16l-27 34q-12 14 -44 59q-65 -95 -65 -164v-36zM223 761q0 -39 11 -113q10 -77 55 -184q46 -111 74 -159l14 -27q181 182 181 426q0 40 -12 120q-12 79 -73 144q-45 48 -103 48q-82 0 -112 -71 q-35 -89 -35 -184z" />
<glyph unicode="9" horiz-adv-x="700" d="M100 672q0 17 4 62q3 50 50 140q46 88 120 136q47 32 97 32q24 0 56 -10q41 -18 74 -72q31 -56 48 -99l11 19l5 26q6 36 17 60q11 21 41 24q1 1 5 1l21 -2q22 -6 39 -23q12 -12 12 -32l-1 -11q-94 -437 -152 -636q-62 -215 -112 -284q-47 -65 -104 -65h-8l-9 1 q-10 1 -24 6q-62 21 -74 85q-2 10 -2 17q0 43 36 105l27 -17q-30 -53 -30 -88q0 -8 1 -21q1 -19 26 -36q23 -17 49 -17l6 1q58 5 86 122q20 81 49 257q27 167 78 438q-42 -67 -117 -156q-77 -90 -145 -118q-33 -12 -64 -12q-11 0 -25 1q-20 2 -46 32q-45 56 -45 134z M215 588q0 -14 6 -26q9 -18 31 -18l18 3q62 26 136 115q79 95 121 163q-15 48 -44 101q-32 60 -67 76l-10 1q-27 0 -56 -44q-53 -79 -108 -253q-27 -88 -27 -118z" />
<glyph unicode=":" horiz-adv-x="214" d="M100 386q0 24 13 53q15 29 32 29q14 0 20 -13q4 2 8 2q14 0 26 -18q15 -21 15 -51v-19q0 -16 -28 -39q-14 -9 -28 -9q-39 0 -54 42q-4 9 -4 23zM100 603q0 24 13 53q13 28 33 28q13 0 19 -12q4 2 8 2q11 0 24 -15q17 -20 17 -52q0 -22 -13 -44q-18 -24 -43 -24 q-9 0 -20 2q-16 1 -31 32q-7 13 -7 30z" />
<glyph unicode=";" horiz-adv-x="244" d="M100 364q53 15 62 91v1l29 11l1 -1q46 -29 49 -83q0 -58 -40 -101q-13 -12 -19 -12h-1q-17 0 -59 59q-22 28 -22 35zM130 584q0 19 11 44q14 35 35 35q14 0 19 -13l7 1q10 0 24 -14q18 -19 18 -54q0 -20 -13 -43q-19 -24 -43 -24q-9 0 -33 9q-23 9 -25 59z" />
<glyph unicode="&#x3c;" horiz-adv-x="499" d="M100 498q0 9 4 38q3 32 55 95q52 61 124 109q71 47 139 73h3q13 0 27 -17q14 -16 29 -45q18 -39 18 -63q0 -14 -7 -17q-95 -38 -169 -75q-102 -52 -128 -88q-12 -18 -12 -37q0 -23 6 -38q6 -17 10 -21l-3 -2q8 -12 23 -27q29 -26 47 -40q55 -45 96 -76l93 -74q8 -8 8 -16 q0 -11 -12 -18q-6 -2 -8 -2q-5 0 -12 5q-15 12 -42 32.5t-38 29.5q-181 138 -190 169q-61 48 -61 105z" />
<glyph unicode="=" horiz-adv-x="503" d="M100 597q0 52 17 53q222 -17 279 -23l106 -11l1 -32h-3q-156 -63 -332 -63q-18 0 -46 2q-10 1 -16 21q-6 22 -6 53zM116 401v32h3v1q138 58 310 58q18 0 46 -2q8 -1 14 -21q6 -24 6 -53q0 -51 -17 -53q-173 16 -254 26z" />
<glyph unicode="&#x3e;" horiz-adv-x="481" d="M100 709q0 27 22 69q32 57 53 57q12 0 103 -70q61 -48 119 -104q84 -83 84 -152q0 -56 -41 -103l-3 -5l-3 2q-16 -20 -27 -30q-15 -16 -49 -43q-24 -20 -97 -77l-93 -74q-8 -5 -13 -5q-2 0 -12 4q-9 4 -9 16q0 8 9 16l93 74q20 16 52.5 41.5t43.5 34.5q32 26 46 40 q15 14 24 27l5 4q3 17 3 29q0 33 -22 56q-21 24 -95 63q-78 43 -187 115q-6 4 -6 15z" />
<glyph unicode="?" horiz-adv-x="719" d="M100 122q0 20 15 35q13 15 35 15t35 -15q15 -15 15 -35q0 -21 -15 -36q-14 -14 -35 -14t-35 14q-15 15 -15 36zM150 338q0 120 14 170q21 69 73 122q54 56 117 104q144 110 210 238q33 63 33 118q0 45 -37 82q-39 35 -88 50q-22 7 -46 7q-26 0 -54 -11h1q-56 -28 -79 -81 q-29 -67 -29 -169q0 -15 2 -37v-9l-32 -1q-1 12 -1 37q0 43 4 91q5 54 31 110q28 57 90 88h1q70 31 131 31q21 0 83 -13q56 -13 105 -81q40 -55 40 -135q0 -18 -6 -78q-4 -61 -98 -186q-57 -68 -112 -106q-63 -45 -115 -74q-86 -46 -142 -102q-58 -57 -64 -166z" />
<glyph unicode="A" d="M0 397q0 106 33 260q31 154 120 328t199 285q122 123 233 123q99 0 173 -120q50 -87 61 -190q32 82 67 134q21 32 52 32l3 1l1 1l4 -1q34 -7 48 -37q5 -13 5 -26q0 -21 -10 -44q-14 -32 -47 -99q-61 -123 -120 -272q-145 -353 -145 -723q0 -83 20 -152q17 -63 75 -70 q62 2 132 82q69 78 198 334q128 253 150 300l28 -14q-32 -70 -160 -319q-130 -254 -204 -334q-72 -78 -145 -86q-83 0 -127 93q-47 105 -47 293q0 137 28 304q29 173 89 344q-170 -257 -363 -508q-39 -52 -83 -98q-45 -45 -103 -69q-31 -12 -56 -12q-26 0 -54 19 q-55 39 -55 241zM74 227q3 -56 44 -56q14 0 35 8q53 23 94 64q45 46 79 93q98 126 249 340q154 218 222 359h-9v8q0 115 -57 214q-46 73 -100 73q-7 0 -50 -10q-40 -9 -114 -85q-75 -87 -165 -269q-91 -183 -159 -389t-69 -350z" />
<glyph unicode="B" horiz-adv-x="973" d="M0 59q2 16 2 62q0 101 10 252q29 439 204 908q19 40 54 40q30 0 53 -23q15 -16 15 -39q0 -13 -4 -25q-72 -188 -124 -364q32 64 94 153q142 203 277 234q54 6 75 6q41 0 80 -19q80 -50 80 -133q0 -5 -3 -53t-64 -136q-63 -90 -141 -145q82 -43 132 -120q61 -97 61 -209 q0 -134 -69 -254t-186 -201q-154 -106 -287 -106q-71 0 -114 39q-22 28 -22 61q0 42 50 107q48 65 181 137q132 70 278 86q40 99 40 183q0 44 -21 120q-23 76 -90 129q-74 -39 -134 -50q-5 -1 -12 -2.5t-13 -3l-10 -2.5q-21 -6 -43 -6h-10q-17 3 -31 17q-12 14 -12 31 q0 30 52 63q38 24 96 24q11 0 33 -2q86 86 160 195q64 94 64 144q0 26 -19 47q-22 24 -69 24q-93 0 -199 -115q-88 -97 -157 -225q-72 -134 -113 -256q-46 -192 -76 -358q-29 -161 -33 -218h-3q-9 1 -14 1q-2 0 -3 1h-5q-4 0 -7 1h-3zM153 -10q0 -22 15 -42q19 -17 46 -17 q34 0 101 36q65 33 159 127q91 90 143 191q-138 -15 -253 -78q-117 -63 -176 -137q-35 -46 -35 -80zM329 730q0 -13 18 -13q28 0 99 71q-48 -2 -76 -17q-41 -21 -41 -41z" />
<glyph unicode="C" horiz-adv-x="737" d="M0 321q0 164 41 336q41 171 118 318q74 143 157 238q80 91 132 114q33 16 92 24q18 2 27 2q45 0 88 -18h1q97 -49 97 -187q0 -49 -13 -94l-31 9q12 43 12 86q0 27 -9 77q-9 48 -69 80q-25 11 -51 11q-10 0 -50 -7q-34 -8 -80 -52q-69 -76 -139 -234q-73 -163 -128 -356 q-58 -204 -79 -374q-10 -76 -10 -146q0 -79 15 -139q24 -94 102 -94q7 0 23 2q103 28 224 167q122 139 297 442l26 -18q-184 -311 -317 -465q-20 -27 -83 -81q-60 -53 -140 -76q-23 -6 -45 -6q-60 0 -108 45q-53 52 -73 132q-27 108 -27 264z" />
<glyph unicode="D" horiz-adv-x="1130" d="M0 -55q0 12 29 329q56 610 127 927q15 48 59 48q26 0 45 -16q20 -17 20 -46l-1 -17q-94 -387 -186 -878q46 148 111 301q120 264 248 422q130 162 214 212q81 48 147 48q46 0 112 -39q67 -37 96 -194q9 -49 9 -106q0 -120 -53 -314q-54 -192 -237 -459q58 -14 118 -39 l-12 -29q-65 26 -126 40q-73 -99 -121 -143q-58 -51 -106 -82q-55 -35 -96 -35q-55 0 -81 47q-13 23 -13 52q0 74 95 142q83 60 223 62q3 5 8 16t9 17q14 28 23 49q166 353 214 556q33 138 33 227q0 47 -17 108q-21 79 -111 79q-49 0 -97 -30q-78 -47 -206 -205t-243 -415 q-104 -246 -175 -528l-28 -115zM335 -27q0 -46 38 -63q6 -2 18 -2q35 0 74 38q39 36 79 99q35 56 60 101q-121 -6 -191 -58q-76 -56 -78 -115z" />
<glyph unicode="E" horiz-adv-x="899" d="M0 -19q0 31 24 65q26 36 84 52q9 52 15 123q6 110 43 336q-29 -14 -55 -35l-21 24q42 34 82 49q58 324 155 619q-44 -13 -85 -41l-18 26q51 35 115 52q23 56 60 56h22q20 -2 39 -37q35 2 105 4h15q74 0 149 9q77 9 143 49l17 -28q-74 -42 -157 -53q-75 -9 -152 -9h-15 q-66 -2 -100 -4q-3 -11 -25 -82q-116 -384 -155 -534q19 2 56 2q81 0 212 -28q93 -21 136 -21q28 0 54 8l11 -30q-27 -10 -63 -10q-52 0 -147 22q-121 28 -203 28q-36 0 -65 -4q-40 -170 -86 -393l-20 -93q83 -6 195 -70q50 -26 86 -42q58 -25 104 -25q42 0 84 21 q41 21 58 68l30 -9q-17 -56 -66 -83q-49 -28 -106 -28q-55 0 -104 21q-52 22 -98 48q-55 29 -95 46q-51 21 -98 22q-12 -38 -34 -76q-41 -71 -81 -71q-14 0 -29 9l-4 5q-3 3 -8 13q-4 8 -4 21v8zM32 -20q0 -14 5 -19l6 -1q19 0 40 52q12 28 17 50q-36 -14 -53 -38 q-15 -22 -15 -44z" />
<glyph unicode="F" horiz-adv-x="601" d="M0 649q87 6 174 9q26 199 26 350q0 85 -11 156q-71 30 -114 82q-17 23 -17 41q0 15 13 27q15 13 32 13t52 -18q33 -17 62 -122q28 -10 43 -13l15 82q13 57 63 57q20 0 40 -15q22 -18 22 -53q0 -13 -15 -89l32 -1q295 0 565 159l16 -27q-145 -86 -310 -128 q-142 -35 -270 -35l-39 1q-29 -165 -92 -463h159v-32h-166q-100 -448 -193 -723l-15 -47q-9 4 -14 4l-6 2l-14 2q21 112 36 201q80 439 95 557q-84 -3 -166 -9zM90 1284q0 -11 26 -35q26 -25 64 -45q-13 40 -40 71q-18 20 -34 20t-16 -11zM224 1151q7 -62 7 -133v-17l23 141 z" />
<glyph unicode="G" horiz-adv-x="1015" d="M0 535q0 57 19 153q18 102 82 236q65 137 149 239q85 103 171 142q35 16 68 16q45 0 86 -33l2 -2q34 -35 34 -89q0 -15 -4 -50q-5 -41 -37 -109q-36 -73 -71 -118l-26 19q33 42 63 104q45 89 45 151q0 43 -25 68q-17 16 -42 16h-15q-16 -2 -35 -17q-30 -22 -90 -118 q-57 -89 -124 -227q-149 -309 -149 -495q0 -22 1 -58q1 -54 73 -91q27 -10 56 -10q107 0 226 146q120 148 197 326l1 29q5 41 35 54q14 6 28 6q61 0 64 -65q-4 -261 -75 -518l366 298l18 -26l-400 -322q-66 -195 -163 -329q-94 -130 -182 -177q-40 -20 -69 -20q-38 0 -62 31 q-19 26 -19 58q0 77 109 182q67 64 132 113q85 64 130 92q74 251 84 511q-46 -94 -121 -201q-75 -108 -171 -176q-64 -44 -127 -44q-34 0 -69 12q-163 73 -163 293zM230 -251q0 -23 12 -38q12 -13 27 -13q19 0 62 30q43 31 101 117q58 87 117 243q-120 -83 -187 -141 q-72 -62 -114 -140q-18 -35 -18 -58z" />
<glyph unicode="H" horiz-adv-x="1185" d="M0 454q130 27 260 48q35 261 77 477q73 391 135 430q11 5 25 5q22 0 41 -17q19 -19 19 -48q0 -13 -5 -33q-34 -94 -75 -261q-41 -168 -117 -537q232 34 448 48q68 373 171 661q19 43 56 43q30 0 52 -22q15 -16 15 -39q0 -14 -4 -27q-100 -281 -186 -611q108 4 160 4 q54 0 154 -4l-1 -32q-104 4 -158 4q-53 0 -163 -4q-61 -250 -89 -410q-31 -169 -32 -189l-31 12v10q0 260 50 572q-204 -13 -449 -49q-101 -501 -120 -629l-59 11q32 152 39 317q2 24 2 36q0 43 -10 82q-21 62 -78 96q-42 26 -92 26q-19 0 -29 -2zM109 443q96 -40 127 -136 q13 114 20 162q-49 -8 -147 -26z" />
<glyph unicode="I" horiz-adv-x="705" d="M0 2q0 2 2 20q2 14 22 14l15 1q39 0 117 -15q-2 74 -2 109q0 257 43 502q42 250 96 421q53 169 68 191h-77q-13 4 -30 61q-8 20 -8 45q0 16 12 19h15q82 0 318 -49l14 -3l-3 -32h-2q-79 -28 -145 -35q20 -20 20 -39q0 -20 -9 -42q-205 -549 -277 -1155q123 -24 180 -36 l63 -12q8 -2 11 -2q1 0 3.5 -0.5t3.5 -1.5q2 -1 5 -1h3l2 -1l-3 -32l-2 1q-105 -27 -195 -27h-29q-77 0 -122 4q-36 3 -59 3h-11q-9 2 -18 19q-21 39 -21 73z" />
<glyph unicode="J" horiz-adv-x="855" d="M0 114q0 57 19 137q19 81 70 158q73 101 183 158q112 57 232 90q19 145 23 272q5 41 5 163q0 63 -2 108q-1 67 -34 117q-17 26 -51 26q-29 0 -63 -17q-123 -63 -198 -180l-27 18q79 124 211 190q45 24 89 26q43 0 88 -39q37 -31 60 -101q23 -69 39 -204q13 -84 13 -197 q0 -59 -5 -144q64 14 97 20l6 -32q-56 -9 -107 -21q-30 -283 -118 -462q-89 -181 -200 -255q-80 -54 -155 -54q-34 0 -59 8q-88 35 -107 129q-9 42 -9 86zM31 111q0 -31 11 -92q11 -59 85 -90q23 -6 38 -6q7 0 15 2q138 30 227 285q61 177 92 412q-110 -31 -214 -84 q-102 -53 -170 -147q-44 -68 -68 -163q-16 -64 -16 -117z" />
<glyph unicode="K" horiz-adv-x="828" d="M0 637v17q0 16 35 21h6q35 0 97 -52l4 2q64 342 152 648q18 47 60 47q27 0 45 -18q19 -18 19 -45q0 -11 -3 -23q-44 -144 -139 -498q69 76 155 184q104 133 193 226q111 117 190 117q27 0 58 -16q30 -16 40 -55l-31 -7q-6 24 -30 36q-22 10 -39 10q-64 0 -168 -111 q-89 -94 -186 -218q-106 -136 -198 -228l-38 -147q47 -72 88 -158q50 -102 105 -183q59 -89 125 -89q59 0 129 112l27 -17q-80 -128 -158 -128q-48 0 -98 45q-47 42 -95 125q-51 87 -83 154q-28 60 -51 96q-98 -395 -122 -527l-31 5l26 243q26 241 50 378l-1 1q-1 0 -1 1 q-35 -11 -58 -11q-25 0 -42 11q-32 21 -32 52zM32 637q0 -10 8 -17q17 -14 39 -14q13 0 25 4q-44 34 -62 34q-10 0 -10 -7z" />
<glyph unicode="L" horiz-adv-x="663" d="M0 -48q0 8 8 34q9 25 65 54q58 30 141 31q26 75 106 400q119 476 168 617q41 114 121 202q72 81 109 81q12 0 20 -4q24 -15 24 -43q0 -18 -9 -41q-69 -168 -183 -310q-87 -592 -262 -912q81 -17 167 -51q103 -40 199 -58q32 -7 69 -7q67 0 151 33q83 31 180 172l27 -18 q-35 -58 -111 -125q-77 -68 -191 -90q-27 -4 -60 -4q-96 0 -259 62q-92 37 -188 57q-29 -50 -74 -93q-44 -42 -94 -59q-14 -5 -33 -5q-31 0 -60 21q-31 27 -31 56zM31 -46q0 -16 19 -32q18 -12 32 -12h4q70 8 116 129q-48 -3 -96 -20q-47 -18 -67 -44q-8 -11 -8 -21z M580 1039q37 48 97 157q53 95 53 127q0 11 -6 15q-2 1 -5 1q-21 0 -63 -67t-76 -233z" />
<glyph unicode="M" horiz-adv-x="1255" d="M0 295q0 80 8 208q7 136 37 317q29 172 51 201q14 13 34 13l20 -2q16 -1 36 -17q20 -17 21 -38q-1 0 -27 -114q-29 -128 -59 -295q-31 -163 -59 -382q50 152 161 499q81 255 126 384q42 124 70 172q23 38 50 38q10 0 13 -1l8 -5q23 -14 53 -78q31 -67 47 -170 q9 -54 9 -117q0 -54 -8 -126q117 260 284 433q78 84 144 84q17 0 32 -4q88 -29 101 -130q5 -38 5 -73q0 -138 -89 -464q-28 -107 -48 -196q-30 -131 -30 -224q0 -43 4 -95q5 -59 31 -116q26 -59 85 -70h3q67 0 147 98l25 -21q-87 -109 -174 -109h-3q-57 7 -101 48 q-43 39 -67 88q-63 136 -63 284q0 28 1 80q2 81 38 225q39 153 79 273q66 198 66 266q0 73 -53 87q-4 1 -13 1q-41 0 -95 -53q-234 -242 -372 -666q-2 1 -5 2l-4.5 1.5t-2.5 0.5q-2 1 -5 1q-11 0 -14 1v5q0 38 -13 94q-29 112 -29 282q0 51 4 103q3 41 13 112q7 50 7 85 q0 25 -4 28q-5 3 -8 3l-5 -2l-2 -1q-14 -7 -36 -60q-19 -44 -64 -181q-41 -121 -117 -359q-75 -233 -192 -594l-3 -9l-29 4l-1 9q-18 108 -18 242z" />
<glyph unicode="N" horiz-adv-x="1300" d="M0 1q0 14 6 29l29 -14q-3 -8 -3 -14q0 -9 8 -23q12 -21 42 -21q100 0 190 362q45 187 83 373q27 129 68 306q37 161 74 272q7 21 19 38q18 21 40 21q37 0 60 -74l1 -3q24 -78 29 -156q20 -240 23 -430l1 -185q0 -112 -1 -163q-2 -88 -2 -122q0 -134 10 -205 q11 -83 54 -83q14 0 28 7q36 19 68 66q142 216 237 464q101 267 160 467q51 163 93 273q40 107 81 130q11 5 27 5q21 0 37 -11q26 -15 26 -43l-1 -10l-31 7v2q0 8 -6 14q-10 9 -27 9q-31 0 -58 -70q-71 -193 -128 -372q-77 -243 -161 -457q-87 -222 -223 -427 q-30 -49 -79 -75h-1v-1q-23 -10 -46 -10q-60 0 -106 91q-47 92 -69 279q-22 176 -22 381v117q0 141 19 308q14 121 14 181q0 58 -10 59q-7 0 -7 -3q-12 -8 -19 -29q-67 -218 -132 -539q-48 -236 -109 -469q-57 -215 -121 -289q-41 -39 -78 -39q-4 0 -28 3t-46 34 q-13 17 -13 39z" />
<glyph unicode="O" horiz-adv-x="902" d="M0 513q0 231 106 473q73 165 187 260q87 72 196 72q37 0 71 -7q29 23 70 23q7 0 51 -7q38 -6 83 -89q38 -70 38 -215l-1 -54q-24 -403 -215 -763q-87 -169 -208 -248q-52 -35 -108 -35l-15 1q-97 19 -158 137q-62 117 -84 277q-13 87 -13 175zM133 366q0 -104 14 -218 q6 -64 29 -121t83 -71l13 -1q41 0 89 30q108 71 197 233q88 160 144 363q68 246 68 443q0 130 -33 197q-32 66 -80 77q-15 3 -28 3q-29 0 -46 -13l-8 -6q-40 -34 -85 -191q-38 -129 -38 -291l1 -46l-32 -2l-1 48q0 164 39 301q39 136 73 180q-95 0 -176 -100t-136 -266 q-56 -169 -77 -366q-10 -102 -10 -183z" />
<glyph unicode="P" horiz-adv-x="953" d="M0 -115q0 17 18 213q55 583 188 1186q17 56 62 56q22 0 43 -18q19 -16 19 -50l-1 -19l-121 -550q76 238 177 436q59 118 144 167q47 24 92 24q27 0 76 -17q48 -16 101 -90q92 -134 92 -309q0 -146 -60 -293t-173 -260q-113 -114 -260 -152q-39 -10 -81 -10q-14 0 -49 3 q-36 3 -79 40q-34 39 -34 85q0 11 8 53q7 40 60 82q48 37 109 49q54 11 112 16l3 -32q-50 -5 -105 -15q-128 -26 -152 -127q-3 -12 -3 -25q0 -33 25 -63q26 -24 62 -24q29 0 58 12q126 56 223 176q96 118 152 270q55 149 55 294q-2 143 -70 243q-41 56 -94 56q-28 0 -52 -14 q-79 -47 -150 -188q-74 -143 -135 -331q-63 -191 -111 -378q-46 -174 -79 -326q-30 -138 -36 -177l-34 6v1z" />
<glyph unicode="Q" horiz-adv-x="969" d="M0 364q0 58 12 184q14 128 78 312q64 183 163 320q97 135 214 175q35 12 71 12q84 0 169 -67q12 4 28 4q11 0 25 -3q101 -26 119 -168q5 -36 5 -93q0 -114 -34 -283t-113 -370q-80 -201 -172 -339q75 -113 182 -113q32 0 71 16q42 17 64 63l29 -13q-27 -56 -91 -83 q-32 -14 -73 -14q-32 0 -86 15t-116 101q-118 -155 -246 -155q-59 0 -117 36q-182 123 -182 463zM120 164q3 -232 157 -265l22 -1q64 0 123 43q60 43 105 108q-33 64 -46 134q-23 126 -23 332q0 366 108 630q33 84 98 134q-42 17 -79 17q-144 0 -263 -235 q-68 -133 -114 -295q-88 -313 -88 -573v-29zM489 480q0 -59 8 -187q7 -118 50 -214q100 154 174 356q75 206 109 393q22 119 22 216q0 58 -13 140q-13 85 -104 88q19 -26 30 -54l-30 -11q-12 34 -40 54q-77 -45 -126 -196q-80 -249 -80 -585z" />
<glyph unicode="R" horiz-adv-x="1056" d="M0 168q0 555 152 1105q18 55 63 55q25 0 44 -18t19 -47q0 -5 -2 -19q-134 -468 -212 -1025q46 171 117 361q165 437 421 627q94 71 157 71q29 0 57 -12q101 -46 101 -178q0 -95 -53 -211q-53 -119 -170 -229q-117 -109 -284 -159q60 -82 94 -179q34 -98 57 -189 q0 -4 1 -5q56 -206 157 -206q27 0 71 25t99 108q55 82 203 497l30 -11q-137 -382 -178 -454q-44 -78 -100 -136q-58 -58 -123 -61q-40 0 -74 22q-36 24 -58 57q-41 69 -68 186q-20 81 -53 174q-33 89 -92 163h-2q-55 -13 -77 -13q-20 0 -45 10q-38 20 -38 59q0 18 11 34 q13 19 42 19q11 0 24 -2q19 -1 75 -50q97 67 188 161q94 98 155 194q94 142 94 230q0 45 -28 72q-21 20 -61 22q-41 0 -93 -34q-234 -175 -391 -563q-107 -269 -185 -602l-12 -47l-7 2q-10 2 -22 2v12q-4 81 -4 182zM247 539q0 -38 40 -38q23 0 51 18q-45 39 -74 39 q-17 0 -17 -19z" />
<glyph unicode="S" horiz-adv-x="683" d="M0 -115q0 34 30 91q29 56 104 129q76 73 134 114q-95 212 -134 326q-55 153 -55 307q0 136 65 267q57 108 143 161q80 49 159 49h12q147 -12 147 -202q0 -113 -48 -232l-29 12q27 68 40 154q5 37 5 63q0 52 -18 109q-18 56 -98 64q-87 0 -145 -66q-109 -133 -109 -301 q0 -130 43 -266q43 -141 94 -261q16 -37 44 -111q114 64 368 248l14 -29q-246 -180 -371 -249q40 -120 40 -202q0 -34 -15 -98q-13 -63 -79 -112q-92 -68 -209 -68q-82 0 -113 42q-19 28 -19 61zM33 -116q0 -23 12 -41q21 -22 56 -22q9 0 34 3q28 3 73 28q116 62 116 168 q0 71 -43 169q-52 -38 -117 -100q-64 -61 -107 -133q-24 -41 -24 -72z" />
<glyph unicode="T" horiz-adv-x="638" d="M0 1160q0 6 3 24q3 19 38 30q216 45 405 45h23q24 70 69 70q20 0 39 -16q22 -19 22 -52v-6q266 -22 463 -89l28 -9l-9 -30l-7 1q-231 27 -403 27l-100 -1q-86 -295 -143 -569q-60 -285 -93 -478q-34 -201 -35 -223l-32 4l1 9q7 633 168 1250q-184 -16 -351 -53 q-13 -4 -25 -4q-29 0 -45 22t-16 48z" />
<glyph unicode="U" horiz-adv-x="886" d="M0 420v10q8 212 83 437q76 231 169 417q20 33 49 33q8 0 20 -1q17 -2 38 -27q12 -15 12 -33q0 -14 -6 -29q-166 -350 -221 -517q-27 -77 -51 -193q-23 -110 -23 -209q0 -27 1 -66q2 -59 55 -108l28 -15q15 -8 38 -8q47 0 85 21q73 47 160 171q80 111 133 199 q30 199 97 439q68 244 112 337q10 19 31 34q13 8 26 8q5 0 22 -5q14 -4 33 -43q7 -14 7 -27q0 -1 -2 -11q-1 -4 -26 -66q-26 -57 -75 -210q-133 -407 -164 -698q-5 -53 -5 -89q0 -173 89 -212l-13 -30l-9 4q-141 60 -141 324q0 92 9 170q-125 -195 -203 -272 q-80 -77 -164 -77q-47 0 -88 28l-9 7q-24 17 -43 50q-54 96 -54 257z" />
<glyph unicode="V" horiz-adv-x="770" d="M0 463q0 77 9 246q7 168 75 446q18 54 62 54q26 0 45 -18t19 -44q0 -13 -2 -20q-121 -496 -121 -928q0 -102 10 -152q17 -79 70 -79q7 0 18 4q12 3 35 26q78 78 215 350q125 248 238 556q-73 87 -73 180q0 2 0.5 10t1.5 23.5t2 31.5q3 57 52 133q52 83 100 83 q41 0 41 -98q0 -105 -87 -355q72 -66 160 -66q21 0 49 5l7 -32q-29 -6 -55 -6q-92 0 -173 67q-76 -218 -225 -528q-183 -382 -288 -417l-20 -1h-14q-40 4 -69 35q-44 47 -66 223q-16 115 -16 271zM632 1093q0 -82 53 -155q79 233 79 348q0 49 -16 49q-8 -3 -12 -9 q-82 -78 -100 -187q-4 -21 -4 -46z" />
<glyph unicode="W" horiz-adv-x="1275" d="M0 545q0 105 15 295q15 194 91 455q18 52 61 52q26 0 46 -20q17 -17 17 -45q0 -12 -3 -26q-68 -286 -94 -430q-42 -224 -42 -442q0 -183 43 -362q18 -81 60 -99l10 -1q52 0 120 86q48 61 109 194q-17 97 -17 184q0 229 95 407q6 17 18 32q12 14 32 14q31 0 58 -24 q19 -19 19 -39q0 -13 -5 -23q-13 -21 -43 -96q-33 -79 -57 -206q-13 -68 -13 -150q0 -59 8 -131q21 -160 119 -160q57 0 140 63q81 62 169 197q87 134 141 306q47 152 47 308q0 35 -4 127q-4 103 -102 271l27 17q110 -191 110 -409q0 -170 -56 -344t-151 -315 q-95 -142 -201 -214q-78 -54 -147 -54q-22 0 -79 17q-55 16 -97 170q-70 -164 -176 -240q-31 -20 -63 -20q-55 0 -109 88q-55 90 -80 303q-16 131 -16 264z" />
<glyph unicode="X" horiz-adv-x="895" d="M0 84q196 315 459 580q1 11 13 122q26 232 26 288q0 103 -32 162q-44 80 -115 80q-29 0 -54 -15q-37 -22 -46 -61l-31 7q10 50 61 81q39 24 91 24q13 0 55 -6q41 -4 99 -69q88 -98 88 -379q0 -46 -3 -91q235 209 507 369l16 -28q-285 -168 -525 -386l-7 -91 q-16 -197 -16 -313q0 -52 7 -155q6 -88 38 -170q31 -80 99 -103q18 -4 28 -4q93 0 153 132l22 56l29 -13l-10 -25q-12 -28 -27 -59q-14 -29 -37 -61q-77 -80 -161 -80q-27 0 -93 19q-68 20 -136 200q-50 131 -50 352q0 77 6 166q-242 -249 -427 -546z" />
<glyph unicode="Y" horiz-adv-x="1143" d="M0 609q0 47 16 150q16 107 84 276q69 170 146 295q16 20 39 20q37 0 64 -34q11 -16 11 -30q0 -11 -6 -23q-131 -208 -221 -439q-67 -170 -67 -281q0 -83 47 -128q36 -31 94 -31q9 0 50 3q41 1 144 81q157 130 261 301q107 175 182 354q2 6 2 18q3 84 60 97l9 1 q21 0 42 -19q20 -17 20 -57v-10q-66 -432 -182 -795q132 74 385 174l12 -30q-268 -106 -411 -189q-33 -108 -70 -203q-90 -233 -210 -278q-19 -6 -38 -6q-25 0 -46 10q-5 1 -23 15q-27 23 -27 64q0 15 5 35q31 112 118 194q90 83 187 143q91 354 149 719q-72 -158 -170 -304 q-98 -148 -236 -259q-118 -90 -210 -90q-70 0 -114 32q-46 34 -59 61q-37 65 -37 163zM399 -85q0 -9 3 -23q4 -13 29 -25l6 -1q13 -3 24 -3l13 1q52 18 90 86q61 110 97 272l4 19q-85 -55 -161 -128q-75 -75 -101 -170q-4 -13 -4 -28z" />
<glyph unicode="Z" horiz-adv-x="990" d="M0 -93q0 8 8 35q7 23 56 52q47 28 130 28h6q229 323 520 862q86 156 132 234q-64 11 -137 32q-108 33 -207 40h-13q-72 0 -146 -33q-73 -33 -103 -111l-30 10q33 89 119 130q78 36 158 36h16q111 -9 216 -42q75 -22 146 -33q102 157 240 202q20 5 32 5q26 0 46 -19 q22 -20 23 -57q-2 -52 -63 -105q-62 -53 -187 -62q-13 -28 -39 -92q-46 -117 -121 -276q-80 -168 -204 -359q-126 -192 -308 -374q75 -19 141 -46q129 -52 208 -52q46 0 109 23q60 22 140 123q90 117 133 262l31 -9q-43 -146 -139 -273q-85 -108 -169 -139q-51 -19 -106 -19 q-84 0 -222 55q-75 31 -154 48l-8 -7q-28 -27 -75 -64q-71 -57 -119 -57q-23 0 -41 15q-19 15 -19 37zM32 -92q0 -20 26 -20l10 1q53 15 105 94q1 3 5 7q-61 -3 -94 -22q-52 -28 -52 -60zM979 1144q102 12 151 55q48 43 50 79q-2 19 -10 29q-11 11 -22 11q-15 -2 -37 -16 l-3 -1q-70 -46 -129 -157z" />
<glyph unicode="[" horiz-adv-x="434" d="M100 97l1 110q11 271 50 488q38 219 80 366q41 143 56 169q26 51 95 65l49 6l3 -32l-48 -6q-29 -5 -47 -27q-10 -13 -11 -32q-2 -28 -2 -60v-23q0 -87 -16 -272q-4 -59 -14 -133q-42 -361 -119 -648q-29 -113 -29 -148q0 -46 38 -46q29 0 73 39l21 -24q-31 -28 -62 -40 q-15 -7 -32 -7q-27 0 -37 10q-20 11 -30 38q-19 42 -19 207z" />
<glyph unicode="\" horiz-adv-x="551" d="M100 1170v11q0 37 29 56q26 17 55 17q7 0 34 -5q25 -4 38 -47q134 -635 211 -954q79 -334 84 -345l-38 -12l-3 8q-134 293 -243 640q-107 336 -167 631z" />
<glyph unicode="]" horiz-adv-x="434" d="M100 -126l48 6q31 5 47 27q13 17 13 68v47q0 147 30 405q42 361 119 648q30 113 30 145q0 49 -37 49q-29 0 -75 -40l-21 24q29 28 63 41q14 7 31 7q19 0 36 -10l1 -1q19 -9 31 -37q18 -42 18 -207l-1 -110q-11 -268 -49 -488q-40 -224 -81 -366q-40 -141 -55 -169 q-26 -51 -96 -65l-48 -6z" />
<glyph unicode="^" horiz-adv-x="455" d="M100 997q0 8 37 79q34 66 90 140q51 76 89 76q14 0 28 -11l17 -21q10 -18 47 -153l47 -159l-31 -9q-64 220 -71 245q-18 55 -19 57v1l-5 4q-4 0 -9 -10l-5 -15q-14 -55 -66 -192l-27 -66q-4 -6 -20 -6q-24 0 -48 8q-54 13 -54 32z" />
<glyph unicode="_" horiz-adv-x="996" d="M108 -116q0 16 4 40q3 27 31 37q183 33 380 33q6 0 23.5 -0.5t51.5 -1t68 -0.5q125 -3 322 -58q11 -3 11 -18l-2 -10q-5 -14 -13 -14q-51 0 -280 -20q-225 -20 -546 -78h-3q-26 0 -38 36q-9 26 -9 54z" />
<glyph unicode="`" horiz-adv-x="321" d="M100 1217q0 16 31 46q30 31 44 31h3l1 -1l8 -10q55 -75 86 -134q48 -87 48 -93l-23 -16l-1 2q-66 38 -121 89q-52 49 -75 83z" />
<glyph unicode="a" horiz-adv-x="601" d="M-42 386q0 51 24 114q26 63 86 106q39 27 91 27q77 0 114 -40q11 22 23 41q12 17 24 17q20 0 52 -21q41 -29 41 -46q0 -4 -12 -22q-89 -142 -89 -278q0 -83 39 -104l8 -1h9q21 0 38 7q27 10 69 58q81 127 133 266l30 -11q-26 -70 -70 -158q-47 -94 -92 -142 q-47 -51 -110 -55q-39 0 -68 20l-2 1q-43 34 -61 107q-13 51 -13 107q0 15 2 43q-108 -133 -149 -156q-17 -7 -30 -7q-16 0 -22 3l-4 2q-61 30 -61 122zM58 306q0 -7 4 -7q14 0 86 83q46 54 87 108q11 44 23 71q-24 33 -50 33q-19 0 -37 -30q-16 -25 -43 -89 q-20 -45 -45 -99v-1q-25 -50 -25 -69z" />
<glyph unicode="b" horiz-adv-x="700" d="M-18 309q0 7 0.5 47.5t0.5 73.5q2 90 25 244q55 363 272 593q41 37 79 64q61 43 106 43q32 0 56 -25q26 -30 26 -84v-14q-11 -103 -68 -193q-96 -147 -310 -311q-41 -155 -103 -424l-21 -89q37 79 100 161q62 80 134 117q58 25 98 25t69 -23q55 -43 55 -140v-13 q103 71 236 149l17 -27q-135 -78 -257 -165q-45 -289 -246 -413q-37 -22 -79 -27h-7q-37 0 -59 27q-9 17 -9 38l1 11q10 81 75 147q66 68 156 134q42 117 55 161q7 32 7 40q0 32 -34 49q-16 7 -28 7q-17 0 -37 -9q-94 -51 -165 -168t-105 -225h-2v-1l-32 2q0 11 -2 69 q-4 82 -4 149zM129 -50v-6q0 -15 4 -22q8 -8 15 -8q29 0 78 88q47 85 82 175q-54 -36 -117 -104q-51 -54 -62 -123zM184 800q117 90 217 204q97 112 114 250v11q0 47 -23 67q-10 8 -20 8q-22 0 -52 -30q-148 -166 -236 -510z" />
<glyph unicode="c" horiz-adv-x="600" d="M-62 322q0 28 10 88q9 62 65 146q54 81 129 119q37 19 76 19q34 0 71 -17q46 -28 46 -91q-6 -53 -28 -92l-29 14q20 36 25 79q0 18 -7 35q-12 29 -39 29q-36 0 -79 -67q-44 -69 -80 -180q-37 -111 -46 -206v-9q0 -22 7 -37t36 -18q92 1 243 116q147 113 264 257l25 -19 q-68 -88 -161 -173q-99 -91 -198 -152q-98 -61 -173 -61q-84 0 -123 74q-34 73 -34 146z" />
<glyph unicode="d" horiz-adv-x="788" d="M-70 323q0 31 12 89q10 58 61 132q50 72 118 102q29 13 62 13q41 0 80 -20q15 -8 26 -22q37 234 111 408q74 175 159 260q61 63 115 63q21 0 39 -9q55 -28 55 -113q0 -41 -17 -132q-16 -87 -92 -219q-77 -132 -221 -234q-1 -6 -2 -13t-3 -16.5t-3 -15.5q-18 -96 -32 -187 q-25 -153 -25 -261q0 -164 66 -164q10 0 22 3q56 23 110 102q55 81 102 181q54 118 85 191l17 41l29 -12q-49 -120 -107 -245q-118 -247 -227 -289q-21 -6 -38 -6q-51 0 -89 53q-39 53 -59 154q-19 94 -19 187v9q-77 -91 -128 -138q-61 -57 -107 -57q-18 0 -25 3q-4 0 -5 1 h-1q-37 17 -50 55q-19 54 -19 106zM28 206q2 -5 6 -8t10 -3l14 2q26 12 70 54q76 75 139 155q4 66 16 163q-23 46 -55 46q-13 0 -25 -9q-66 -57 -139 -268q-36 -102 -36 -124v-8zM447 686q135 108 205 243q83 161 83 285q0 75 -36 96q-9 4 -20 4q-73 0 -142 -239 q-51 -169 -90 -389z" />
<glyph unicode="e" horiz-adv-x="534" d="M-58 348q0 133 100 236q64 67 149 67q35 0 60 -17q19 -19 19 -49q0 -21 -17 -69q-18 -46 -66 -93q-38 -35 -73 -35q-7 0 -23 4q-31 -75 -31 -122q0 -24 6 -48q10 -45 81 -45q51 0 121 45q71 48 144 134q77 90 122 156l26 -18q-237 -349 -419 -349q-49 0 -89 20 q-50 26 -75 65q-35 52 -35 118zM103 421q8 -2 12 -2q27 0 58 36q33 35 54 84q11 25 11 46q0 26 -17 26q-37 -4 -84 -111q-18 -40 -34 -79z" />
<glyph unicode="f" horiz-adv-x="543" d="M-40 226q0 102 24 277q24 178 106 380q81 204 175 318q85 103 150 103q6 0 18 -2q72 -27 72 -125q0 -83 -43 -190q-44 -110 -125 -215q-83 -108 -188 -174l-15 -75q74 -12 117 -175h11q72 0 153 39q81 40 140 121l26 -19q-62 -86 -148 -129q-86 -44 -170 -44h-4 q23 -101 23 -228q0 -36 -1 -87q-2 -78 -34 -187q-33 -111 -100 -126h-8q-41 0 -71 37q-29 37 -49 94q-21 60 -29 105q-30 152 -30 302zM72 -77q0 -62 4 -102q10 -100 67 -102q47 11 76 112q32 114 32 269q0 113 -25 219q-74 11 -117 57q-37 -250 -37 -453zM116 418 q32 -49 100 -65q-36 129 -88 138zM159 643q139 106 218 243q96 165 96 285q0 79 -50 100l-9 1q-76 0 -158 -258q-56 -173 -97 -371z" />
<glyph unicode="g" horiz-adv-x="616" d="M-114 -202q0 22 7 64q8 47 79 148q72 101 233 233l28 127q-67 -75 -134 -81q-156 5 -156 146q0 133 117 204q37 23 80 23q120 0 140 -95l12 49q14 39 54 39q26 0 48 -16q22 -15 22 -42q0 -13 -63 -244q136 92 239 156l18 -26l-58 -38q-107 -67 -212 -140q-9 -30 -18 -66 q-31 -117 -59 -204q-36 -115 -80 -204q-46 -94 -105 -139q-35 -26 -73 -26q-29 0 -61 15l-8 6q-10 8 -17 16q-10 11 -15 22q-18 29 -18 73zM-82 -198q0 -66 42 -91l8 -2q6 -2 23 -2q12 0 23 4q44 21 75 87q30 63 52 152q18 75 37 168q0 3 16 74q-142 -114 -224 -240 q-52 -79 -52 -150zM63 370q7 -47 36 -49q30 3 71 35q38 30 74 81q9 43 9 78q0 87 -40 97l-6 1q-26 0 -62 -51q-17 -30 -31 -56q-22 -40 -36 -76q-15 -38 -15 -58v-2z" />
<glyph unicode="h" horiz-adv-x="732" d="M2 374q0 104 12 236q12 133 93 349q63 157 149 260t165 137q35 16 64 16q34 0 56 -23q26 -30 26 -86v-12q-18 -182 -210 -361q-87 -81 -168 -143l-2 -7q-17 -63 -69 -281l-61 -255q136 292 263 292q40 0 82 -50q43 -61 43 -143q0 -2 -0.5 -8t-1 -18.5t-0.5 -25.5 q-1 -45 -29 -132q-24 -75 -50 -140l-15 -37q-16 -36 -16 -60q0 -17 12 -32q17 -16 46 -16q58 0 117 77q97 122 156 275q61 161 101 314l31 -8q-44 -165 -103 -320q-62 -160 -161 -282q-30 -38 -61 -62q-35 -27 -81 -27q-41 0 -70 28q-41 49 -50 118q-4 42 -4 64q0 83 30 231 q19 85 19 137q0 55 -41 55q-59 0 -144 -157q-51 -95 -91 -193l-31 7q0 89 -3 165q-3 60 -3 118zM204 800q117 90 217 204q97 112 114 250v13q0 71 -41 71q-1 0 -4 -0.5t-10 -1t-15 -0.5q-26 -3 -104 -130q-77 -125 -157 -406z" />
<glyph unicode="i" horiz-adv-x="376" d="M-18 353q0 23 6 104q6 80 50 193q6 10 23 10q22 0 46 -8q52 -18 52 -38l-1 -4q-12 -27 -47 -129q-31 -91 -48 -180q-7 -34 -7 -62q0 -36 14 -52l4 -2q7 -3 9 -4q4 -1 12 -1h9q17 0 42 17q120 84 244 308l28 -15q-35 -63 -91 -144q-141 -201 -237 -201q-11 0 -23 5 q-28 9 -48 37q-37 62 -37 166zM103 844q0 30 22 51q21 21 50 21q30 0 51 -21t21 -51t-21 -51t-51 -21q-29 0 -50 21q-22 21 -22 51z" />
<glyph unicode="j" horiz-adv-x="290" d="M-852 -288q0 109 112 272q75 108 157 196q83 87 132 126q12 71 25 160q2 17 5 36.5t6 42t5 33.5l4 28q11 47 62 47q19 0 38 -11q26 -17 26 -50l-1 -12q-7 -49 -31 -181q91 51 185 95l36 18l14 -29l-36 -17q-112 -53 -207 -109q-2 -9 -8.5 -40t-14.5 -69.5t-17 -79.5 q-84 -382 -135 -480q-66 -121 -182 -132h-12q-36 0 -59 10q-37 12 -64 39q-40 44 -40 107zM-821 -286q0 -60 38 -92q37 -33 89 -33q10 0 38 7q11 3 31 15l1 1q57 42 82 142q24 96 49 282q6 42 34 222q-61 -52 -142 -147q-81 -97 -143 -195q-77 -125 -77 -202zM-374 844 q0 30 22 51q21 21 50 21q30 0 51 -21t21 -51t-21 -51t-51 -21q-29 0 -50 21q-22 21 -22 51z" />
<glyph unicode="k" horiz-adv-x="646" d="M-52 461q0 28 28 40q7 146 53 315q45 164 129 307q84 140 207 217q33 22 72 32q11 3 20 3q28 0 54 -26q26 -30 26 -84v-14q-18 -183 -209 -361q-89 -83 -169 -143q-22 -83 -48 -193l-8 -33q32 28 62 62q36 39 79 79q74 68 130 68q22 0 43 -10q21 -11 27 -35l-31 -7 q-6 19 -37 19q-64 0 -174 -123q-50 -58 -111 -102v-1q62 -50 119 -149q27 -48 56 -80q29 -34 71 -35q49 3 108 55q64 57 115 125q56 72 93 135l27 -16q-63 -108 -150 -204q-114 -127 -193 -127q-61 2 -111 62q-28 37 -47 72q-42 79 -96 127q-43 -180 -60 -260 q-11 -50 -13 -87l-32 2q0 139 -4 183q-2 21 -2 86l1 75q-25 4 -25 26zM174 800q117 90 217 204q97 112 114 250l1 13q0 41 -21 63q-10 9 -23 9q-26 0 -73 -50q-45 -51 -105 -180q-61 -133 -110 -309z" />
<glyph unicode="l" horiz-adv-x="492" d="M-4 390q0 169 39 350t118 326q80 145 198 200q24 11 47 11q17 0 30 -4q78 -29 78 -116q0 -9 -6 -66q-4 -55 -95 -192q-94 -140 -247 -268q-4 -23 -18 -126q-13 -100 -27 -221q-13 -113 -13 -183q0 -26 4 -43q4 -21 18 -33q13 -13 42 -13q69 8 139 103q69 94 127 213 q55 114 81 185l30 -11q-84 -239 -232 -428q-68 -91 -145 -94q-82 1 -126 116q-42 116 -42 294zM166 680q134 116 213 237q94 143 94 240q0 65 -54 85q-10 2 -16 2q-78 0 -150 -216q-59 -177 -87 -348z" />
<glyph unicode="m" horiz-adv-x="853" d="M-30 341q0 13 5 75q4 51 29 143q21 82 46 138q6 9 22 9q21 0 47 -8q52 -18 52 -37l-1 -4q-19 -43 -89 -212q50 82 95 121q26 22 54 22t57 -29q28 -30 33 -98q53 93 127 173l3 3q40 51 76 51q43 0 72 -49q22 -47 22 -95q0 -18 -6 -61q-11 -77 -97 -247q-51 -100 -51 -129 q0 -23 22 -23q58 0 190 168q117 150 183 261l27 -17q-84 -142 -198 -282q-132 -161 -205 -161q-45 0 -65 59q-18 50 -18 110q0 123 79 290q32 70 32 97q0 20 -12 20q-6 0 -16 -6l-15 -11q-98 -108 -159 -237q-27 -60 -68 -112l-28 13v5q0 16 -12 40q-27 51 -27 109 q0 10 2 34q-1 31 -13 31q-18 0 -54 -61q-59 -96 -96 -192l-28 3l-1 3q-16 35 -16 93z" />
<glyph unicode="n" horiz-adv-x="747" d="M-18 352q0 177 72 315q5 8 21 8q19 0 49 -11q49 -21 49 -40l-1 -4q-67 -132 -118 -305q123 194 285 275q31 20 53 20q15 0 27 -5l2 -1q27 -8 48 -60q13 -30 13 -74q0 -24 -5 -57q-24 -95 -63 -161q-34 -62 -34 -86q0 -18 15 -29q21 -12 42 -12q45 0 104 52 q110 92 225 322l28 -14q-35 -72 -80 -144q-50 -81 -109 -148q-59 -66 -126 -92q-24 -8 -42 -8q-31 0 -60 18q-81 60 -81 144q0 11 6 65q6 53 62 193q1 3 3 7q5 15 5 23q0 15 -12 15l-10 -1l-13 -4q-181 -102 -308 -342l-5 -9l-27 13q-15 69 -15 137z" />
<glyph unicode="o" horiz-adv-x="500" d="M-56 344v49q2 47 43 136q40 89 128 150q8 5 16 5q9 0 20 -9q21 35 47 35h14q13 0 31 -21q21 -28 30 -92q7 -43 7 -88l-1 -28q30 -5 61 -5q20 0 62 3q43 3 101 28l13 -29q-80 -34 -174 -34q-32 0 -65 5q-8 -65 -32 -128q-26 -70 -66 -119q-41 -50 -96 -56h-9q-62 0 -96 56 q-34 55 -34 142zM26 251q0 -70 46 -70q52 0 89 49q35 47 59 116q20 62 25 109q-72 11 -104 85q-57 -53 -85 -128q-30 -81 -30 -161zM168 562q19 -64 80 -75l1 27q0 51 -11 100q-14 65 -37 65q-14 0 -27 -31q21 -39 21 -59q0 -14 -7 -14z" />
<glyph unicode="p" horiz-adv-x="697" d="M-282 -424q2 10 6 57q27 458 169 1005q14 39 55 39q25 0 47 -16q21 -17 21 -41q0 -15 -28 -118l-23 -88q50 100 88 154q35 47 64 59t54 12q91 0 125 -108q10 -35 10 -69q0 -44 -16 -110l4 1q75 18 161 57q87 40 136 120l28 -16q-56 -91 -147 -131q-91 -41 -193 -67 q-43 -112 -116 -179q-99 -90 -175 -90q-37 0 -50 26v1q-2 8 -2 12q0 30 36 89q35 59 140 116q81 180 81 241q0 32 -15 54q-11 16 -30 16q-6 0 -16 -4q-58 -34 -132 -184q-72 -148 -112 -300q-90 -347 -136 -544zM-32 85q2 -2 4 -2h5q12 3 21 16l10 15q49 65 79 126 q-54 -35 -78 -68q-41 -53 -41 -85v-2z" />
<glyph unicode="q" horiz-adv-x="618" d="M-8 465q0 80 41 162q40 82 119 117q27 12 55 12q52 0 100 -41q28 -30 42 -86l4 -12q9 3 18 3l11 -1q32 -8 48 -35q9 -14 9 -29q0 -16 -8 -29q-8 -10 -46 -77q-32 -55 -79 -154q-41 -88 -70 -175q20 -12 38 -35q247 203 371 444l29 -15q-129 -247 -382 -455 q47 -79 47 -206q0 -110 -56 -264q-10 -35 -38 -63q-20 -20 -53 -20q-107 0 -107 277q0 127 18 235q-11 19 -11 39q0 1 2 25q3 20 30 39q24 106 80 244q-75 -60 -122 -60q-28 0 -53 31q-37 40 -37 129zM68 355q0 -17 15 -17q23 0 67 29q45 28 86 68q56 114 90 162l-5 15 q-23 87 -54 87q-34 0 -70 -64q-19 -35 -57 -114l-26 -55q-46 -96 -46 -111zM151 -337q0 -35 6 -79q7 -42 43 -43l5 1q19 2 34 27q16 26 40 106q27 93 27 191q0 92 -40 173q-30 -23 -66 -40q-10 -38 -24 -113q-25 -131 -25 -223zM211 40q26 16 38 25q-9 13 -24 23z" />
<glyph unicode="r" horiz-adv-x="540" d="M-2 732q0 39 22 67v1q23 26 51 26q7 0 23 -4q18 -3 35 -41q7 -17 7 -35q0 -28 -14 -68q4 -2 30 -8q45 -6 90 -28q48 -23 70 -83q6 -21 6 -43q0 -60 -64 -167q-38 -63 -65 -133q-25 -62 -25 -141q0 -76 39 -76q25 0 61 36q178 182 301 481l30 -13q-128 -303 -308 -491 q-43 -45 -83 -45t-67 38q-63 89 -63 180q0 140 86 294q15 28 19 41q2 2 2 3q-6 18 -48 37q-135 68 -135 172zM37 755q0 -10 4 -25q5 -19 51 -41q12 33 12 56q0 48 -33 48q-14 0 -26 -14v1q-8 -9 -8 -25z" />
<glyph unicode="s" horiz-adv-x="455" d="M-422 -248q0 227 248 444l-5 22q-31 127 -31 219q0 80 34 145q41 80 99 83q35 -2 55 -29q20 -28 23 -62l-32 -3q-1 22 -14 42q-12 18 -32 20q-17 -2 -27 -14q-22 -26 -22 -88q0 -37 13 -88q15 -53 55 -159q100 69 355 233l17 -27l-120 -78q-196 -128 -242 -160 q46 -145 46 -262q0 -23 -8 -109q-7 -78 -64 -165q-54 -84 -128 -119q-47 -21 -89 -21q-101 0 -127 126q-4 21 -4 50zM-390 -246q0 -18 8 -72q9 -51 58 -70q11 -3 22 -3q34 0 63 32q87 102 95 243l1 53q0 113 -24 223q-223 -202 -223 -406z" />
<glyph unicode="t" horiz-adv-x="460" d="M-1128 944q48 91 190 125q92 21 184 21q141 0 328 -40q50 132 81 189q24 38 54 38q7 0 26 -4q22 -4 37 -41q4 -14 4 -20q0 -16 -22 -60q-20 -38 -57 -126q145 -31 310 -46q40 -4 89 -4q113 0 230 31q118 32 185 151l29 -15q-73 -130 -217 -169q-107 -30 -227 -30 q-166 0 -411 51q-26 -69 -71 -216q-50 -158 -92 -332q-65 -262 -65 -393q0 -78 28 -104l6 -3q10 -5 20 -5q46 0 106 67q83 94 310 509l28 -16q-235 -430 -321 -522q-62 -66 -121 -71h-6q-23 0 -43 14l-6 7q-8 6 -15 19q-7 10 -16 29v1q-24 70 -24 181q0 71 14 201 q13 130 61 344q47 209 85 315q-190 38 -316 38q-275 0 -347 -129z" />
<glyph unicode="u" horiz-adv-x="702" d="M-36 317q0 37 11 123q11 82 61 189l3 7q12 30 36 30q26 0 66 -28q24 -18 24 -30q0 -5 -1 -7q-124 -238 -124 -394q0 -50 19 -63l6 -2q10 -2 20 -2q21 0 40 10q49 31 96 98q43 60 74 120q19 154 53 243q7 13 33 13q9 0 21 -1q18 -2 43 -15t25 -28v-3l-47 -137 q-64 -191 -64 -271q0 -47 23 -47q45 0 140 119q102 129 193 270l27 -17q-87 -134 -187 -263q-105 -142 -177 -142h-4q-61 14 -74 75q-12 49 -12 101l1 27q-114 -187 -207 -187q-77 0 -104 99q-14 53 -14 113z" />
<glyph unicode="v" horiz-adv-x="542" d="M-2 370q0 143 19 257q7 24 51 24q24 0 49 -9q26 -9 26 -30q-36 -205 -61 -464v-4q-2 -20 -2 -30q0 -45 27 -54h3q82 19 169 305q35 119 43 163q-40 55 -40 102q0 4 3 33t30 45q9 6 17 6q16 0 28 -25q8 -15 8 -51q0 -45 -11 -101q41 -38 122 -38q19 0 52 5q30 4 45 12 l15 -28q-17 -9 -61 -17q-27 -5 -51 -5q-9 0 -55 4q-36 5 -75 32q-17 -76 -50 -181q-31 -97 -74 -180q-43 -82 -91 -109q-15 -9 -30 -9q-34 0 -67 42l-1 1q-38 79 -38 304zM313 632q0 -27 18 -60q5 42 5 67q0 29 -5 41q-18 -16 -18 -48z" />
<glyph unicode="w" horiz-adv-x="730" d="M-24 405v56q0 53 68 175l18 29q3 4 11 4q19 0 56 -19q45 -26 45 -42l-1 -4q-136 -188 -136 -289q3 -19 19 -19h2q2 1 5.5 1.5t6.5 0.5q11 1 40 18q28 17 47 36q0 61 20 129q19 64 62 111q7 7 17 7q26 0 59 -45q22 -31 22 -41q0 -4 -3 -7q-6 -4 -9 -7q-35 -43 -55 -123 q-13 -51 -13 -103q0 -25 6 -71q6 -48 51 -75h3v-1h15q26 0 42 10q64 43 113 148q51 108 70 209q-50 21 -72 73q-9 21 -9 40q0 28 20 56q16 19 45 19h1q26 0 44 -36q11 -24 11 -68q0 -30 -4 -61q14 -3 66 -5q53 0 99 6l4 -32q-46 -6 -86 -6q-53 0 -88 5q-14 -71 -49 -161 q-37 -93 -88 -159q-53 -69 -118 -74l-12 1q-11 0 -29 5q-16 4 -35 16q-36 22 -62 70q-28 48 -37 129q-28 -24 -65 -39q-21 -8 -36 -8q-17 0 -30 7q-51 31 -51 134zM508 606q0 -24 19 -49q14 -20 35 -31q3 30 3 53q0 25 -6 48q-6 22 -22 22q-12 0 -21 -13q-8 -13 -8 -30z" />
<glyph unicode="x" horiz-adv-x="644" d="M-38 499l11 23q28 62 53 104q34 61 93 61q14 0 32 -5v1l1 -1q32 -14 62 -70q30 -58 43 -122q75 86 149 160l23 -22q-83 -83 -165 -179q11 -88 11 -171v-39q0 -64 7 -100q7 -40 43 -43q69 2 148 111q78 107 180 304l29 -15q-98 -191 -182 -308q-88 -122 -177 -124 q-84 8 -127 76q-45 71 -58 152q-50 -66 -99 -140l-27 18q51 76 119 166q-9 87 -9 147v27q0 52 -6 118h1q0 1 -2 3h1q-4 13 -21 13q-11 0 -24 -8q-9 -9 -23 -36q0 -1 -32 -61q-7 -14 -25 -53z" />
<glyph unicode="y" horiz-adv-x="631" d="M-222 -335q0 75 97 199q136 175 300 325q25 160 52 296q-65 -85 -155 -155q-21 -18 -49 -29q-19 -8 -36 -8q-6 0 -16 2l-23 9q-23 12 -38 36q-24 45 -24 112q0 28 11 105q11 73 66 162q5 5 14 5q22 0 54 -19q45 -29 45 -43l-1 -4q-37 -53 -71 -128q-46 -102 -46 -161 q0 -25 12 -36l4 -2q3 -2 17 -2q17 0 35 9q58 33 124 107q62 69 92 115l10 47q13 43 59 43q23 0 45 -15q21 -15 21 -44q0 -8 -1 -11q0 -2 -2 -10.5t-6 -27.5t-8 -39q-6 -25 -19.5 -87t-21.5 -97l113 94q51 41 125 103l21 -24q-25 -21 -125 -104q-64 -51 -146 -121l-19 -86 q-28 -155 -80 -307q-51 -148 -162 -250q-55 -53 -135 -70h-14q-23 0 -42 6q-43 14 -63 50q-14 25 -14 55zM-190 -334q0 -34 21 -56q21 -23 59 -23q13 0 22 3q32 11 54 29v1q16 14 23 21q88 91 124 221q36 135 49 245l5 30q-147 -137 -270 -297q-87 -112 -87 -174z" />
<glyph unicode="z" horiz-adv-x="586" d="M-322 -257q0 50 105 140q112 96 256 185l15 10q29 58 48 133q14 58 14 107q0 14 -5 62q-5 44 -55 78q-31 -48 -73 -75q-34 -22 -51 -22q-28 0 -28 34q0 75 79 103l12 35q30 77 30 115q0 19 -12 19q-8 0 -10 -2l-10 -5q-34 -25 -71 -78q-37 -52 -55 -95l-30 11 q17 44 60 104q71 99 131 104h9q40 -4 58 -62q6 -19 6 -41q0 -47 -25 -106q91 -30 129 -116q31 -71 31 -147q0 -11 -2 -37q71 59 121 136q49 77 96 177l29 -13q-52 -115 -108 -197q-59 -85 -143 -148q-25 -130 -114 -246q-90 -117 -198 -178q-72 -41 -140 -41q-34 0 -64 10 q-35 18 -35 46zM-287 -258q0 -11 13 -15q12 -6 25 -6q43 0 107 70q85 94 165 227q-105 -69 -177 -124q-64 -49 -90 -79q-29 -32 -39 -59q-4 -7 -4 -14zM-63 397q0 -7 1 -7h1q1 0 3 3q18 29 27 63q-32 -27 -32 -59z" />
<glyph unicode="{" horiz-adv-x="648" d="M100 606q0 18 15 31q16 14 37 14q16 0 38 -8l13 -7q33 91 50 199q16 98 45 194t89 162q59 67 173 85l22 1q37 0 66 -16l-16 -28q-22 13 -50 13l-17 -1q-58 -10 -85 -82q-28 -71 -48 -171q-19 -107 -57 -214q-37 -106 -120 -177q65 -56 77 -140q5 -38 5 -69 q0 -104 -53 -281q-28 -91 -28 -139q0 -45 42 -57q8 -2 15 -2q1 0 6.5 0.5t10.5 0.5q13 2 25 17l25 -19q-25 -31 -64 -31q-16 0 -29 4q-85 27 -111 99q-18 51 -18 112q0 89 35 242q28 121 28 181q0 33 -7 54q-26 -19 -57 -20q-30 2 -48 25q-9 15 -9 28zM133 604q0 -6 6 -12 q7 -6 17 -7q21 3 33 21q-18 12 -34 12h-10q-8 0 -12 -10v-4z" />
<glyph unicode="|" horiz-adv-x="390" d="M100 -104q2 18 12 113q49 537 149 1263q11 57 61 57q22 0 42 -15q26 -19 26 -59v-9q-38 -255 -105 -630q-69 -384 -151 -717l-1 -9z" />
<glyph unicode="}" horiz-adv-x="648" d="M100 -102l16 27q23 -12 49 -12l17 1q58 10 87 82q26 68 46 171q19 103 58 214q37 107 120 177q-67 56 -77 140q-5 37 -5 69q0 104 53 281q28 93 28 139v6q-6 52 -61 52h-14q-11 -2 -24 -17l-26 18q26 32 65 32q16 0 29 -4q85 -27 111 -99q18 -51 18 -114q0 -87 -36 -240 q-28 -132 -28 -183q0 -28 8 -52q27 18 57 19q30 0 48 -24q9 -15 9 -28q0 -17 -15 -31q-16 -14 -37 -14q-26 0 -52 15q-31 -87 -49 -200q-16 -98 -45 -193q-28 -92 -89 -161q-60 -68 -173 -86l-1 -1l-18 -1q-37 0 -69 17zM559 553q15 -12 33 -12h11q12 0 12 12q0 7 -6 13 q-7 7 -18 7q-20 -2 -32 -20z" />
<glyph unicode="~" horiz-adv-x="645" d="M100 487q5 46 46 77q44 34 125 34t207 -52q19 -10 34 -10t36 3q54 9 68 35l29 -9l-6 -12q-22 -50 -45 -70q-54 -46 -112 -46q-65 0 -163 39q-91 35 -131 35q-53 0 -56 -27z" />
<glyph unicode="&#xa1;" horiz-adv-x="347" d="M100 -323q0 4 2 12q74 149 132 348q57 200 66 364l32 -1v-5q15 -96 15 -193q0 -306 -129 -566q-12 -18 -35 -18q-33 0 -66 27q-17 15 -17 32zM280 575q0 23 26 23q28 0 36 -30v-5q0 -25 -25 -25q-29 0 -36 30z" />
<glyph unicode="&#xa3;" horiz-adv-x="916" d="M100 555q8 61 69 93q28 14 65 14q46 0 108 -21q21 103 65 238q46 142 109 215q48 45 118 45h10q74 -11 115 -95l-30 -13q0 8 -22 36q-27 34 -66 40h-5q-13 0 -30 -5q-26 -11 -39 -28q-15 -18 -25 -80q-10 -52 -25 -156q-13 -95 -43 -265q68 -44 110 -44q9 0 30 4 q26 3 54 81l30 -12q-38 -105 -112 -105q-48 0 -119 43q-41 -210 -112 -382q57 16 115 16q111 0 212 -61q84 -52 131 -52q71 0 71 112q0 45 -5 68l31 6q6 -18 6 -69q0 -149 -102 -149q-59 0 -148 56q-91 56 -193 56q-68 0 -136 -22q-20 -45 -60 -101q-40 -57 -86 -61 q-55 6 -55 42q0 5 8 35q8 29 111 86q17 96 27 177q13 114 53 312q-60 21 -101 21q-27 0 -63 -17q-35 -17 -39 -62zM168 0q0 -10 25 -11q16 0 26 16q11 15 18 37q7 19 10 37q-79 -51 -79 -79z" />
<glyph unicode="&#xa5;" horiz-adv-x="825" d="M100 418q11 56 50 87q28 22 68 22q16 0 32 -3l7 71q-20 5 -34 5q-26 0 -52 -20q-25 -20 -33 -63l-31 6q10 56 51 88q27 21 65 21q16 0 38 -5l9 85q-28 78 -67 197q-65 200 -65 217q0 26 21 42q22 16 47 16q1 0 4 -0.5t9 -1t11 -0.5q18 -1 32 -37q65 -224 111 -377 l432 351l20 -24l-219 -185q-213 -181 -219 -188l-29 -146q14 -10 46 -38q40 -40 65 -40q20 0 29 20l30 -11q-20 -41 -57 -41q-27 0 -48 15q-16 10 -44 35q-13 13 -28 25q-1 -6 -12 -60q38 -28 58 -48q40 -40 65 -40q20 0 29 20l30 -11q-20 -41 -57 -41q-27 0 -47 14 q-19 13 -43 36q-30 26 -42 35q-2 -6 -12 -59q-2 -12 -11 -57t-14 -73q-10 -49 -27 -134q-13 -66 -14 -73l-31 5l1 7q1 211 23 429q-15 4 -31 4q-29 0 -52 -19q-26 -20 -33 -63z" />
<glyph unicode="&#xa9;" horiz-adv-x="536" d="M100 1006q0 98 69 168q12 60 45 88.5t69 28.5q69 -2 129 -63.5t92 -146t32 -161.5t-34 -129.5t-102 -61.5l-18 -2q-31 0 -110 29q-77 30 -124.5 100t-47.5 150zM125 1005q0 -73 44 -136t113 -89q18 -6 37 -6q30 0 57 14t36 30q14 21 14 73q0 71 -21 158t-55.5 151 t-68.5 66q-25 0 -46 -18t-32 -46q23 16 41 23l9 -23q-35 -16 -60 -41q-2 -13 -6 -41l-25 3v3q-37 -56 -37 -121zM200 965q0 59 33.5 107t86.5 48l15 -1q20 -7 28 -17l-13 -9q-5 6 -18 9l-5 1q-13 0 -24 -22q-8 -18 -27 -82.5t-19 -97.5q0 -23 10 -24q9 0 27 14.5t30 32.5 l15 -10q-42 -53 -73 -53q-14 4 -18 7q-48 25 -48 97z" />
<glyph unicode="&#xad;" horiz-adv-x="503" d="M100 494q0 51 17 52l385 -33l1 -32h-3v-1q-152 -62 -337 -62q-29 0 -41 1q-10 3 -16 22q-6 23 -6 53z" />
<glyph unicode="&#xae;" horiz-adv-x="542" d="M100 1010q0 97 70 170q12 61 45.5 90t70.5 29q70 -2 131 -64.5t93 -148t32 -163.5q0 -79 -34 -132t-103 -62l-19 -2q-33 0 -111 30q-79 30 -127 101t-48 152zM125 1009q0 -74 45 -138t114 -90q18 -7 38 -7q30 0 57.5 14t37.5 31q14 25 14 75q0 115 -48 246t-100 134 q-25 0 -46 -18.5t-32 -46.5q23 16 41 23l9 -24q-31 -13 -61 -41q-4 -25 -5 -41l-26 2v3q-38 -57 -38 -122zM183 891q0 26 13.5 90.5t29.5 112.5q3 9 17 9q20 0 20 -12v-2q0 -3 -30 -89q5 5 14 5h3q59 140 65 146q7 8 18 8l2 1q20 0 20 -40q0 -36 -16.5 -76.5t-43.5 -58.5 q6 -5 11.5 -11.5t9 -11.5t9.5 -16.5t9 -17.5t11.5 -25t13.5 -28l-9 -4q-6 11 -15.5 32t-13.5 28t-10.5 18.5t-12 17.5t-12.5 12q-12 -5 -20 -5q-6 0 -18 4q-40 -94 -45 -98q-4 -2 -11 -3q-9 0 -9 14zM198 888q2 2 42 95q-8 6 -9 12zM243 995l2 -2l1 2h-3zM254 992q3 0 5 1 l-4 1zM259 1003l12 -3q13 11 37 75.5t24 71.5q0 2 -2 2l-6 -2q-6 -6 -65 -144z" />
<glyph unicode="&#xbf;" horiz-adv-x="483" d="M100 -158q0 36 12 93q12 58 70 119l22 -23q-72 -78 -72 -190q0 -74 41 -112q14 -13 32 -13t38 13q56 74 59 159l1 41q0 70 -10 136t-10 136q0 66 28 121q29 56 103 93l13 -29q-41 -20 -47 -65q-2 -10 -2 -33q0 -62 38 -176q33 -103 33 -184q0 -65 -29 -144 q-29 -80 -95 -125q-41 -29 -83 -29q-24 0 -68 18q-44 20 -69 143q-5 27 -5 51zM422 574q0 2 2 14q3 10 23 10t29 -15q7 -10 7 -21q0 -2 -2 -14q-3 -10 -23 -10q-21 0 -30 15q-6 11 -6 21z" />
<glyph unicode="&#xc0;" d="M0 397q0 106 33 260q31 154 120 328t199 285q122 123 233 123q99 0 173 -120q50 -87 61 -190q32 82 67 134q21 32 52 32l3 1q0 1 3 1q55 -13 55 -64q0 -21 -10 -44q-14 -32 -47 -99q-61 -123 -120 -272q-145 -353 -145 -723q0 -83 20 -152q17 -63 75 -70q62 2 132 82 q69 78 198 334q128 253 150 300l28 -14q-32 -70 -160 -319q-130 -254 -204 -334q-72 -78 -145 -86q-83 0 -127 93q-47 105 -47 293q0 137 28 304q29 173 89 344q-170 -257 -363 -508q-39 -52 -83 -98q-45 -45 -103 -69q-31 -12 -56 -12q-26 0 -54 19q-55 39 -55 241zM74 227 q3 -56 44 -56q14 0 35 8q53 23 94 64q45 46 79 93q98 126 249 340q154 218 222 359h-9v8q0 115 -57 214q-46 73 -100 73q-7 0 -50 -10q-40 -9 -114 -85q-75 -87 -165 -269q-91 -183 -159 -389t-69 -350zM577 1741q0 13 56 37q40 16 53 16q7 0 7 -3q1 -3 9 -35q8 -33 45 -204 l1 -3l-29 -13l-1 2q-98 68 -129 168z" />
<glyph unicode="&#xc1;" d="M0 397q0 106 33 260q31 154 120 328t199 285q122 123 233 123q99 0 173 -120q50 -87 61 -190q32 82 67 134q21 32 52 32l3 1l1 1l4 -1q34 -7 48 -37q5 -13 5 -26q0 -21 -10 -44q-14 -32 -47 -99q-61 -123 -120 -272q-145 -353 -145 -723q0 -83 20 -152q17 -63 75 -70 q62 2 132 82q69 78 198 334q128 253 150 300l28 -14q-32 -70 -160 -319q-130 -254 -204 -334q-72 -78 -145 -86q-83 0 -127 93q-47 105 -47 293q0 137 28 304q29 173 89 344q-170 -257 -363 -508q-39 -52 -83 -98q-45 -45 -103 -69q-31 -12 -56 -12q-26 0 -54 19 q-55 39 -55 241zM74 227q3 -56 44 -56q14 0 35 8q53 23 94 64q45 46 79 93q98 126 249 340q154 218 222 359h-9v8q0 115 -57 214q-46 73 -100 73q-7 0 -50 -10q-40 -9 -114 -85q-75 -87 -165 -269q-91 -183 -159 -389t-69 -350zM659 1556l1 1q8 74 34 128q26 51 53 85 q21 26 27 32h4q16 0 57 -30q42 -29 42 -43q0 -1 -91 -92l-101 -100z" />
<glyph unicode="&#xc2;" d="M0 397q0 106 33 260q31 154 120 328t199 285q122 123 233 123q99 0 173 -120q50 -87 61 -190q32 82 67 134q21 32 52 32l3 1l1 1l4 -1q34 -7 48 -37q5 -13 5 -26q0 -21 -10 -44q-14 -32 -47 -99q-61 -123 -120 -272q-145 -353 -145 -723q0 -83 20 -152q17 -63 75 -70 q62 2 132 82q69 78 198 334q128 253 150 300l28 -14q-32 -70 -160 -319q-130 -254 -204 -334q-72 -78 -145 -86q-83 0 -127 93q-47 105 -47 293q0 137 28 304q29 173 89 344q-170 -257 -363 -508q-39 -52 -83 -98q-45 -45 -103 -69q-31 -12 -56 -12q-26 0 -54 19 q-55 39 -55 241zM74 227q3 -56 44 -56q14 0 35 8q53 23 94 64q45 46 79 93q98 126 249 340q154 218 222 359h-9v8q0 115 -57 214q-46 73 -100 73q-7 0 -50 -10q-40 -9 -114 -85q-75 -87 -165 -269q-91 -183 -159 -389t-69 -350zM529 1612l92 92l90 88l31 -7l48 -246l-32 -6 l-33 170q-13 -49 -35 -86q-24 -38 -39 -56q-5 -6 -9.5 -11t-7.5 -8l-2 -2h-4q-19 0 -55 29q-44 32 -44 43z" />
<glyph unicode="&#xc3;" d="M0 397q0 106 33 260q31 154 120 328t199 285q122 123 233 123q99 0 173 -120q50 -87 61 -190q32 82 67 134q21 32 52 32l3 1l1 1l4 -1q34 -7 48 -37q5 -13 5 -26q0 -21 -10 -44q-14 -32 -47 -99q-61 -123 -120 -272q-145 -353 -145 -723q0 -83 20 -152q17 -63 75 -70 q62 2 132 82q69 78 198 334q128 253 150 300l28 -14q-32 -70 -160 -319q-130 -254 -204 -334q-72 -78 -145 -86q-83 0 -127 93q-47 105 -47 293q0 137 28 304q29 173 89 344q-170 -257 -363 -508q-39 -52 -83 -98q-45 -45 -103 -69q-31 -12 -56 -12q-26 0 -54 19 q-55 39 -55 241zM74 227q3 -56 44 -56q14 0 35 8q53 23 94 64q45 46 79 93q98 126 249 340q154 218 222 359h-9v8q0 115 -57 214q-46 73 -100 73q-7 0 -50 -10q-40 -9 -114 -85q-75 -87 -165 -269q-91 -183 -159 -389t-69 -350zM542 1666q0 26 10 50q39 82 95 82q5 0 40 -6 q35 -5 98 -89q35 -42 52 -61q21 -23 39 -23q55 0 55 65q0 23 -14 46q-13 22 -44 22q-13 0 -39 -7l-7 21q29 9 49 9q30 0 48 -18q26 -26 26 -72q0 -14 -2 -32q-1 -27 -32 -67q-27 -35 -71 -35q-2 0 -6.5 0.5t-13 1.5t-16.5 2q-30 3 -98 85l-17 23q-31 45 -49 61 q-11 10 -27 10q-9 0 -18 -3q-37 -12 -37 -66q0 -25 14 -45q15 -21 46 -21q12 0 34 5l6 -21q-19 -5 -41 -5q-46 0 -65 33q-15 25 -15 55z" />
<glyph unicode="&#xc4;" d="M0 397q0 106 33 260q31 154 120 328t199 285q122 123 233 123q99 0 173 -120q50 -87 61 -190q32 82 67 134q21 32 52 32l3 1l1 1l4 -1q34 -7 48 -37q5 -13 5 -26q0 -21 -10 -44q-14 -32 -47 -99q-61 -123 -120 -272q-145 -353 -145 -723q0 -83 20 -152q17 -63 75 -70 q62 2 132 82q69 78 198 334q128 253 150 300l28 -14q-32 -70 -160 -319q-130 -254 -204 -334q-72 -78 -145 -86q-83 0 -127 93q-47 105 -47 293q0 137 28 304q29 173 89 344q-170 -257 -363 -508q-39 -52 -83 -98q-45 -45 -103 -69q-31 -12 -56 -12q-26 0 -54 19 q-55 39 -55 241zM74 227q3 -56 44 -56q14 0 35 8q53 23 94 64q45 46 79 93q98 126 249 340q154 218 222 359h-9v8q0 115 -57 214q-46 73 -100 73q-7 0 -50 -10q-40 -9 -114 -85q-75 -87 -165 -269q-91 -183 -159 -389t-69 -350zM556 1673q0 25 15 44q15 18 46 18t47 -18 q15 -19 15 -44q0 -24 -15 -43q-16 -19 -47 -19t-46 19t-15 43zM712 1673q0 25 16 44q15 18 46 18q30 0 46 -18q15 -19 15 -44q0 -24 -15 -43q-16 -19 -46 -19q-31 0 -46 19q-16 19 -16 43z" />
<glyph unicode="&#xc5;" d="M0 397q0 106 33 260q31 154 120 328t199 285q122 123 233 123q99 0 173 -120q50 -87 61 -190q32 82 67 134q21 32 52 32l3 1l1 1l4 -1q34 -7 48 -37q5 -13 5 -26q0 -21 -10 -44q-14 -32 -47 -99q-61 -123 -120 -272q-145 -353 -145 -723q0 -83 20 -152q17 -63 75 -70 q62 2 132 82q69 78 198 334q128 253 150 300l28 -14q-32 -70 -160 -319q-130 -254 -204 -334q-72 -78 -145 -86q-83 0 -127 93q-47 105 -47 293q0 137 28 304q29 173 89 344q-170 -257 -363 -508q-39 -52 -83 -98q-45 -45 -103 -69q-31 -12 -56 -12q-26 0 -54 19 q-55 39 -55 241zM74 227q3 -56 44 -56q14 0 35 8q53 23 94 64q45 46 79 93q98 126 249 340q154 218 222 359h-9v8q0 115 -57 214q-46 73 -100 73q-7 0 -50 -10q-40 -9 -114 -85q-75 -87 -165 -269q-91 -183 -159 -389t-69 -350zM652 1672q0 49 35 86q36 36 86 36 q51 0 87 -36q35 -37 35 -86t-35 -86q-36 -36 -87 -36q-50 0 -86 36q-35 37 -35 86zM719 1672q0 -48 16 -80q15 -34 38 -34t39 34q16 32 16 80t-16 81t-39 33t-38 -33q-16 -33 -16 -81z" />
<glyph unicode="&#xc6;" horiz-adv-x="1400" d="M4 398q0 288 153 588q89 174 199 285q122 123 235 123q97 0 171 -120q13 -20 22 -43q38 13 121 22q42 4 67 4q58 0 128 -9q35 -4 73 -4q36 0 75 7q44 8 77 25q38 20 52 34l9 9t6 7l2 2l26 -19q-2 -5 -20 -21q-21 -19 -57 -38q-72 -39 -171 -39q-31 0 -76 5q-46 6 -104 8 q11 -14 11 -36q0 -21 -10 -44l-47 -99q-111 -230 -176 -427q39 9 82 9q66 0 138 -19q123 -36 209 -36q27 0 50 5q22 4 22 6l16 -28q-3 -3 -31 -10q-16 -4 -52 -4q-35 0 -65 2q-41 1 -158 34q-70 18 -130 18q-50 0 -92 -12q-78 -262 -78 -524q0 -94 20 -161q17 -63 75 -70 q61 1 132 83q70 78 129 176q57 95 80 142l28 -14q-31 -65 -90 -161q-61 -98 -135 -177q-72 -78 -145 -86q-90 0 -132 105t-42 276q0 170 39 365q-34 -19 -37 -22l-19 25q3 5 64 38q29 129 70 248q-170 -257 -363 -508q-39 -54 -83 -98q-45 -45 -103 -70q-31 -12 -56 -12 q-27 0 -54 20q-55 40 -55 240zM78 228q3 -56 44 -56q14 0 35 8q53 22 94 64q45 46 79 93q98 126 249 340q155 219 222 360h-9v11q0 71 -26 143l-9 -4l-14 29q3 0 11 4q-12 26 -19 38q-46 73 -100 73q-11 0 -50 -9q-38 -9 -114 -86q-75 -87 -165 -269q-91 -183 -159 -389 t-69 -350zM797 1201q20 -59 26 -116q49 107 68 134q-61 -7 -94 -18z" />
<glyph unicode="&#xc7;" horiz-adv-x="728" d="M-10 322q0 164 41 337q41 171 118 318q77 144 158 238q79 90 132 114q31 16 91 24q18 2 27 2q44 0 89 -18q97 -51 97 -188q0 -48 -13 -93l-30 8q12 42 12 84q0 32 -10 79q-9 49 -69 81q-21 10 -50 10q-19 0 -50 -7q-34 -8 -81 -52q-69 -76 -139 -234q-73 -163 -128 -356 q-57 -203 -79 -373q-10 -77 -10 -146q0 -80 15 -139q24 -94 102 -94q8 0 24 2q103 28 224 166q121 139 291 442l27 -18q-252 -421 -396 -545q-62 -55 -140 -77q-20 -5 -44 -5h-12q-10 -7 -10 -24q0 -10 9 -30q11 -27 11 -47q0 -55 -42 -70q-8 -2 -12 -2q-19 0 -37 21 q-5 9 -8 18q-2 7 -4 19q-1 6 -1 11l12 1q0 -7 3 -20q4 -28 19 -28q8 0 12 10q6 9 6 25q0 18 -4 31q-8 19 -8 41q0 10 3 23t21 27q-35 10 -66 39q-54 50 -74 132q-27 108 -27 263z" />
<glyph unicode="&#xc8;" horiz-adv-x="899" d="M0 -19q0 31 24 65q26 36 84 52q9 52 15 123q6 110 43 336q-29 -14 -55 -35l-21 24q42 34 82 49q58 324 155 619q-44 -13 -85 -41l-18 26q51 35 115 52q23 56 60 56h22q20 -2 39 -37q35 2 105 4h15q74 0 149 9q77 9 143 49l17 -28q-74 -42 -157 -53q-75 -9 -152 -9h-15 q-66 -2 -100 -4q-3 -11 -25 -82q-116 -384 -155 -534q19 2 56 2q81 0 212 -28q93 -21 136 -21q28 0 54 8l11 -30q-27 -10 -63 -10q-52 0 -147 22q-121 28 -203 28q-36 0 -65 -4q-40 -170 -86 -393l-20 -93q83 -6 195 -70q50 -26 86 -42q58 -25 104 -25q42 0 84 21 q41 21 58 68l30 -9q-17 -56 -66 -83q-49 -28 -106 -28q-55 0 -104 21q-52 22 -98 48q-55 29 -95 46q-51 21 -98 22q-12 -38 -34 -76q-41 -71 -81 -71q-14 0 -29 9l-4 5q-3 3 -8 13q-4 8 -4 21v8zM32 -20q0 -14 5 -19l6 -1q19 0 40 52q12 28 17 50q-36 -14 -53 -38 q-15 -22 -15 -44zM498 1690q0 13 56 37q40 16 53 16q7 0 7 -3q1 -3 9 -35q7 -33 45 -204l1 -3l-29 -13l-1 2q-55 39 -87 86t-42 82z" />
<glyph unicode="&#xc9;" horiz-adv-x="899" d="M0 -19q0 31 24 65q26 36 84 52q9 52 15 123q6 110 43 336q-29 -14 -55 -35l-21 24q42 34 82 49q58 324 155 619q-44 -13 -85 -41l-18 26q51 35 115 52q23 56 60 56h22q20 -2 39 -37q35 2 105 4h15q74 0 149 9q77 9 143 49l17 -28q-74 -42 -157 -53q-75 -9 -152 -9h-15 q-66 -2 -100 -4q-3 -11 -25 -82q-116 -384 -155 -534q19 2 56 2q81 0 212 -28q93 -21 136 -21q28 0 54 8l11 -30q-27 -10 -63 -10q-52 0 -147 22q-121 28 -203 28q-36 0 -65 -4q-40 -170 -86 -393l-20 -93q83 -6 195 -70q50 -26 86 -42q58 -25 104 -25q42 0 84 21 q41 21 58 68l30 -9q-17 -56 -66 -83q-49 -28 -106 -28q-55 0 -104 21q-52 22 -98 48q-55 29 -95 46q-51 21 -98 22q-12 -38 -34 -76q-41 -71 -81 -71q-14 0 -29 9l-4 5q-3 3 -8 13q-4 8 -4 21v8zM32 -20q0 -14 5 -19l6 -1q19 0 40 52q12 28 17 50q-36 -14 -53 -38 q-15 -22 -15 -44zM633 1505l1 1q8 74 34 128q26 51 53 85q21 26 27 32h4q16 0 57 -30q42 -29 42 -43q0 -1 -91 -92l-101 -100z" />
<glyph unicode="&#xca;" horiz-adv-x="899" d="M0 -19q0 31 24 65q26 36 84 52q9 52 15 123q6 110 43 336q-29 -14 -55 -35l-21 24q42 34 82 49q58 324 155 619q-44 -13 -85 -41l-18 26q51 35 115 52q23 56 60 56h22q20 -2 39 -37q35 2 105 4h15q74 0 149 9q77 9 143 49l17 -28q-74 -42 -157 -53q-75 -9 -152 -9h-15 q-66 -2 -100 -4q-3 -11 -25 -82q-116 -384 -155 -534q19 2 56 2q81 0 212 -28q93 -21 136 -21q28 0 54 8l11 -30q-27 -10 -63 -10q-52 0 -147 22q-121 28 -203 28q-36 0 -65 -4q-40 -170 -86 -393l-20 -93q83 -6 195 -70q50 -26 86 -42q58 -25 104 -25q42 0 84 21 q41 21 58 68l30 -9q-17 -56 -66 -83q-49 -28 -106 -28q-55 0 -104 21q-52 22 -98 48q-55 29 -95 46q-51 21 -98 22q-12 -38 -34 -76q-41 -71 -81 -71q-14 0 -29 9l-4 5q-3 3 -8 13q-4 8 -4 21v8zM32 -20q0 -14 5 -19l6 -1q19 0 40 52q12 28 17 50q-36 -14 -53 -38 q-15 -22 -15 -44zM561 1561l92 92l90 88l31 -7l48 -246l-32 -6l-33 170q-13 -49 -35 -86q-24 -38 -39 -56q-5 -6 -9.5 -11t-7.5 -7l-2 -3h-4q-19 0 -55 29q-44 32 -44 43z" />
<glyph unicode="&#xcb;" horiz-adv-x="899" d="M0 -19q0 31 24 65q26 36 84 52q9 52 15 123q6 110 43 336q-29 -14 -55 -35l-21 24q42 34 82 49q58 324 155 619q-44 -13 -85 -41l-18 26q51 35 115 52q23 56 60 56h22q20 -2 39 -37q35 2 105 4h15q74 0 149 9q77 9 143 49l17 -28q-74 -42 -157 -53q-75 -9 -152 -9h-15 q-66 -2 -100 -4q-3 -11 -25 -82q-116 -384 -155 -534q19 2 56 2q81 0 212 -28q93 -21 136 -21q28 0 54 8l11 -30q-27 -10 -63 -10q-52 0 -147 22q-121 28 -203 28q-36 0 -65 -4q-40 -170 -86 -393l-20 -93q83 -6 195 -70q50 -26 86 -42q58 -25 104 -25q42 0 84 21 q41 21 58 68l30 -9q-17 -56 -66 -83q-49 -28 -106 -28q-55 0 -104 21q-52 22 -98 48q-55 29 -95 46q-51 21 -98 22q-12 -38 -34 -76q-41 -71 -81 -71q-14 0 -29 9l-4 5q-3 3 -8 13q-4 8 -4 21v8zM32 -20q0 -14 5 -19l6 -1q19 0 40 52q12 28 17 50q-36 -14 -53 -38 q-15 -22 -15 -44zM517 1622q0 24 15 44q15 18 46 18q30 0 47 -18q15 -20 15 -44t-15 -43q-16 -19 -47 -19t-46 19t-15 43zM673 1622q0 25 16 44q15 18 46 18q29 0 46 -18q15 -19 15 -44q0 -24 -15 -43q-16 -19 -46 -19q-31 0 -46 19q-16 19 -16 43z" />
<glyph unicode="&#xcc;" horiz-adv-x="705" d="M0 2q0 2 2 20q2 14 22 14l15 1q39 0 117 -15q-2 74 -2 109q0 257 43 502q42 250 96 421q53 169 68 191h-77q-13 4 -30 61q-8 20 -8 45q0 16 12 19h15q82 0 318 -49l14 -3l-3 -32h-2q-79 -28 -145 -35q20 -20 20 -39q0 -20 -9 -42q-205 -549 -277 -1155q123 -24 180 -36 l63 -12q8 -2 11 -2q1 0 3.5 -0.5t3.5 -1.5q2 -1 5 -1h3l2 -1l-3 -32l-2 1q-105 -27 -195 -27h-29q-77 0 -122 4q-36 3 -59 3h-11q-9 2 -18 19q-21 39 -21 73zM337 1741q0 13 56 37q40 16 53 16q7 0 7 -3q1 -3 9 -35q8 -33 45 -204l1 -3l-29 -13l-1 2q-55 39 -87 86t-42 82z " />
<glyph unicode="&#xcd;" horiz-adv-x="705" d="M0 2q0 2 2 20q2 14 22 14l15 1q39 0 117 -15q-2 74 -2 109q0 257 43 502q42 250 96 421q53 169 68 191h-77q-13 4 -30 61q-8 20 -8 45q0 16 12 19h15q82 0 318 -49l14 -3l-3 -32h-2q-79 -28 -145 -35q20 -20 20 -39q0 -20 -9 -42q-205 -549 -277 -1155q123 -24 180 -36 l63 -12q8 -2 11 -2q1 0 3.5 -0.5t3.5 -1.5q2 -1 5 -1h3l2 -1l-3 -32l-2 1q-105 -27 -195 -27h-29q-77 0 -122 4q-36 3 -59 3h-11q-9 2 -18 19q-21 39 -21 73zM492 1556l1 1q8 74 34 128q26 51 53 85q21 26 27 32h4q17 0 57 -30q42 -29 42 -43q0 -1 -91 -92l-101 -100z" />
<glyph unicode="&#xce;" horiz-adv-x="705" d="M0 2q0 2 2 20q2 14 22 14l15 1q39 0 117 -15q-2 74 -2 109q0 257 43 502q42 250 96 421q53 169 68 191h-77q-13 4 -30 61q-8 20 -8 45q0 16 12 19h15q82 0 318 -49l14 -3l-3 -32h-2q-79 -28 -145 -35q20 -20 20 -39q0 -20 -9 -42q-205 -549 -277 -1155q123 -24 180 -36 l63 -12q8 -2 11 -2q1 0 3.5 -0.5t3.5 -1.5q2 -1 5 -1h3l2 -1l-3 -32l-2 1q-105 -27 -195 -27h-29q-77 0 -122 4q-36 3 -59 3h-11q-9 2 -18 19q-21 39 -21 73zM358 1612l92 92l90 88l31 -7l48 -246l-32 -6l-33 170q-13 -49 -35 -86q-24 -38 -39 -56q-5 -6 -9.5 -11t-6.5 -8 l-3 -2h-4q-19 0 -55 29q-44 32 -44 43z" />
<glyph unicode="&#xcf;" horiz-adv-x="705" d="M0 2q0 2 2 20q2 14 22 14l15 1q39 0 117 -15q-2 74 -2 109q0 257 43 502q42 250 96 421q53 169 68 191h-77q-13 4 -30 61q-8 20 -8 45q0 16 12 19h15q82 0 318 -49l14 -3l-3 -32h-2q-79 -28 -145 -35q20 -20 20 -39q0 -20 -9 -42q-205 -549 -277 -1155q123 -24 180 -36 l63 -12q8 -2 11 -2q1 0 3.5 -0.5t3.5 -1.5q2 -1 5 -1h3l2 -1l-3 -32l-2 1q-105 -27 -195 -27h-29q-77 0 -122 4q-36 3 -59 3h-11q-9 2 -18 19q-21 39 -21 73zM364 1673q0 25 15 44q15 18 46 18t47 -18q15 -19 15 -44q0 -24 -15 -43q-16 -19 -47 -19t-46 19t-15 43zM520 1673 q0 25 16 44q15 18 46 18q30 0 46 -18q15 -19 15 -44q0 -24 -15 -43q-16 -19 -46 -19q-31 0 -46 19q-16 19 -16 43z" />
<glyph unicode="&#xd0;" horiz-adv-x="1121" d="M-456 560v32h287q41 361 94 611q15 47 59 47q26 0 45 -16q20 -16 20 -46l-1 -16q-68 -286 -128 -580h52l1 2v1q120 264 248 422q129 161 215 212q80 47 146 47q44 0 112 -38q67 -37 96 -194q10 -55 10 -107q0 -122 -54 -314q-54 -191 -237 -459q64 -16 118 -38l-12 -30 q-65 26 -126 40q-74 -99 -121 -142q-58 -51 -106 -82q-56 -35 -97 -35q-54 0 -80 47q-13 23 -13 51q0 75 95 143q83 60 223 62l41 82q247 525 247 781q0 45 -18 109q-21 80 -111 80q-48 0 -96 -30q-78 -46 -204 -202t-242 -408h257v-32h-270q-98 -233 -167 -511l-27 -110 l-31 8l2 23q25 300 57 590h-284zM-137 294q41 134 96 266h-45q-25 -121 -51 -266zM104 -25q0 -46 38 -63q9 -3 18 -3q34 0 74 39q39 36 79 99q35 56 60 101q-121 -7 -191 -58q-78 -58 -78 -115z" />
<glyph unicode="&#xd1;" horiz-adv-x="1300" d="M0 1q0 14 6 29l29 -14q-3 -8 -3 -14q0 -9 8 -23q12 -21 42 -21q100 0 190 362q45 187 83 373q27 129 68 306q37 161 74 272q7 21 19 38q18 21 40 21q37 0 60 -74l1 -3q24 -78 29 -156q20 -240 23 -430l1 -185q0 -112 -1 -163q-2 -88 -2 -122q0 -134 10 -205 q11 -83 54 -83q14 0 28 7q36 19 68 66q142 216 237 464q101 267 160 467q51 163 93 273q40 107 81 130q11 5 27 5q21 0 37 -11q26 -15 26 -43l-1 -10l-31 7v2q0 8 -6 14q-10 9 -27 9q-31 0 -58 -70q-71 -193 -128 -372q-77 -243 -161 -457q-87 -222 -223 -427 q-30 -49 -79 -75h-1v-1q-23 -10 -46 -10q-60 0 -106 91q-47 92 -69 279q-22 176 -22 381v117q0 141 19 308q14 121 14 181q0 58 -10 59q-7 0 -7 -3q-12 -8 -19 -29q-67 -218 -132 -539q-48 -236 -109 -469q-57 -215 -121 -289q-41 -39 -78 -39q-4 0 -28 3t-46 34 q-13 17 -13 39zM827 1608q0 26 10 50q39 82 95 82q6 0 40 -6q35 -5 98 -89q35 -42 52 -61q21 -23 39 -23q55 0 55 65q0 23 -14 46q-13 22 -44 22q-13 0 -39 -7l-7 21q28 9 49 9q30 0 48 -18q26 -26 26 -72q0 -14 -2 -32q-1 -27 -32 -67q-27 -35 -71 -35q-2 0 -6.5 0.5 t-13 1.5t-16.5 2q-30 3 -98 85l-17 23q-31 45 -49 61q-11 10 -27 10q-9 0 -18 -3q-37 -12 -37 -66q0 -25 14 -45q15 -21 46 -21q12 0 34 5l6 -21q-19 -5 -41 -5q-45 0 -65 33q-15 25 -15 55z" />
<glyph unicode="&#xd2;" horiz-adv-x="902" d="M0 513q0 231 106 473q73 165 187 260q87 72 196 72q37 0 71 -7q29 23 70 23q7 0 51 -7q38 -6 83 -89q38 -70 38 -215l-1 -54q-24 -403 -215 -763q-87 -169 -208 -248q-52 -35 -108 -35l-15 1q-97 19 -158 137q-62 117 -84 277q-13 87 -13 175zM133 366q0 -104 14 -218 q6 -64 29 -121t83 -71l13 -1q41 0 89 30q108 71 197 233q88 160 144 363q68 246 68 443q0 130 -33 197q-32 66 -80 77q-15 3 -28 3q-29 0 -46 -13l-8 -6q-40 -34 -85 -191q-38 -129 -38 -291l1 -46l-32 -2l-1 48q0 164 39 301q39 136 73 180q-95 0 -176 -100t-136 -266 q-56 -169 -77 -366q-10 -102 -10 -183zM485 1703q0 13 56 37q40 16 53 16q7 0 7 -3q1 -3 9 -35q8 -33 45 -204l1 -3l-29 -13l-1 2q-55 39 -87 86t-42 82z" />
<glyph unicode="&#xd3;" horiz-adv-x="902" d="M0 513q0 231 106 473q73 165 187 260q87 72 196 72q37 0 71 -7q29 23 70 23q7 0 51 -7q38 -6 83 -89q38 -70 38 -215l-1 -54q-24 -403 -215 -763q-87 -169 -208 -248q-52 -35 -108 -35l-15 1q-97 19 -158 137q-62 117 -84 277q-13 87 -13 175zM133 366q0 -104 14 -218 q6 -64 29 -121t83 -71l13 -1q41 0 89 30q108 71 197 233q88 160 144 363q68 246 68 443q0 130 -33 197q-32 66 -80 77q-15 3 -28 3q-29 0 -46 -13l-8 -6q-40 -34 -85 -191q-38 -129 -38 -291l1 -46l-32 -2l-1 48q0 164 39 301q39 136 73 180q-95 0 -176 -100t-136 -266 q-56 -169 -77 -366q-10 -102 -10 -183zM626 1518l1 1q8 74 34 128q26 51 53 85q21 26 27 32h4q17 0 57 -30q42 -29 42 -43q0 -1 -91 -92l-101 -100z" />
<glyph unicode="&#xd4;" horiz-adv-x="902" d="M0 513q0 231 106 473q73 165 187 260q87 72 196 72q37 0 71 -7q29 23 70 23q7 0 51 -7q38 -6 83 -89q38 -70 38 -215l-1 -54q-24 -403 -215 -763q-87 -169 -208 -248q-52 -35 -108 -35l-15 1q-97 19 -158 137q-62 117 -84 277q-13 87 -13 175zM133 366q0 -104 14 -218 q6 -64 29 -121t83 -71l13 -1q41 0 89 30q108 71 197 233q88 160 144 363q68 246 68 443q0 130 -33 197q-32 66 -80 77q-15 3 -28 3q-29 0 -46 -13l-8 -6q-40 -34 -85 -191q-38 -129 -38 -291l1 -46l-32 -2l-1 48q0 164 39 301q39 136 73 180q-95 0 -176 -100t-136 -266 q-56 -169 -77 -366q-10 -102 -10 -183zM476 1574l92 92l90 88l31 -7l48 -246l-32 -6l-33 170q-13 -49 -35 -86q-24 -38 -39 -56q-5 -6 -9.5 -11t-6.5 -8l-3 -2h-4q-19 0 -55 29q-44 32 -44 43z" />
<glyph unicode="&#xd5;" horiz-adv-x="902" d="M0 513q0 231 106 473q73 165 187 260q87 72 196 72q37 0 71 -7q29 23 70 23q7 0 51 -7q38 -6 83 -89q38 -70 38 -215l-1 -54q-24 -403 -215 -763q-87 -169 -208 -248q-52 -35 -108 -35l-15 1q-97 19 -158 137q-62 117 -84 277q-13 87 -13 175zM133 366q0 -104 14 -218 q6 -64 29 -121t83 -71l13 -1q41 0 89 30q108 71 197 233q88 160 144 363q68 246 68 443q0 130 -33 197q-32 66 -80 77q-15 3 -28 3q-29 0 -46 -13l-8 -6q-40 -34 -85 -191q-38 -129 -38 -291l1 -46l-32 -2l-1 48q0 164 39 301q39 136 73 180q-95 0 -176 -100t-136 -266 q-56 -169 -77 -366q-10 -102 -10 -183zM393 1628q0 26 10 50q39 82 95 82q6 0 40 -6q35 -5 98 -89q35 -42 52 -61q21 -23 39 -23q55 0 55 65q0 23 -14 46q-13 22 -44 22q-13 0 -39 -7l-7 21q29 9 49 9q30 0 48 -18q26 -26 26 -72q0 -14 -2 -32q-1 -27 -32 -67 q-27 -35 -71 -35q-2 0 -6.5 0.5t-13 1.5t-16.5 2q-30 3 -98 85l-17 23q-31 45 -49 61q-11 10 -27 10q-9 0 -18 -3q-37 -12 -37 -66q0 -25 14 -45q15 -21 46 -21q12 0 34 5l6 -21q-19 -5 -41 -5q-45 0 -65 33q-15 26 -15 55z" />
<glyph unicode="&#xd6;" horiz-adv-x="902" d="M0 513q0 231 106 473q73 165 187 260q87 72 196 72q37 0 71 -7q29 23 70 23q7 0 51 -7q38 -6 83 -89q38 -70 38 -215l-1 -54q-24 -403 -215 -763q-87 -169 -208 -248q-52 -35 -108 -35l-15 1q-97 19 -158 137q-62 117 -84 277q-13 87 -13 175zM133 366q0 -104 14 -218 q6 -64 29 -121t83 -71l13 -1q41 0 89 30q108 71 197 233q88 160 144 363q68 246 68 443q0 130 -33 197q-32 66 -80 77q-15 3 -28 3q-29 0 -46 -13l-8 -6q-40 -34 -85 -191q-38 -129 -38 -291l1 -46l-32 -2l-1 48q0 164 39 301q39 136 73 180q-95 0 -176 -100t-136 -266 q-56 -169 -77 -366q-10 -102 -10 -183zM449 1635q0 25 15 44q15 18 46 18q30 0 47 -18q15 -19 15 -44q0 -23 -15 -43q-16 -19 -47 -19t-46 19q-15 20 -15 43zM605 1635q0 25 16 44q15 18 46 18q29 0 46 -18q15 -19 15 -44q0 -23 -15 -43q-16 -19 -46 -19q-31 0 -46 19 q-16 19 -16 43z" />
<glyph unicode="&#xd7;" horiz-adv-x="895" d="M410 927v44q18 5 31 5q11 0 29 -5q18 -6 44 -37q92 -98 159 -267q105 204 107 208l25 -20q-67 -123 -116 -226l27 -73q41 -116 89 -206q45 -89 104 -94v-37q-18 -2 -28 -2q-79 0 -149 70t-121 182q-49 -103 -102 -221l-25 17q48 111 110 240q-54 135 -82 226 q-29 91 -52 142q-24 52 -50 54z" />
<glyph unicode="&#xd8;" horiz-adv-x="902" d="M0 513q0 233 106 473q73 165 187 260q87 72 196 72l33 126q18 51 50 51q34 0 56 -36q16 -22 16 -55q0 -18 -4 -33q-2 -6 -5.5 -18.5t-4.5 -18.5q14 0 52 -6q37 -7 82 -90q38 -71 38 -215l-1 -54q-24 -403 -215 -763q-89 -171 -208 -248q-39 -28 -85 -34 q-24 -113 -27 -136l-31 12l2 10l10 116q-92 23 -150 135q-62 117 -84 277q-13 87 -13 175zM133 366q0 -104 14 -218q6 -64 29 -121q21 -52 74 -69q33 339 96 687q58 327 132 628q-65 -21 -122 -92q-81 -100 -136 -266q-56 -169 -77 -366q-10 -87 -10 -183zM300 -42 q28 7 61 27q108 71 197 233q88 160 144 363q68 246 68 443q0 130 -33 197q-32 66 -80 77q-15 3 -28 3h-8q-167 -629 -255 -1035q-40 -183 -66 -308z" />
<glyph unicode="&#xd9;" horiz-adv-x="886" d="M0 420v10q8 212 83 437q76 231 169 417q20 33 49 33q8 0 20 -1q17 -2 38 -27q12 -15 12 -33q0 -14 -6 -29q-166 -350 -221 -517q-27 -77 -51 -193q-23 -110 -23 -209q0 -27 1 -66q2 -59 55 -108l28 -15q15 -8 38 -8q47 0 85 21q73 47 160 171q80 111 133 199 q30 199 97 439q68 244 112 337q10 19 31 34q13 8 26 8q5 0 22 -5q14 -4 33 -43q7 -14 7 -27q0 -1 -2 -11q-1 -4 -26 -66q-26 -57 -75 -210q-133 -407 -164 -698q-5 -53 -5 -89q0 -173 89 -212l-13 -30l-9 4q-141 60 -141 324q0 92 9 170q-125 -195 -203 -272 q-80 -77 -164 -77q-47 0 -88 28l-9 7q-24 17 -43 50q-54 96 -54 257zM503 1741q0 13 56 37q40 16 53 16q7 0 7 -3q1 -3 9 -35q8 -33 45 -204l1 -3l-29 -13l-1 2q-55 39 -87 86t-42 82z" />
<glyph unicode="&#xda;" horiz-adv-x="886" d="M0 420v10q8 212 83 437q76 231 169 417q20 33 49 33q8 0 20 -1q17 -2 38 -27q12 -15 12 -33q0 -14 -6 -29q-166 -350 -221 -517q-27 -77 -51 -193q-23 -110 -23 -209q0 -27 1 -66q2 -59 55 -108l28 -15q15 -8 38 -8q47 0 85 21q73 47 160 171q80 111 133 199 q30 199 97 439q68 244 112 337q10 19 31 34q13 8 26 8q5 0 22 -5q14 -4 33 -43q7 -14 7 -27q0 -1 -2 -11q-1 -4 -26 -66q-26 -57 -75 -210q-133 -407 -164 -698q-5 -53 -5 -89q0 -173 89 -212l-13 -30l-9 4q-141 60 -141 324q0 92 9 170q-125 -195 -203 -272 q-80 -77 -164 -77q-47 0 -88 28l-9 7q-24 17 -43 50q-54 96 -54 257zM627 1556l1 1q8 74 34 128q26 51 53 85q21 26 27 32h4q16 0 57 -30q42 -29 42 -43q0 -1 -91 -92l-101 -100z" />
<glyph unicode="&#xdb;" horiz-adv-x="886" d="M0 420v10q8 212 83 437q76 231 169 417q20 33 49 33q8 0 20 -1q17 -2 38 -27q12 -15 12 -33q0 -14 -6 -29q-166 -350 -221 -517q-27 -77 -51 -193q-23 -110 -23 -209q0 -27 1 -66q2 -59 55 -108l28 -15q15 -8 38 -8q47 0 85 21q73 47 160 171q80 111 133 199 q30 199 97 439q68 244 112 337q10 19 31 34q13 8 26 8q5 0 22 -5q14 -4 33 -43q7 -14 7 -27q0 -1 -2 -11q-1 -4 -26 -66q-26 -57 -75 -210q-133 -407 -164 -698q-5 -53 -5 -89q0 -173 89 -212l-13 -30l-9 4q-141 60 -141 324q0 92 9 170q-125 -195 -203 -272 q-80 -77 -164 -77q-47 0 -88 28l-9 7q-24 17 -43 50q-54 96 -54 257zM528 1612l92 92l90 88l31 -7l48 -246l-32 -6l-33 170q-13 -49 -35 -86q-24 -38 -39 -56q-5 -6 -9.5 -11t-6.5 -8l-3 -2h-4q-19 0 -55 29q-44 32 -44 43z" />
<glyph unicode="&#xdc;" horiz-adv-x="886" d="M0 420v10q8 212 83 437q76 231 169 417q20 33 49 33q8 0 20 -1q17 -2 38 -27q12 -15 12 -33q0 -14 -6 -29q-166 -350 -221 -517q-27 -77 -51 -193q-23 -110 -23 -209q0 -27 1 -66q2 -59 55 -108l28 -15q15 -8 38 -8q47 0 85 21q73 47 160 171q80 111 133 199 q30 199 97 439q68 244 112 337q10 19 31 34q13 8 26 8q5 0 22 -5q14 -4 33 -43q7 -14 7 -27q0 -1 -2 -11q-1 -4 -26 -66q-26 -57 -75 -210q-133 -407 -164 -698q-5 -53 -5 -89q0 -173 89 -212l-13 -30l-9 4q-141 60 -141 324q0 92 9 170q-125 -195 -203 -272 q-80 -77 -164 -77q-47 0 -88 28l-9 7q-24 17 -43 50q-54 96 -54 257zM527 1673q0 25 15 44q15 18 46 18q30 0 47 -18q15 -19 15 -44q0 -24 -15 -43q-16 -19 -47 -19t-46 19t-15 43zM683 1673q0 25 16 44q15 18 46 18q29 0 46 -18q15 -19 15 -44q0 -24 -15 -43 q-16 -19 -46 -19q-31 0 -46 19q-16 19 -16 43z" />
<glyph unicode="&#xdd;" horiz-adv-x="1143" d="M0 609q0 47 16 150q16 107 84 276q69 170 146 295q16 20 39 20q37 0 64 -34q11 -16 11 -30q0 -11 -6 -23q-131 -208 -221 -439q-67 -170 -67 -281q0 -83 47 -128q36 -31 94 -31q9 0 50 3q41 1 144 81q157 130 261 301q107 175 182 354q2 6 2 18q3 84 60 97l9 1 q21 0 42 -19q20 -17 20 -57v-10q-66 -432 -182 -795q132 74 385 174l12 -30q-268 -106 -411 -189q-33 -108 -70 -203q-90 -233 -210 -278q-19 -6 -38 -6q-25 0 -46 10q-5 1 -23 15q-27 23 -27 64q0 15 5 35q31 112 118 194q90 83 187 143q91 354 149 719q-72 -158 -170 -304 q-98 -148 -236 -259q-118 -90 -210 -90q-70 0 -114 32q-46 34 -59 61q-37 65 -37 163zM399 -85q0 -9 3 -23q4 -13 29 -25l6 -1q13 -3 24 -3l13 1q52 18 90 86q61 110 97 272l4 19q-85 -55 -161 -128q-75 -75 -101 -170q-4 -13 -4 -28zM729 1556l1 1q8 74 34 128q26 51 53 85 q21 26 27 32h4q16 0 57 -30q42 -29 42 -43q0 -1 -91 -92l-101 -100z" />
<glyph unicode="&#xde;" horiz-adv-x="905" d="M8 189q0 50 11 165q19 195 155 667q51 187 99 373q17 50 52 50q23 0 43 -21q19 -20 19 -52q0 -40 -71 -270q229 -3 339 -70q111 -68 138 -163q15 -52 15 -104q0 -44 -18 -111q-16 -67 -58 -124q-114 -154 -328 -154q-31 0 -106 9q-77 9 -185 67q-63 -227 -63 -368 q0 -32 3 -62l1 -6q0 -18 -15 -18q-10 0 -14 14q-17 87 -17 178zM123 485q115 -40 223 -40q22 0 112 8q83 8 175 89q91 79 93 233q-9 125 -167 169q-111 31 -244 31q-29 1 -37 3q-96 -291 -155 -493z" />
<glyph unicode="&#xdf;" horiz-adv-x="1002" d="M4 100q0 45 12 130q21 150 166 526q46 117 107 296q18 38 56 38q27 0 46 -16q20 -14 20 -40q0 -12 -2 -19q-70 -200 -165 -406q-89 -195 -146 -357q-48 -134 -48 -235q0 -25 3 -49l1 -4q0 -6 -5 -11t-13 -5t-13 11q-19 71 -19 141zM319 104l30 9l5 -14q67 -153 140 -181 q72 -28 115 -28q63 0 124 36q76 46 80 80q4 31 4 46q0 94 -116 216q-56 59 -98 97q-101 94 -101 150q0 48 43 70q23 10 36 11q53 7 109 92q45 69 72 155q27 87 27 163q0 84 -42 125q-30 28 -59 33q-32 5 -40 5q-42 0 -105 -26q-49 -18 -80 -18q-27 0 -40 13q-12 14 -12 28 q0 22 24 50q40 48 157 72q32 5 56 5q60 0 111 -22q76 -31 114 -103q38 -71 38 -160q0 -94 -43 -218q-30 -88 -86 -170q-56 -80 -130 -117l-12 -3q-12 -2 -12 -6q0 -11 36 -47q122 -112 194 -240q42 -78 42 -155q0 -88 -89 -160q-72 -54 -124 -58q-44 -5 -66 -5 q-208 0 -302 275z" />
<glyph unicode="&#xe0;" horiz-adv-x="593" d="M-78 386q0 51 24 114q26 63 86 106q39 27 91 27q77 0 114 -40q11 22 23 41q12 17 24 17q20 0 52 -21q41 -29 41 -46q0 -4 -12 -22q-89 -142 -89 -278q0 -83 39 -104l8 -1h9q21 0 38 7q27 10 69 58q81 127 133 266l30 -11q-26 -70 -70 -158q-47 -94 -92 -142 q-47 -51 -110 -55q-39 0 -68 20l-2 1q-43 34 -61 107q-13 51 -13 107q0 15 2 43q-108 -133 -149 -156q-17 -7 -30 -7q-16 0 -22 3l-4 2q-61 30 -61 122zM22 306q0 -7 4 -7q14 0 86 83q46 54 87 108q11 44 23 71q-24 33 -50 33q-19 0 -37 -30q-16 -25 -43 -89 q-20 -45 -45 -99v-1q-25 -50 -25 -69zM123 973q0 13 56 37q40 16 53 16q7 0 7 -3q1 -3 9 -35q8 -33 45 -204l1 -3l-29 -13l-1 2q-55 39 -87 86t-42 82z" />
<glyph unicode="&#xe1;" horiz-adv-x="593" d="M-78 386q0 51 24 114q26 63 86 106q39 27 91 27q77 0 114 -40q11 22 23 41q12 17 24 17q20 0 52 -21q41 -29 41 -46q0 -4 -12 -22q-89 -142 -89 -278q0 -83 39 -104l8 -1h9q21 0 38 7q27 10 69 58q81 127 133 266l30 -11q-26 -70 -70 -158q-47 -94 -92 -142 q-47 -51 -110 -55q-39 0 -68 20l-2 1q-43 34 -61 107q-13 51 -13 107q0 15 2 43q-108 -133 -149 -156q-17 -7 -30 -7q-16 0 -22 3l-4 2q-61 30 -61 122zM22 306q0 -7 4 -7q14 0 86 83q46 54 87 108q11 44 23 71q-24 33 -50 33q-19 0 -37 -30q-16 -25 -43 -89 q-20 -45 -45 -99v-1q-25 -50 -25 -69zM205 788l1 1q8 74 34 128q26 51 53 85q21 26 27 32h4q16 0 57 -30q42 -28 42 -43q0 -1 -91 -92l-101 -100z" />
<glyph unicode="&#xe2;" horiz-adv-x="593" d="M-78 386q0 51 24 114q26 63 86 106q39 27 91 27q77 0 114 -40q11 22 23 41q12 17 24 17q20 0 52 -21q41 -29 41 -46q0 -4 -12 -22q-89 -142 -89 -278q0 -83 39 -104l8 -1h9q21 0 38 7q27 10 69 58q81 127 133 266l30 -11q-26 -70 -70 -158q-47 -94 -92 -142 q-47 -51 -110 -55q-39 0 -68 20l-2 1q-43 34 -61 107q-13 51 -13 107q0 15 2 43q-108 -133 -149 -156q-17 -7 -30 -7q-16 0 -22 3l-4 2q-61 30 -61 122zM22 306q0 -7 4 -7q14 0 86 83q46 54 87 108q11 44 23 71q-24 33 -50 33q-19 0 -37 -30q-16 -25 -43 -89 q-20 -45 -45 -99v-1q-25 -50 -25 -69zM101 844l92 92l90 88l31 -7l48 -246l-32 -6l-33 170q-13 -49 -35 -86q-24 -38 -39 -56q-5 -6 -9.5 -11t-7.5 -8l-2 -2h-4q-19 0 -55 29q-44 32 -44 43z" />
<glyph unicode="&#xe3;" horiz-adv-x="593" d="M-78 386q0 51 24 114q26 63 86 106q39 27 91 27q77 0 114 -40q11 22 23 41q12 17 24 17q20 0 52 -21q41 -29 41 -46q0 -4 -12 -22q-89 -142 -89 -278q0 -83 39 -104l8 -1h9q21 0 38 7q27 10 69 58q81 127 133 266l30 -11q-26 -70 -70 -158q-47 -94 -92 -142 q-47 -51 -110 -55q-39 0 -68 20l-2 1q-43 34 -61 107q-13 51 -13 107q0 15 2 43q-108 -133 -149 -156q-17 -7 -30 -7q-16 0 -22 3l-4 2q-61 30 -61 122zM22 306q0 -7 4 -7q14 0 86 83q46 54 87 108q11 44 23 71q-24 33 -50 33q-19 0 -37 -30q-16 -25 -43 -89 q-20 -45 -45 -99v-1q-25 -50 -25 -69zM71 898q0 26 10 50q39 82 95 82q5 0 40 -6q35 -5 98 -89q35 -42 52 -61q21 -23 39 -23q55 0 55 65q0 23 -14 46q-13 22 -44 22q-13 0 -39 -7l-7 21q29 9 49 9q30 0 48 -18q26 -26 26 -72q0 -14 -2 -32q-1 -27 -32 -67q-27 -35 -71 -35 q-2 0 -6.5 0.5t-13 1.5t-16.5 2q-30 3 -98 85l-17 23q-31 45 -49 61q-11 10 -27 10q-9 0 -18 -3q-37 -12 -37 -66q0 -25 14 -45q15 -21 46 -21q12 0 34 5l6 -21q-19 -5 -41 -5q-45 0 -65 33q-15 25 -15 55z" />
<glyph unicode="&#xe4;" horiz-adv-x="593" d="M-78 386q0 51 24 114q26 63 86 106q39 27 91 27q77 0 114 -40q11 22 23 41q12 17 24 17q20 0 52 -21q41 -29 41 -46q0 -4 -12 -22q-89 -142 -89 -278q0 -83 39 -104l8 -1h9q21 0 38 7q27 10 69 58q81 127 133 266l30 -11q-26 -70 -70 -158q-47 -94 -92 -142 q-47 -51 -110 -55q-39 0 -68 20l-2 1q-43 34 -61 107q-13 51 -13 107q0 15 2 43q-108 -133 -149 -156q-17 -7 -30 -7q-16 0 -22 3l-4 2q-61 30 -61 122zM22 306q0 -7 4 -7q14 0 86 83q46 54 87 108q11 44 23 71q-24 33 -50 33q-19 0 -37 -30q-16 -25 -43 -89 q-20 -45 -45 -99v-1q-25 -50 -25 -69zM131 905q0 25 15 44q15 18 46 18q30 0 47 -18q15 -19 15 -44q0 -23 -15 -43q-16 -19 -47 -19t-46 19q-15 20 -15 43zM287 905q0 25 16 44q15 18 46 18q29 0 46 -18q15 -19 15 -44q0 -23 -15 -43q-16 -19 -46 -19q-31 0 -46 19 q-16 19 -16 43z" />
<glyph unicode="&#xe5;" horiz-adv-x="593" d="M-78 386q0 51 24 114q26 63 86 106q39 27 91 27q77 0 114 -40q11 22 23 41q12 17 24 17q20 0 52 -21q41 -29 41 -46q0 -4 -12 -22q-89 -142 -89 -278q0 -83 39 -104q6 -1 17 -1q21 0 38 7q27 10 69 58q81 127 133 266l30 -11q-26 -70 -70 -158q-47 -94 -92 -142 q-47 -51 -110 -55q-99 0 -131 128q-13 51 -13 107q0 15 2 43q-108 -133 -149 -156q-17 -7 -30 -7q-16 0 -22 3q-65 33 -65 124zM22 306q0 -7 4 -7q14 0 86 83q46 54 87 108q11 44 23 71q-24 33 -50 33q-19 0 -37 -30q-16 -25 -43 -89q-22 -50 -45 -98q-25 -51 -25 -71z M149 904q0 49 35 86q36 36 86 36q51 0 87 -36q35 -37 35 -86t-35 -86q-36 -36 -87 -36q-50 0 -86 36q-35 37 -35 86zM216 904q0 -48 16 -80q15 -34 38 -34t39 34q16 32 16 80t-16 81q-17 33 -39 33q-23 0 -38 -33q-16 -33 -16 -81z" />
<glyph unicode="&#xe6;" horiz-adv-x="814" d="M-40 389q0 52 25 112q24 63 86 105q39 27 91 27q76 0 113 -40l12 -15q6 -9 14 -27q69 85 138 97q20 4 40 4q78 0 78 -67q0 -21 -15 -66q-16 -44 -66 -94q-39 -37 -74 -37q-7 0 -23 4q-31 -75 -31 -122q0 -23 6 -47q9 -46 80 -46q53 0 121 46q70 46 145 133q77 90 122 156 l26 -18q-52 -75 -121 -156q-165 -193 -298 -193q-50 0 -89 21q-54 28 -75 64l-9 13q-26 48 -26 107q0 50 17 98q-6 -8 -12 -14q-133 -175 -188 -175q-12 0 -21 3l-4 1l-1 1q-61 30 -61 125zM60 305q0 -6 5 -6q16 0 93 92q114 137 114 146t-12 24q-25 34 -49 34 q-20 0 -38 -30q-17 -29 -42 -89q-16 -36 -45 -100q-26 -57 -26 -71zM391 421q8 -2 11 -2q26 0 58 36q33 35 54 84q12 29 12 47q0 27 -18 27q-36 0 -96 -142q-21 -48 -21 -50z" />
<glyph unicode="&#xe7;" horiz-adv-x="602" d="M-70 323q0 27 10 88q9 61 65 145q54 81 129 119q37 19 76 19q34 0 71 -17q46 -28 46 -91q-4 -49 -28 -92l-29 14q20 36 25 79q0 18 -7 35q-12 30 -38 30q-36 0 -80 -68q-44 -69 -80 -179q-37 -110 -46 -207v-9q0 -51 43 -54q94 2 243 115q147 113 264 257l25 -19 q-66 -84 -161 -172q-98 -91 -197 -152q-98 -61 -171 -61q-12 0 -16 1q-10 -13 -10 -25q0 -11 6 -22q14 -30 14 -57q0 -51 -41 -68q-8 -2 -13 -2q-19 0 -37 21q-5 9 -8 18q-2 7 -4 19q-1 6 -1 11l12 1q0 -7 3 -20q3 -14 9 -21q4 -7 11 -7q5 0 12 10q5 12 5 28q0 14 -2 22 l-2 6q-8 19 -8 41q0 9 3 24q3 14 22 26q-53 14 -80 67q-35 73 -35 147z" />
<glyph unicode="&#xe8;" horiz-adv-x="534" d="M-58 348q0 133 100 236q64 67 149 67q35 0 60 -17q19 -19 19 -49q0 -21 -17 -69q-18 -46 -66 -93q-38 -35 -73 -35q-7 0 -23 4q-31 -75 -31 -122q0 -24 6 -48q10 -45 81 -45q51 0 121 45q71 48 144 134q77 90 122 156l26 -18q-52 -75 -121 -156q-163 -193 -298 -193 q-49 0 -89 20q-50 26 -75 65l-9 13q-26 49 -26 105zM81 973q0 13 56 37q40 16 53 16q7 0 7 -3q1 -3 9 -35q8 -33 45 -204l1 -3l-29 -13l-1 2q-55 39 -87 86t-42 82zM103 421q8 -2 12 -2q27 0 58 36q33 35 54 84q11 25 11 46q0 14 -6 23l-1 2q-1 1 -10 1q-21 -3 -44 -36 q-21 -32 -40 -75q-19 -42 -30 -69z" />
<glyph unicode="&#xe9;" horiz-adv-x="534" d="M-58 348q0 133 100 236q64 67 149 67q35 0 60 -17q19 -19 19 -49q0 -21 -17 -69q-18 -46 -66 -93q-38 -35 -73 -35q-7 0 -23 4q-31 -75 -31 -122q0 -24 6 -48q10 -45 81 -45q51 0 121 45q71 48 144 134q77 90 122 156l26 -18q-52 -75 -121 -156q-163 -193 -298 -193 q-49 0 -89 20q-50 26 -75 65l-9 13q-26 49 -26 105zM103 421q8 -2 12 -2q27 0 58 36q33 35 54 84q11 25 11 46q0 14 -6 23l-1 2q-1 1 -10 1q-21 -3 -44 -36q-21 -32 -40 -75q-19 -42 -30 -69zM201 788l1 1q8 74 34 128q26 51 53 85q21 26 27 32h4q16 0 57 -30q42 -28 42 -43 q0 -1 -91 -92l-101 -100z" />
<glyph unicode="&#xea;" horiz-adv-x="534" d="M-58 348q0 133 100 236q64 67 149 67q35 0 60 -17q19 -19 19 -49q0 -21 -17 -69q-18 -46 -66 -93q-38 -35 -73 -35q-7 0 -23 4q-31 -75 -31 -122q0 -24 6 -48q10 -45 81 -45q51 0 121 45q71 48 144 134q77 90 122 156l26 -18q-52 -75 -121 -156q-163 -193 -298 -193 q-49 0 -89 20q-50 26 -75 65l-9 13q-26 49 -26 105zM84 844l92 92l90 88l31 -7l48 -246l-32 -6l-33 170q-13 -49 -35 -86q-24 -38 -39 -56q-5 -6 -9.5 -11t-6.5 -8l-3 -2h-4q-19 0 -55 29q-44 32 -44 43zM103 421q8 -2 12 -2q27 0 58 36q33 35 54 84q11 25 11 46q0 14 -6 23 l-1 2q-1 1 -10 1q-21 -3 -44 -36q-21 -32 -40 -75q-19 -42 -30 -69z" />
<glyph unicode="&#xeb;" horiz-adv-x="534" d="M-58 348q0 133 100 236q64 67 149 67q35 0 60 -17q19 -19 19 -49q0 -21 -17 -69q-18 -46 -66 -93q-38 -35 -73 -35q-7 0 -23 4q-31 -75 -31 -122q0 -24 6 -48q10 -45 81 -45q51 0 121 45q71 48 144 134q77 90 122 156l26 -18q-52 -75 -121 -156q-163 -193 -298 -193 q-49 0 -89 20q-50 26 -75 65l-9 13q-26 49 -26 105zM73 905q0 25 15 44q15 18 46 18q30 0 47 -18q15 -19 15 -44q0 -23 -15 -43q-16 -19 -47 -19t-46 19q-15 20 -15 43zM103 421q8 -2 12 -2q27 0 58 36q33 35 54 84q11 25 11 46q0 14 -6 23l-1 2q-1 1 -10 1q-21 -3 -44 -36 q-21 -32 -40 -75q-19 -42 -30 -69zM229 905q0 25 16 44q15 18 46 18q29 0 46 -18q15 -19 15 -44q0 -23 -15 -43q-16 -19 -46 -19q-31 0 -46 19q-16 19 -16 43z" />
<glyph unicode="&#xec;" horiz-adv-x="376" d="M-18 353q0 23 6 104q6 80 50 193q6 10 23 10q22 0 46 -8q52 -18 52 -38l-1 -4q-12 -27 -47 -129q-31 -91 -48 -180q-7 -34 -7 -62q0 -36 14 -52l4 -2q7 -3 9 -4q4 -1 12 -1h9q17 0 42 17q120 84 244 308l28 -15q-35 -63 -91 -144q-141 -201 -237 -201q-11 0 -23 5 q-28 9 -48 37q-37 62 -37 166zM-18 973q0 13 56 37q40 16 53 16q7 0 7 -3q1 -3 9 -35q7 -33 45 -204l1 -3l-29 -13l-1 2q-55 39 -87 86t-42 82z" />
<glyph unicode="&#xed;" horiz-adv-x="376" d="M-18 353q0 23 6 104q6 80 50 193q6 10 23 10q22 0 46 -8q52 -18 52 -38l-1 -4q-12 -27 -47 -129q-31 -91 -48 -180q-7 -34 -7 -62q0 -36 14 -52l4 -2q7 -3 9 -4q4 -1 12 -1h9q17 0 42 17q120 84 244 308l28 -15q-35 -63 -91 -144q-141 -201 -237 -201q-11 0 -23 5 q-28 9 -48 37q-37 62 -37 166zM137 788l1 1q8 74 34 128q26 51 53 85q21 26 27 32h4q16 0 57 -30q42 -28 42 -43q0 -1 -91 -92l-101 -100z" />
<glyph unicode="&#xee;" horiz-adv-x="376" d="M-18 353q0 23 6 104q6 80 50 193q6 10 23 10q22 0 46 -8q52 -18 52 -38l-1 -4q-12 -27 -47 -129q-31 -91 -48 -180q-7 -34 -7 -62q0 -36 14 -52l4 -2q7 -3 9 -4q4 -1 12 -1h9q17 0 42 17q120 84 244 308l28 -15q-35 -63 -91 -144q-141 -201 -237 -201q-11 0 -23 5 q-28 9 -48 37q-37 62 -37 166zM15 844l92 92l90 88l31 -7l48 -246l-32 -6l-33 170q-13 -49 -35 -86q-24 -38 -39 -56q-5 -6 -9.5 -11t-7.5 -8l-2 -2h-4q-19 0 -55 29q-44 32 -44 43z" />
<glyph unicode="&#xef;" horiz-adv-x="376" d="M-18 353q0 23 6 104q6 80 50 193q6 10 23 10q22 0 46 -8q52 -18 52 -38l-1 -4q-12 -27 -47 -129q-31 -91 -48 -180q-7 -34 -7 -62q0 -36 14 -52l4 -2q7 -3 9 -4q4 -1 12 -1h9q17 0 42 17q120 84 244 308l28 -15q-35 -63 -91 -144q-141 -201 -237 -201q-11 0 -23 5 q-28 9 -48 37q-37 62 -37 166zM30 905q0 25 15 44q15 18 46 18t47 -18q15 -19 15 -44q0 -23 -15 -43q-16 -19 -47 -19t-46 19q-15 20 -15 43zM186 905q0 25 16 44q15 18 46 18q30 0 46 -18q15 -19 15 -44q0 -23 -15 -43q-16 -19 -46 -19q-31 0 -46 19q-16 19 -16 43z" />
<glyph unicode="&#xf0;" horiz-adv-x="461" d="M-17 414q0 58 25 120q26 60 70 106q42 44 83 61q6 2 9 2q22 0 40 -39q14 6 26 6q31 0 64 -35q-17 128 -90 212q-41 -23 -92 -58q-38 -25 -41 -29l-24 32q2 2 40 29q28 21 88 55q-35 32 -87 59l18 36q62 -33 105 -74q72 38 142 49l4 -40q-55 -8 -117 -40q99 -123 99 -307 q0 -171 -78 -270q-71 -84 -139 -84q-50 0 -89 42q-39 41 -53 122q-3 23 -3 45zM104 351q0 -96 45 -96q8 0 21 1q19 1 57 46q38 44 57 106q-46 2 -80 24q-36 23 -49 64l-10 -12q-11 -14 -21 -37q-20 -45 -20 -96zM189 530q3 -40 32 -61t70 -21q6 33 6 61q0 75 -36 109 q-14 11 -25 11q-8 0 -13 -4q8 -27 8 -49q0 -2 -0.5 -5.5t-0.5 -4.5q0 -5 -4 -9q-2 -2 -12 -8q-7 -4 -25 -19z" />
<glyph unicode="&#xf1;" horiz-adv-x="747" d="M-18 352q0 177 72 315q5 8 21 8q19 0 49 -11q49 -21 49 -40l-1 -4q-67 -132 -118 -305q123 194 285 275q31 20 53 20q15 0 27 -5l2 -1q27 -8 48 -60q13 -30 13 -74q0 -24 -5 -57q-24 -95 -63 -161q-34 -62 -34 -86q0 -18 15 -29q21 -12 42 -12q45 0 104 52 q110 92 225 322l28 -14q-35 -72 -80 -144q-50 -81 -109 -148q-59 -66 -126 -92q-24 -8 -42 -8q-31 0 -60 18q-81 60 -81 144q0 11 6 65q6 53 62 193q1 3 3 7q5 15 5 23q0 15 -12 15l-10 -1l-13 -4q-181 -102 -308 -342l-5 -9l-27 13q-15 69 -15 137zM148 898q0 26 10 50 q39 82 95 82q5 0 40 -6q35 -5 98 -89q35 -42 52 -61q21 -23 39 -23q55 0 55 65q0 23 -14 46q-13 22 -44 22q-13 0 -39 -7l-7 21q28 9 49 9q30 0 48 -18q26 -26 26 -72q0 -14 -2 -32q-1 -27 -32 -67q-27 -35 -71 -35q-2 0 -6.5 0.5t-13 1.5t-16.5 2q-30 3 -98 85l-17 23 q-31 45 -49 61q-11 10 -27 10q-9 0 -18 -3q-37 -12 -37 -66q0 -25 14 -45q15 -21 46 -21q12 0 34 5l6 -21q-19 -5 -41 -5q-45 0 -65 33q-15 25 -15 55z" />
<glyph unicode="&#xf2;" horiz-adv-x="500" d="M-56 344v49q2 47 43 136q40 89 128 150q8 5 16 5q9 0 20 -9q21 35 47 35h14q13 0 31 -21q21 -28 30 -92q7 -43 7 -88l-1 -28q30 -5 61 -5q20 0 62 3q43 3 101 28l13 -29q-80 -34 -174 -34q-32 0 -65 5q-8 -65 -32 -128q-26 -70 -66 -119q-41 -50 -96 -56h-9q-62 0 -96 56 q-34 55 -34 142zM26 251q0 -70 46 -70q52 0 89 49q35 47 59 116q20 62 25 109q-72 11 -104 85q-57 -53 -85 -128q-30 -81 -30 -161zM76 973q0 13 56 37q40 16 53 16q7 0 7 -3q1 -3 9 -35q7 -33 45 -204l1 -3l-29 -13l-1 2q-55 39 -87 86t-42 82zM168 562q19 -64 80 -75l1 27 q0 51 -11 100q-14 65 -37 65q-14 0 -27 -31q21 -39 21 -59q0 -14 -7 -14z" />
<glyph unicode="&#xf3;" horiz-adv-x="500" d="M-56 344v49q2 47 43 136q40 89 128 150q8 5 16 5q9 0 20 -9q21 35 47 35h14q13 0 31 -21q21 -28 30 -92q7 -43 7 -88l-1 -28q30 -5 61 -5q20 0 62 3q43 3 101 28l13 -29q-80 -34 -174 -34q-32 0 -65 5q-8 -65 -32 -128q-26 -70 -66 -119q-41 -50 -96 -56h-9q-62 0 -96 56 q-34 55 -34 142zM26 251q0 -70 46 -70q52 0 89 49q35 47 59 116q20 62 25 109q-72 11 -104 85q-57 -53 -85 -128q-30 -81 -30 -161zM168 562q19 -64 80 -75l1 27q0 51 -11 100q-14 65 -37 65q-14 0 -27 -31q21 -39 21 -59q0 -14 -7 -14zM191 788l1 1q8 74 34 128 q26 51 53 85q21 26 27 32h4q16 0 57 -30q42 -28 42 -43q0 -1 -91 -92l-101 -100z" />
<glyph unicode="&#xf4;" horiz-adv-x="500" d="M-56 344v49q2 47 43 136q40 89 128 150q8 5 16 5q9 0 20 -9q21 35 47 35h14q13 0 31 -21q21 -28 30 -92q7 -43 7 -88l-1 -28q30 -5 61 -5q20 0 62 3q43 3 101 28l13 -29q-80 -34 -174 -34q-32 0 -65 5q-8 -65 -32 -128q-26 -70 -66 -119q-41 -50 -96 -56h-9q-62 0 -96 56 q-34 55 -34 142zM26 251q0 -70 46 -70q52 0 89 49q35 47 59 116q20 62 25 109q-72 11 -104 85q-57 -53 -85 -128q-30 -81 -30 -161zM91 844l92 92l90 88l31 -7l48 -246l-32 -6l-33 170q-13 -49 -35 -86q-24 -38 -39 -56q-5 -6 -9.5 -11t-7.5 -8l-2 -2h-4q-19 0 -55 29 q-44 32 -44 43zM168 562q19 -64 80 -75l1 27q0 51 -11 100q-14 65 -37 65q-14 0 -27 -31q21 -39 21 -59q0 -14 -7 -14z" />
<glyph unicode="&#xf5;" horiz-adv-x="500" d="M-56 344v49q2 47 43 136q40 89 128 150q8 5 16 5q9 0 20 -9q21 35 47 35h14q13 0 31 -21q21 -28 30 -92q7 -43 7 -88l-1 -28q30 -5 61 -5q20 0 62 3q43 3 101 28l13 -29q-80 -34 -174 -34q-32 0 -65 5q-8 -65 -32 -128q-26 -70 -66 -119q-41 -50 -96 -56h-9q-62 0 -96 56 q-34 55 -34 142zM26 251q0 -70 46 -70q52 0 89 49q35 47 59 116q20 62 25 109q-72 11 -104 85q-57 -53 -85 -128q-30 -81 -30 -161zM57 898q0 26 10 50q39 82 95 82q6 0 40 -6q35 -5 98 -89q35 -42 52 -61q21 -23 39 -23q55 0 55 65q0 23 -14 46q-13 22 -44 22q-13 0 -39 -7 l-7 21q28 9 49 9q30 0 48 -18q26 -26 26 -72q0 -14 -2 -32q-1 -27 -32 -67q-27 -35 -71 -35q-2 0 -6.5 0.5t-13 1.5t-16.5 2q-30 3 -98 85l-17 23q-31 45 -49 61q-11 10 -27 10q-9 0 -18 -3q-37 -12 -37 -66q0 -25 14 -45q15 -21 46 -21q12 0 34 5l6 -21q-19 -5 -41 -5 q-45 0 -65 33q-15 25 -15 55zM168 562q19 -64 80 -75l1 27q0 51 -11 100q-14 65 -37 65q-14 0 -27 -31q21 -39 21 -59q0 -14 -7 -14z" />
<glyph unicode="&#xf6;" horiz-adv-x="500" d="M-56 344v49q2 47 43 136q40 89 128 150q8 5 16 5q9 0 20 -9q21 35 47 35h14q13 0 31 -21q21 -28 30 -92q7 -43 7 -88l-1 -28q30 -5 61 -5q20 0 62 3q43 3 101 28l13 -29q-80 -34 -174 -34q-32 0 -65 5q-8 -65 -32 -128q-26 -70 -66 -119q-41 -50 -96 -56h-9q-62 0 -96 56 q-34 55 -34 142zM26 251q0 -70 46 -70q52 0 89 49q35 47 59 116q20 62 25 109q-72 11 -104 85q-57 -53 -85 -128q-30 -81 -30 -161zM92 905q0 25 15 44q15 18 46 18t47 -18q15 -19 15 -44q0 -23 -15 -43q-16 -19 -47 -19t-46 19q-15 20 -15 43zM168 562q19 -64 80 -75l1 27 q0 51 -11 100q-14 65 -37 65q-14 0 -27 -31q21 -39 21 -59q0 -14 -7 -14zM248 905q0 25 16 44q15 18 46 18q30 0 46 -18q15 -19 15 -44q0 -23 -15 -43q-16 -19 -46 -19q-31 0 -46 19q-16 19 -16 43z" />
<glyph unicode="&#xf7;" horiz-adv-x="561" d="M206 493v28h2q129 52 283 52l62 -2q18 -5 18 -57q0 -54 -17 -54zM320 680q0 24 29 62l12 1q17 0 32 -11q16 -10 27 -32q10 -20 10 -37q0 -15 -9 -26q-18 -21 -42 -21q-38 0 -53 37q-6 13 -6 27zM345 359q0 29 26 58l3 4l10 1q29 0 50 -26t21 -53l-1 -11q-10 -37 -49 -37 q-40 0 -56 40q-4 18 -4 24z" />
<glyph unicode="&#xf8;" horiz-adv-x="432" d="M-176 59l3 5q62 129 143 274q-65 65 -65 174q0 60 21 114q29 69 74 115q44 45 82 60l9 1q25 0 41 -38q12 6 26 6q25 0 52 -24l115 182q18 25 39 25q5 0 13 -1q11 -2 21 -21q3 -7 3 -15q0 -14 -11 -34l-139 -211q6 -30 6 -68q0 -32 -2 -50l-8 -42q-37 -119 -105 -169 q-51 -36 -96 -36q-14 0 -32 5l-173 -263zM26 437l70 122q-12 15 -20 38q-50 -59 -50 -147v-13zM48 364q12 -9 25 -9q22 0 64 34q40 34 68 119q-27 1 -54 11zM110 631q1 -19 9 -34q4 7 30.5 50.5t39.5 64.5q-17 18 -31 18q-6 0 -13 -5q7 -28 7 -52v-7q-2 -5 -5 -8 q-5 -4 -12 -9q-3 -2 -25 -18zM174 554q18 -6 40 -6q4 31 4 61v11q-7 -10 -44 -66z" />
<glyph unicode="&#xf9;" horiz-adv-x="702" d="M-36 317q0 37 11 123q11 82 61 189l3 7q12 30 36 30q26 0 66 -28q24 -18 24 -30q0 -5 -1 -7q-124 -238 -124 -394q0 -50 19 -63l6 -2q10 -2 20 -2q21 0 40 10q49 31 96 98q43 60 74 120q19 154 53 243q7 13 33 13q9 0 21 -1q18 -2 43 -15t25 -28v-3l-47 -137 q-64 -191 -64 -271q0 -47 23 -47q45 0 140 119q102 129 193 270l27 -17q-87 -134 -187 -263q-105 -142 -177 -142h-4q-61 14 -74 75q-12 49 -12 101l1 27q-114 -187 -207 -187q-77 0 -104 99q-14 53 -14 113zM137 973q0 13 56 37q40 16 53 16q7 0 7 -3q1 -3 9 -35 q8 -33 45 -204l1 -3l-29 -13l-1 2q-55 39 -87 86t-42 82z" />
<glyph unicode="&#xfa;" horiz-adv-x="702" d="M-36 317q0 37 11 123q11 82 61 189l3 7q12 30 36 30q26 0 66 -28q24 -18 24 -30q0 -5 -1 -7q-124 -238 -124 -394q0 -50 19 -63l6 -2q10 -2 20 -2q21 0 40 10q49 31 96 98q43 60 74 120q19 154 53 243q7 13 33 13q9 0 21 -1q18 -2 43 -15t25 -28v-3l-47 -137 q-64 -191 -64 -271q0 -47 23 -47q45 0 140 119q102 129 193 270l27 -17q-87 -134 -187 -263q-105 -142 -177 -142h-4q-61 14 -74 75q-12 49 -12 101l1 27q-114 -187 -207 -187q-77 0 -104 99q-14 53 -14 113zM251 788l1 1q8 74 34 128q26 51 53 85q21 26 27 32h4 q16 0 57 -30q42 -28 42 -43q0 -1 -91 -92l-101 -100z" />
<glyph unicode="&#xfb;" horiz-adv-x="702" d="M-36 317q0 37 11 123q11 82 61 189l3 7q12 30 36 30q26 0 66 -28q24 -18 24 -30q0 -5 -1 -7q-124 -238 -124 -394q0 -50 19 -63l6 -2q10 -2 20 -2q21 0 40 10q49 31 96 98q43 60 74 120q19 154 53 243q7 13 33 13q9 0 21 -1q18 -2 43 -15t25 -28v-3l-47 -137 q-64 -191 -64 -271q0 -47 23 -47q45 0 140 119q102 129 193 270l27 -17q-87 -134 -187 -263q-105 -142 -177 -142h-4q-61 14 -74 75q-12 49 -12 101l1 27q-114 -187 -207 -187q-77 0 -104 99q-14 53 -14 113zM133 844l92 92l90 88l31 -7l48 -246l-32 -6l-33 170 q-13 -49 -35 -86q-24 -38 -39 -56q-5 -6 -9.5 -11t-7.5 -8l-2 -2h-4q-19 0 -55 29q-44 32 -44 43z" />
<glyph unicode="&#xfc;" horiz-adv-x="702" d="M-36 317q0 37 11 123q11 82 61 189l3 7q12 30 36 30q26 0 66 -28q24 -18 24 -30q0 -5 -1 -7q-124 -238 -124 -394q0 -50 19 -63l6 -2q10 -2 20 -2q21 0 40 10q49 31 96 98q43 60 74 120q19 154 53 243q7 13 33 13q9 0 21 -1q18 -2 43 -15t25 -28v-3l-47 -137 q-64 -191 -64 -271q0 -47 23 -47q45 0 140 119q102 129 193 270l27 -17q-87 -134 -187 -263q-105 -142 -177 -142h-4q-61 14 -74 75q-12 49 -12 101l1 27q-114 -187 -207 -187q-77 0 -104 99q-14 53 -14 113zM174 905q0 25 15 44q15 18 46 18t47 -18q15 -19 15 -44 q0 -23 -15 -43q-16 -19 -47 -19t-46 19q-15 20 -15 43zM330 905q0 25 16 44q15 18 46 18q30 0 46 -18q15 -19 15 -44q0 -23 -15 -43q-16 -19 -46 -19q-31 0 -46 19q-16 19 -16 43z" />
<glyph unicode="&#xfd;" horiz-adv-x="631" d="M-222 -335q0 75 97 199q136 175 300 325q25 160 52 296q-65 -85 -155 -155q-21 -18 -49 -29q-19 -8 -36 -8q-6 0 -16 2l-23 9q-23 12 -38 36q-24 45 -24 112q0 28 11 105q11 73 66 162q5 5 14 5q22 0 54 -19q45 -29 45 -43l-1 -4q-37 -53 -71 -128q-46 -102 -46 -161 q0 -25 12 -36l4 -2q3 -2 17 -2q17 0 35 9q58 33 124 107q62 69 92 115l10 47q13 43 59 43q23 0 45 -15q21 -15 21 -44q0 -8 -1 -11q0 -2 -2 -10.5t-6 -27.5t-8 -39q-6 -25 -19.5 -87t-21.5 -97l113 94q51 41 125 103l21 -24q-25 -21 -125 -104q-64 -51 -146 -121l-19 -86 q-28 -155 -80 -307q-51 -148 -162 -250q-55 -53 -135 -70h-14q-23 0 -42 6q-43 14 -63 50q-14 25 -14 55zM-190 -334q0 -34 21 -56q21 -23 59 -23q13 0 22 3q32 11 54 29v1q16 14 23 21q88 91 124 221q36 135 49 245l5 30q-147 -137 -270 -297q-87 -112 -87 -174zM161 788 l1 1q8 74 34 128q26 51 53 85q21 26 27 32h4q16 0 57 -30q42 -28 42 -43q0 -1 -91 -92l-101 -100z" />
<glyph unicode="&#xfe;" horiz-adv-x="648" d="M4 83q0 209 117 695q39 164 71 313q10 42 35 42q17 0 31 -17t14 -46t-50 -224q161 -3 241 -59q77 -55 97 -137q10 -40 10 -85q0 -34 -8 -74q-17 -79 -45 -125q-81 -129 -233 -129q-104 0 -206 63q-44 -194 -44 -310q0 -18 2 -50v-4q0 -16 -10 -16q-7 0 -10 11 q-12 72 -12 152zM85 329q79 -33 158 -33q126 0 203 80q64 67 66 196q-6 105 -118 142q-81 26 -173 26q-25 2 -26 2q-73 -259 -110 -413z" />
<glyph unicode="&#xff;" horiz-adv-x="631" d="M-222 -335q0 75 97 199q136 175 300 325q25 160 52 296q-65 -85 -155 -155q-21 -18 -49 -29q-19 -8 -36 -8q-6 0 -16 2l-23 9q-23 12 -38 36q-24 45 -24 112q0 28 11 105q11 73 66 162q5 5 14 5q22 0 54 -19q45 -29 45 -43l-1 -4q-37 -53 -71 -128q-46 -102 -46 -161 q0 -25 12 -36l4 -2q3 -2 17 -2q17 0 35 9q58 33 124 107q62 69 92 115l10 47q13 43 59 43q23 0 45 -15q21 -15 21 -44q0 -8 -1 -11q0 -2 -2 -10.5t-6 -27.5t-8 -39q-6 -25 -19.5 -87t-21.5 -97l113 94q51 41 125 103l21 -24q-25 -21 -125 -104q-64 -51 -146 -121l-19 -86 q-28 -155 -80 -307q-51 -148 -162 -250q-55 -53 -135 -70h-14q-23 0 -42 6q-43 14 -63 50q-14 25 -14 55zM-190 -334q0 -34 21 -56q21 -23 59 -23q13 0 22 3q32 11 54 29v1q16 14 23 21q88 91 124 221q36 135 49 245l5 30q-147 -137 -270 -297q-87 -112 -87 -174zM99 905 q0 25 15 44q15 18 46 18q30 0 47 -18q15 -19 15 -44q0 -23 -15 -43q-16 -19 -47 -19t-46 19q-15 20 -15 43zM255 905q0 25 16 44q15 18 46 18q29 0 46 -18q15 -19 15 -44q0 -23 -15 -43q-16 -19 -46 -19q-31 0 -46 19q-16 19 -16 43z" />
<glyph unicode="&#x152;" horiz-adv-x="1408" d="M8 515q0 231 105 472q73 165 187 260q88 73 195 73q32 0 72 -8q29 22 73 22q15 0 34 -1q27 -1 73 -55q46 -53 59 -176l48 150q22 57 62 57l20 -1q21 -2 39 -37q47 4 105 4q85 0 161 10q79 9 146 48l17 -27q-71 -42 -157 -53q-73 -10 -153 -10h-14q-51 0 -99 -3l-25 -83 q-105 -335 -156 -534q19 2 56 2q91 0 212 -28q102 -20 138 -20q28 0 52 8l11 -30q-27 -10 -63 -10q-47 0 -146 21q-122 28 -203 28q-36 0 -65 -4q-34 -137 -87 -392l-20 -93q53 -5 101 -24q41 -18 94 -47q52 -27 86 -41q56 -25 107 -25q40 0 82 21q42 19 57 67l31 -9 q-18 -56 -67 -83q-49 -28 -106 -28q-54 0 -104 21q-52 22 -98 48q-55 29 -95 46q-51 21 -98 22q-32 -97 -84 -136q-16 -11 -30 -11t-29 9l-4 5q-3 3 -8 13q-3 7 -5 22v7q0 32 24 66q27 36 85 52q7 43 23 217q-27 -59 -54 -110q-86 -167 -208 -248q-53 -34 -108 -34l-15 1 q-97 18 -158 136q-96 184 -96 453zM140 367q0 -104 14 -218q6 -64 29 -121t83 -71l13 -1q40 0 89 31q87 54 163 175q75 119 131 274q43 295 115 563v24q0 141 -35 204q-34 64 -80 73q-9 2 -26 2q-29 0 -46 -13l-8 -6q-41 -41 -85 -191q-38 -131 -38 -297l1 -40l-32 -1l-1 42 q0 168 39 304q39 138 73 183q-95 -2 -176 -100q-81 -100 -136 -266q-56 -168 -77 -367q-10 -102 -10 -183zM547 -19q0 -14 5 -19l6 -1q5 0 10 4q30 30 48 99q-37 -16 -53 -38t-16 -45z" />
<glyph unicode="&#x153;" horiz-adv-x="833" d="M-54 344v49q0 46 42 136t129 150q8 5 15 5q10 0 21 -9q21 36 48 36q55 -1 72 -99q9 -52 9 -104q36 66 92 107q51 36 112 36q80 0 80 -65q0 -26 -17 -70q-17 -46 -66 -93q-38 -35 -73 -35q-7 0 -23 4q-31 -82 -31 -120q0 -19 7 -49q9 -46 79 -46q52 0 122 46t145 133 q78 93 121 156l26 -18q-52 -75 -121 -156q-165 -193 -297 -193q-52 0 -89 21q-49 25 -76 64l-9 13q-18 32 -22 65q-62 -152 -157 -161l-1 -1h-7q-62 0 -96 56q-35 56 -35 142zM28 251q0 -69 45 -69q53 0 90 49t58 115q22 69 26 109q-72 12 -104 86q-58 -55 -85 -129 q-30 -81 -30 -161zM169 562q21 -63 81 -75v21q0 61 -10 105q-13 67 -37 67q-13 0 -27 -31q21 -39 21 -59q0 -10 -5 -14q-1 0 -11 -7zM399 421q8 -2 12 -2q27 0 58 36q33 35 54 84q12 29 12 47q0 13 -6 22l-3 2q-4 2 -9 2q-45 -9 -118 -191z" />
<glyph unicode="&#x178;" horiz-adv-x="1143" d="M0 609q0 47 16 150q16 107 84 276q69 170 146 295q16 20 39 20q37 0 64 -34q11 -16 11 -30q0 -11 -6 -23q-131 -208 -221 -439q-67 -170 -67 -281q0 -83 47 -128q36 -31 94 -31q9 0 50 3q41 1 144 81q157 130 261 301q107 175 182 354q2 6 2 18q3 84 60 97l9 1 q21 0 42 -19q20 -17 20 -57v-10q-66 -432 -182 -795q132 74 385 174l12 -30q-268 -106 -411 -189q-33 -108 -70 -203q-90 -233 -210 -278q-19 -6 -38 -6q-25 0 -46 10q-5 1 -23 15q-27 23 -27 64q0 15 5 35q31 112 118 194q90 83 187 143q91 354 149 719q-72 -158 -170 -304 q-98 -148 -236 -259q-118 -90 -210 -90q-70 0 -114 32q-46 34 -59 61q-37 65 -37 163zM399 -85q0 -9 3 -23q4 -13 29 -25l6 -1q13 -3 24 -3l13 1q52 18 90 86q61 110 97 272l4 19q-85 -55 -161 -128q-75 -75 -101 -170q-4 -13 -4 -28zM621 1673q0 25 15 44q15 18 46 18 q30 0 47 -18q15 -19 15 -44q0 -24 -15 -43q-16 -19 -47 -19t-46 19t-15 43zM777 1673q0 25 16 44q15 18 46 18q29 0 46 -18q15 -19 15 -44q0 -24 -15 -43q-16 -19 -46 -19q-31 0 -46 19q-16 19 -16 43z" />
<glyph unicode="&#x2000;" horiz-adv-x="901" />
<glyph unicode="&#x2001;" horiz-adv-x="1802" />
<glyph unicode="&#x2002;" horiz-adv-x="901" />
<glyph unicode="&#x2003;" horiz-adv-x="1802" />
<glyph unicode="&#x2004;" horiz-adv-x="600" />
<glyph unicode="&#x2005;" horiz-adv-x="450" />
<glyph unicode="&#x2006;" horiz-adv-x="300" />
<glyph unicode="&#x2007;" horiz-adv-x="300" />
<glyph unicode="&#x2008;" horiz-adv-x="225" />
<glyph unicode="&#x2009;" horiz-adv-x="360" />
<glyph unicode="&#x200a;" horiz-adv-x="100" />
<glyph unicode="&#x2010;" horiz-adv-x="503" d="M100 494q0 51 17 52l385 -33l1 -32h-3v-1q-152 -62 -337 -62q-29 0 -41 1q-10 3 -16 22q-6 23 -6 53z" />
<glyph unicode="&#x2011;" horiz-adv-x="503" d="M100 494q0 51 17 52l385 -33l1 -32h-3v-1q-152 -62 -337 -62q-29 0 -41 1q-10 3 -16 22q-6 23 -6 53z" />
<glyph unicode="&#x2012;" horiz-adv-x="503" d="M100 494q0 51 17 52l385 -33l1 -32h-3v-1q-152 -62 -337 -62q-29 0 -41 1q-10 3 -16 22q-6 23 -6 53z" />
<glyph unicode="&#x2013;" horiz-adv-x="1124" d="M100 494q0 51 43 52l978 -33l3 -32h-8v-1q-386 -62 -856 -62q-74 0 -104 1q-26 3 -41 22q-15 23 -15 53z" />
<glyph unicode="&#x2014;" horiz-adv-x="2148" d="M100 494q0 51 86 52l1957 -33l5 -32h-15v-1q-773 -62 -1713 -62q-147 0 -208 1q-51 3 -82 22q-30 23 -30 53z" />
<glyph unicode="&#x2018;" horiz-adv-x="244" d="M100 1183q0 68 41 114l4 1q13 0 48.5 -23.5t50.5 -39.5q-56 -58 -56 -90q0 -20 25 -21q-3 -7 -7.5 -13t-8 -9t-7.5 -6t-5 -4q-9 -5 -20 -5t-15 2q-50 19 -50 94z" />
<glyph unicode="&#x2019;" horiz-adv-x="244" d="M100 1239q14 15 50 39t49 24l4 -1q41 -44 41 -115q0 -74 -49 -93q-4 -2 -15 -2t-20 5h-1q-1 1 -4.5 4l-7 6t-8 9t-7.5 13q25 1 25 20q0 15 -14.5 37.5t-28.5 38.5z" />
<glyph unicode="&#x201a;" horiz-adv-x="244" d="M100 321q13 15 49 38.5t50 23.5q3 0 4 -1q41 -44 41 -114q0 -75 -50 -94l-5 -1q-5 -1 -9 -1q-11 0 -21 6h-1l-4 3q-4 3 -7.5 6t-8 9t-7.5 13q26 1 26 21q0 14 -14.5 37t-28.5 39z" />
<glyph unicode="&#x201c;" horiz-adv-x="406" d="M100 1187q0 68 41 114l4 1q13 0 48.5 -23.5t50.5 -39.5q-56 -58 -56 -90q0 -20 25 -21q-3 -7 -7.5 -13t-8 -9t-7.5 -6t-5 -4q-9 -5 -20 -5t-15 2q-50 19 -50 94zM262 1187q0 68 41 114l4 1q13 0 48.5 -23.5t50.5 -39.5q-56 -58 -56 -90q0 -20 25 -21q-3 -7 -7.5 -13 t-8 -9t-7.5 -6t-5 -4q-9 -5 -20 -5t-15 2q-50 19 -50 94z" />
<glyph unicode="&#x201d;" horiz-adv-x="402" d="M100 1235q14 15 50 39t49 24l4 -1q41 -44 41 -115q0 -74 -49 -93q-4 -2 -15 -2t-20 5h-1q-1 1 -4.5 4l-7 6t-8 9t-7.5 13q25 1 25 20q0 15 -14.5 37.5t-28.5 38.5zM258 1235q14 15 50 39t49 24l4 -1q41 -44 41 -115q0 -74 -49 -93q-4 -2 -15 -2t-20 5h-1q-1 1 -4.5 4 l-7 6t-8 9t-7.5 13q25 1 25 20q0 15 -14.5 37.5t-28.5 38.5z" />
<glyph unicode="&#x201e;" horiz-adv-x="419" d="M100 321q14 15 50 38.5t49 23.5q3 0 4 -1q41 -44 41 -115q0 -74 -49 -93l-5 -1q-6 -1 -10 -1q-12 0 -20 6q-5 0 -13.5 8.5t-14.5 22.5q25 1 25 21q0 14 -14.5 37t-28.5 39zM275 321q14 15 50 38.5t49 23.5q3 0 4 -1q41 -44 41 -114q0 -75 -50 -94l-5 -1q-5 -1 -9 -1 q-11 0 -21 6q-21 16 -28 31q26 1 26 21q0 14 -14 37t-28 39z" />
<glyph unicode="&#x2022;" horiz-adv-x="321" d="M100 592q0 46 32.5 78t78.5 32t78 -32t32 -78t-32 -78.5t-78 -32.5t-78.5 32.5t-32.5 78.5z" />
<glyph unicode="&#x202f;" horiz-adv-x="360" />
<glyph unicode="&#x205f;" horiz-adv-x="450" />
<glyph unicode="&#x20ac;" horiz-adv-x="709" d="M100 638q4 62 51 93q22 15 53 15q33 0 78 -18q55 153 135 254q79 100 158 130q26 11 54 11q46 0 80 -34l-23 -22q-17 17 -37 17q-26 0 -63 -38q-38 -37 -88 -147q-52 -115 -91 -252q35 -31 61 -31q20 0 24 18l31 -8q-7 -31 -40 -40q-10 -2 -15 -2q-28 0 -71 29 q-8 -29 -19 -73l20 -15q61 -52 90 -52q16 0 22 19l31 -9q-12 -42 -58 -42q-37 0 -94 51q-3 2 -9.5 7t-9.5 7l-2 -7q-44 -176 -44 -304q0 -30 1 -62q1 -47 43 -90q27 -21 52 -21q29 0 49 17q43 41 69 105l29 -14q-12 -28 -32 -63q-46 -77 -113 -77q-37 0 -74 28 q-66 60 -96 156q-29 98 -29 208q0 98 17 189l-15 1q-30 0 -52 -20q-21 -20 -23 -58l-32 2q5 52 37 83q27 25 69 25q7 0 23 -2q17 76 25 95q-40 17 -68 17q-68 0 -72 -78z" />
<glyph unicode="&#x25fc;" horiz-adv-x="685" d="M0 0v685h685v-685h-685z" />
</font>
</defs>
</svg>
