<?xml version="1.0" standalone="no"?>
<!DOCTYPE svg PUBLIC "-//W3C//DTD SVG 1.1//EN" "http://www.w3.org/Graphics/SVG/1.1/DTD/svg11.dtd" >
<svg xmlns="http://www.w3.org/2000/svg" xmlns:xlink="http://www.w3.org/1999/xlink" version="1.1">
<metadata></metadata>
<defs>
<font id="bernurnormal" horiz-adv-x="1202" >
<font-face units-per-em="2048" ascent="1638" descent="-410" />
<missing-glyph horiz-adv-x="665" />
<glyph horiz-adv-x="0" />
<glyph unicode="&#xd;" horiz-adv-x="2048" />
<glyph unicode=" "  horiz-adv-x="665" />
<glyph unicode="&#x09;" horiz-adv-x="665" />
<glyph unicode="&#xa0;" horiz-adv-x="665" />
<glyph unicode="!" horiz-adv-x="497" d="M166 0v123h123v-123h-123zM166 246v1063h123v-748l-62 -315h-61z" />
<glyph unicode="&#x22;" horiz-adv-x="733" d="M182 1473h123l-20 -230h-82zM428 1473h123l-21 -230h-81z" />
<glyph unicode="#" horiz-adv-x="1091" d="M174 588l27 123h123l34 163h-122l26 123h123l25 123h122l-24 -123h166l24 123h123l-24 -123h123l-27 -123h-123l-35 -163h123l-27 -123h-122l-27 -123h-123l27 123h-166l-27 -123h-123l27 123h-123zM446 711h166l35 163h-166z" />
<glyph unicode="$" horiz-adv-x="1189" d="M168 416h123q0 -63 80 -117q90 -59 225 -59t225 59q78 53 78 117q0 63 -78 116q-90 59 -225 60q-166 0 -291 72q-137 78 -137 202q0 113 115 189q102 68 252 82v186h122l-2 -186q150 -14 252 -82q115 -76 115 -189h-123q0 51 -76 97q-90 53 -227 53t-227 -53 q-78 -45 -78 -97q0 -51 78 -96q90 -55 227 -55q168 0 291 -80q135 -86 135 -219q0 -121 -113 -203q-102 -76 -254 -92l2 -189h-122v189q-152 16 -254 92q-113 82 -113 203z" />
<glyph unicode="%" horiz-adv-x="1640" d="M168 989q0 133 93 226.5t226 93.5q131 0 225.5 -93.5t94.5 -226.5t-94.5 -226t-225.5 -93q-133 0 -226 93t-93 226zM291 989q0 -82 57.5 -139t138.5 -57q80 0 138.5 57t58.5 139t-58.5 139.5t-138.5 57.5q-82 0 -139 -57.5t-57 -139.5zM322 35l897 1308l102 -69 l-897 -1309zM836 319q0 133 93 226.5t226 93.5q131 0 225.5 -93.5t94.5 -226.5t-94.5 -226t-225.5 -93q-133 0 -226 93t-93 226zM958 319q0 -82 57.5 -139t139.5 -57q80 0 138.5 57t58.5 139t-58.5 139.5t-138.5 57.5q-82 0 -139.5 -57.5t-57.5 -139.5z" />
<glyph unicode="&#x26;" horiz-adv-x="1548" d="M158 334q-2 229 299 401q-139 186 -140 316q0 133 93.5 226t226.5 93q131 0 224 -93t93 -226q-2 -135 -94 -228q-63 -61 -209 -133q141 -158 369 -348q123 168 199 338l112 -49q-90 -199 -215 -367q174 -143 277 -215l-72 -98q-61 43 -283 217q-207 -229 -401 -229 q-201 0 -326 81q-154 102 -153 314zM281 336q0 -274 356 -275q143 1 307 185q-39 33 -117 102q-186 166 -290 287q-86 -43 -134 -84q-125 -102 -122 -215zM440 1051q0 -98 125 -258q172 82 180 88q86 59 89 170q0 80 -59.5 138t-139.5 58q-82 0 -138.5 -57t-56.5 -139z" />
<glyph unicode="'" horiz-adv-x="487" d="M182 1473h123l-20 -230h-82z" />
<glyph unicode="(" horiz-adv-x="735" d="M123 379v532q0 225 141 389q147 174 369 175v-123q-164 0 -275.5 -130t-111.5 -311v-532q0 -180 111.5 -310t275.5 -130v-123q-221 0 -369 174q-141 164 -141 389z" />
<glyph unicode=")" horiz-adv-x="735" d="M102 -63q164 0 275.5 130t111.5 310v491q0 180 -111.5 310.5t-275.5 130.5v123q221 0 369 -175q141 -164 141 -389v-491q0 -225 -141 -389q-147 -174 -369 -174v123z" />
<glyph unicode="*" horiz-adv-x="1015" d="M170 989q0 29 18.5 51.5t47.5 22.5q14 0 28 -6l185 -80l-11 207q-4 72 70 71q74 0 70 -71l-11 -207l185 80q14 6 28 6q29 0 47.5 -22.5t18.5 -51.5q0 -49 -49 -63l-193 -60l125 -145q18 -20 19 -43q0 -29 -24 -50.5t-52 -21.5q-35 0 -56 31l-108 160l-109 -160 q-20 -31 -53 -31q-31 0 -53.5 21.5t-22.5 50.5q0 23 17 43l127 145l-195 60q-49 14 -49 63z" />
<glyph unicode="+" horiz-adv-x="991" d="M168 731v123h266v264h123v-264h264v-123h-264v-264h-123v264h-266z" />
<glyph unicode="," horiz-adv-x="493" d="M186 0v123h123v-123l-53 -123h-29v123h-41z" />
<glyph unicode="-" horiz-adv-x="921" d="M193 731v123h534v-123h-534z" />
<glyph unicode="." horiz-adv-x="495" d="M186 0v123h123v-123h-123z" />
<glyph unicode="/" horiz-adv-x="1179" d="M127 31l819 1472l107 -61l-820 -1473z" />
<glyph unicode="0" d="M47 655q0 289 160 502t395 213q236 0 397 -215q156 -209 156 -500t-156 -499q-162 -217 -397 -217q-236 0 -397 217q-158 209 -158 499zM170 655q0 -252 133 -426q127 -168 299 -168t301 171t129 423t-131 426q-127 166 -299 166t-299 -166q-133 -174 -133 -426z" />
<glyph unicode="1" d="M418 0v123h123v899h-123v123q49 0 86 48t37 116h123v-1186h122v-123h-368z" />
<glyph unicode="2" d="M131 0q0 156 152 326q129 143 292 225l62 31q109 59 199 147q115 115 114 205q0 145 -95 229t-243 84q-143 0 -240.5 -102.5t-97.5 -251.5h-122q0 199 133 338t327 139q199 0 330 -121t131 -315q0 -143 -158 -297q-125 -121 -284 -197q-43 -20 -142 -98 q-143 -115 -200 -219h784v-123h-942z" />
<glyph unicode="3" d="M100 397h123q0 -137 110.5 -236.5t268.5 -99.5q160 0 268.5 99.5t108.5 236.5t-108.5 235.5t-268.5 98.5v123q133 0 223 64q80 59 80 133t-80 133q-90 63 -223 63t-223 -63q-82 -59 -82 -133h-123q0 139 133 233q127 86 295 86q170 0 293 -86q133 -94 133 -233 q0 -164 -176 -258q115 -59 180 -162q70 -109 70 -234q0 -193 -147.5 -325.5t-352.5 -132.5t-353.5 133t-148.5 325z" />
<glyph unicode="4" d="M154 414v131l669 764h123v-772h105v-123h-105v-414h-123v414h-669zM309 537h514v585z" />
<glyph unicode="5" d="M121 397h123q0 -137 100 -235.5t248 -98.5q147 0 258 99.5t111 234.5q0 137 -112 236.5t-257 99.5q-160 0 -264 -117h-123v693h778v-123h-655v-408q117 78 264 78q195 0 343 -135.5t148 -323.5q0 -190 -148.5 -323t-342.5 -133q-195 0 -333 132t-138 324z" />
<glyph unicode="6" d="M174 397q0 125 72 252l366 654l107 -60l-225 -403q51 14 108 14q178 0 302 -134.5t124 -322.5t-124 -323t-302 -135t-303 135t-125 323zM297 397q0 -141 91 -238.5t214 -97.5q125 0 214 97.5t89 238.5t-89 237.5t-214 96.5q-133 0 -219 -100.5t-86 -233.5z" />
<glyph unicode="7" d="M193 1186v123h819v-127l-678 -1213l-107 62l645 1155h-679z" />
<glyph unicode="8" d="M174 397q0 121 55.5 225.5t149.5 165.5q-143 88 -143 263q0 145 102 232t264 87t263.5 -87t101.5 -232q0 -174 -144 -263q94 -61 149.5 -165.5t55.5 -225.5q0 -188 -124 -323t-302 -135t-303 135t-125 323zM297 397q0 -141 91 -238.5t214 -97.5q125 0 214 97.5t89 238.5 t-89 237.5t-214 96.5t-215 -96t-90 -238zM358 1051q0 -80 52 -133q63 -63 192 -64q242 0 242 197t-242 196q-129 0 -192 -63q-51 -53 -52 -133z" />
<glyph unicode="9" d="M176 983q0 164 127 275.5t301 111.5q184 0 293 -92q129 -106 129 -272q0 -43 -14 -78l-350 -948l-117 40l225 605q-78 -31 -166 -31q-174 0 -301 112.5t-127 276.5zM299 983q0 -106 89 -186t216 -80q150 0 232 84q71 75 71 192q0 115 -86 184.5t-217 69.5 q-127 0 -216 -78.5t-89 -185.5z" />
<glyph unicode=":" horiz-adv-x="493" d="M186 0v123h123v-123h-123zM186 670v123h123v-123h-123z" />
<glyph unicode=";" horiz-adv-x="491" d="M184 0v123h123v-123l-53 -123h-29v123h-41zM184 670v123h123v-123h-123z" />
<glyph unicode="&#x3c;" horiz-adv-x="1153" d="M176 741v103l731 516l72 -103l-662 -464l662 -465l-72 -103z" />
<glyph unicode="=" horiz-adv-x="886" d="M176 608v123h535v-123h-535zM176 854v123h535v-123h-535z" />
<glyph unicode="&#x3e;" horiz-adv-x="1124" d="M162 328l659 465l-659 464l71 103l732 -516v-103l-732 -516z" />
<glyph unicode="?" horiz-adv-x="1198" d="M172 944q0 176 126 301t302 125t301 -125t125 -301q0 -141 -72 -237q-35 -49 -172 -164q-123 -102 -123 -264h-122q0 162 71 258q29 39 183 170q113 96 112 237q0 127 -88 215t-215 88t-216 -89t-89 -214h-123zM539 0v123h123v-123h-123z" />
<glyph unicode="@" horiz-adv-x="1480" d="M168 655q0 238 168 406t405 168q238 0 405 -168t167 -406q0 -111 -49 -198q-59 -104 -160 -109q-68 -2 -172 68q-96 -86 -211 -86q-92 0 -164 45q-82 51 -82 135t92 145q84 55 174 56h121v84q-43 45 -110 45q-123 0 -123 -76h-123q0 100 86 156q68 43 160 43 q88 0 155 -39q78 -47 78 -129v-201q0 -53 35 -86t84 -31q86 4 86 178q0 186 -131 318.5t-318 132.5q-186 0 -318 -132t-132 -319q0 -186 132 -317t318 -131q104 0 197 45l55 -111q-117 -57 -252 -57q-238 0 -405.5 167t-167.5 404zM598 510q2 -57 123 -57q61 0 106 32 q35 29 35 52v51h-121q-63 0 -103 -26.5t-40 -51.5z" />
<glyph unicode="A" horiz-adv-x="1431" d="M166 23l485 1286h131l484 -1286l-115 -46l-164 437h-543l-163 -437zM492 537h448l-223 598z" />
<glyph unicode="B" horiz-adv-x="1128" d="M180 0v1309h410q147 0 252.5 -105t105.5 -252q0 -190 -157 -297q157 -105 157 -295q0 -149 -105.5 -254.5t-252.5 -105.5h-410zM303 125h287q96 0 165.5 69.5t69.5 165.5t-69.5 165t-165.5 69h-287v-469zM303 717h287q96 0 165.5 69.5t69.5 165.5t-69.5 165t-165.5 69 h-287v-469z" />
<glyph unicode="C" horiz-adv-x="1138" d="M115 502v307q0 223 141 389q147 174 369 174q215 0 360 -164l-80 -94q-113 135 -280 135q-164 0 -275.5 -130t-111.5 -310v-307q0 -180 111.5 -310.5t275.5 -130.5q162 0 272 125l84 -88q-146 -159 -353 -159h-3q-221 0 -369 174q-141 166 -141 389z" />
<glyph unicode="D" horiz-adv-x="1249" d="M184 0v1309h410q209 0 340 -187.5t131 -466.5q0 -281 -129 -465q-133 -190 -342 -190h-410zM307 123h287q139 0 237 133q111 147 111 399t-111 400q-98 131 -237 131h-287v-1063z" />
<glyph unicode="E" horiz-adv-x="1095" d="M139 0v1309h819v-123h-696v-469h561v-123h-561v-469h696v-125h-819z" />
<glyph unicode="F" horiz-adv-x="962" d="M72 0v1309h819v-123h-696v-469h561v-123h-561v-594h-123z" />
<glyph unicode="G" horiz-adv-x="1216" d="M162 502v307q0 223 141 389q147 174 369 174q215 0 360 -164l-80 -94q-113 135 -280 135q-164 0 -275.5 -130t-111.5 -310v-307q0 -180 111.5 -310.5t275.5 -130.5t262 78v213h-166v123h289v-475h-109q-109 -61 -276 -61q-221 0 -369 174q-141 166 -141 389z" />
<glyph unicode="H" horiz-adv-x="1312" d="M205 0v1309h123v-592h696v592h123v-1309h-123v594h-696v-594h-123z" />
<glyph unicode="I" horiz-adv-x="493" d="M184 0v1309h123v-1309h-123z" />
<glyph unicode="J" horiz-adv-x="925" d="M184 -287q180 0 306 113t126 268v1215h123v-1215q0 -211 -163.5 -357.5t-391.5 -146.5v123z" />
<glyph unicode="K" horiz-adv-x="1323" d="M158 0v1309h123v-533l798 582l74 -98l-592 -431l604 -792l-98 -74l-604 793l-182 -131v-625h-123z" />
<glyph unicode="L" horiz-adv-x="1069" d="M125 0v1309h123v-1184h696v-125h-819z" />
<glyph unicode="M" horiz-adv-x="1601" d="M184 0v1309h76l539 -729l540 729h76v-1309h-123v1038l-491 -667l-494 667v-1038h-123z" />
<glyph unicode="N" horiz-adv-x="1435" d="M184 0v1309h80l862 -1061v1061h123v-1309h-80l-862 1061v-1061h-123z" />
<glyph unicode="O" horiz-adv-x="1394" d="M186 502v303q0 223 142 389q147 174 368 174t371 -174q139 -164 139 -389v-303q0 -225 -139 -389q-150 -174 -371 -174t-368 174q-141 166 -142 389zM309 502q0 -180 113 -310.5t274 -130.5q164 0 275.5 130.5t111.5 310.5v303q0 180 -111.5 310t-275.5 130 q-162 0 -274.5 -130t-112.5 -310v-303z" />
<glyph unicode="P" horiz-adv-x="1058" d="M156 0v1309h419q135 0 231.5 -95.5t96.5 -230.5t-96 -231.5t-232 -96.5h-296v-655h-123zM279 778h296q84 0 144.5 60.5t60.5 144.5t-60.5 143.5t-144.5 59.5h-296v-408z" />
<glyph unicode="Q" horiz-adv-x="1390" d="M184 502v303q0 223 142 389q147 174 368 174t369 -174q141 -164 141 -389v-303q0 -201 -117 -359l119 -120l-86 -86l-116 116q-134 -114 -307 -114h-3q-221 0 -368 174q-141 166 -142 389zM307 502q0 -180 111.5 -310.5t275.5 -130.5q121 0 221 80l-129 129l88 86 l125 -125q82 121 82 271v303q0 180 -111.5 310t-275.5 130t-275.5 -130t-111.5 -310v-303z" />
<glyph unicode="R" horiz-adv-x="1161" d="M176 0v1309h481q135 0 231.5 -95.5t96.5 -230.5q0 -119 -75.5 -209t-188.5 -112l250 -639l-115 -46l-266 678h-291v-655h-123zM299 778h358q84 0 144.5 60.5t60.5 144.5t-60.5 143.5t-144.5 59.5h-358v-408z" />
<glyph unicode="S" horiz-adv-x="1290" d="M174 328h123q0 -104 99.5 -185.5t248.5 -81.5q150 0 249 81t99 186q0 104 -99 185t-249 81q-190 0 -328 111q-143 113 -143 278q0 166 143 279q136 108 325 108h3q190 0 330.5 -110.5t140.5 -276.5h-123q0 104 -99 184t-249 80t-249 -80t-99 -184t99.5 -185t248.5 -81 q190 0 328 -109q143 -114 143 -280t-140 -277.5t-331 -111.5q-190 0 -328 108q-143 115 -143 281z" />
<glyph unicode="T" horiz-adv-x="917" d="M49 1186v123h819v-123h-348v-1186h-123v1186h-348z" />
<glyph unicode="U" horiz-adv-x="1392" d="M186 502l2 807h123l-2 -807q0 -180 111.5 -310.5t275.5 -130.5t275.5 130.5t111.5 310.5v807h123v-807q0 -225 -141 -389q-147 -174 -369 -174q-221 0 -368 174q-141 164 -142 389z" />
<glyph unicode="V" horiz-adv-x="1439" d="M170 1286l115 45l436 -1157l434 1157l115 -45l-549 -1460z" />
<glyph unicode="W" horiz-adv-x="1992" d="M170 1286l115 45l436 -1157l276 735l275 -745l436 1167l115 -45l-549 -1460l-277 735l-276 -735z" />
<glyph unicode="X" horiz-adv-x="1333" d="M168 35l424 618l-424 621l100 69l400 -579l397 579l100 -69l-424 -619l424 -620l-100 -70l-397 580l-400 -580z" />
<glyph unicode="Y" horiz-adv-x="1306" d="M154 1274l100 69l399 -579l398 579l100 -69l-436 -639v-635h-123v635z" />
<glyph unicode="Z" horiz-adv-x="1542" d="M143 0v88l1055 1098h-1055v123h1258v-88l-1055 -1098h1055v-123h-1258z" />
<glyph unicode="[" horiz-adv-x="735" d="M164 -186v1781l510 2v-122l-385 2v-1538h385v-123z" />
<glyph unicode="\" horiz-adv-x="1228" d="M152 1442l106 61l819 -1472l-106 -62z" />
<glyph unicode="]" horiz-adv-x="735" d="M61 -61h385v1538l-385 -2v122l510 -2v-1781l-510 2v123z" />
<glyph unicode="^" horiz-adv-x="872" d="M150 1395l286 286l287 -286l-86 -86l-201 200l-200 -200z" />
<glyph unicode="_" horiz-adv-x="1355" d="M184 0h985v-123h-985v123z" />
<glyph unicode="`" horiz-adv-x="677" d="M180 1421l68 103l252 -164l-68 -103z" />
<glyph unicode="a" horiz-adv-x="1271" d="M156 238q0 133 135 219q125 80 293 80h303v151q0 53 -66 96q-80 53 -217 54q-137 0 -227 -54q-78 -45 -78 -96h-123q0 125 139 203q123 70 289 70q164 0 279 -70q127 -78 127 -203v-323q0 -176 106 -285l-82 -82l-51 131q-47 -88 -158.5 -139t-240.5 -51q-168 0 -293 79 q-135 86 -135 220zM358 121q90 -59 226 -60q135 0 225 60q78 54 78 117v176h-303q-135 0 -226 -60q-79 -52 -79 -114q0 -65 79 -119z" />
<glyph unicode="b" horiz-adv-x="1206" d="M176 369v940h62l61 -316v-143q117 111 305 111q184 0 299 -107q127 -117 127 -322v-163q0 -207 -127 -324q-115 -106 -299 -106q-182 0 -301 106q-127 119 -127 324zM299 369q0 -152 88 -232q82 -76 217 -76q137 0 220 78t83 230v163q0 152 -86 232q-80 74 -217 74 t-217 -74q-88 -80 -88 -232v-163z" />
<glyph unicode="c" horiz-adv-x="1103" d="M150 369v163q0 205 129 322q117 106 299 107q266 0 374 -205l-106 -64q-72 145 -268 146q-135 0 -218 -74q-88 -80 -88 -232v-163q0 -152 88 -232q82 -76 218 -76q197 0 268 146l106 -64q-108 -204 -371 -204h-3q-182 0 -299 106q-129 119 -129 324z" />
<glyph unicode="d" horiz-adv-x="1255" d="M147 369v163q0 205 129 322q117 106 299 107q186 0 304 -111v459h61l61 -316v-624q0 -180 105 -287l-82 -82l-63 162q-102 -223 -386 -223q-182 0 -299 106q-129 119 -129 324zM270 369q0 -152 88 -232q82 -76 217 -76q137 0 220.5 78t83.5 230v163q0 152 -86 232 q-80 74 -218 74q-135 0 -217 -74q-88 -80 -88 -232v-163z" />
<glyph unicode="e" horiz-adv-x="1187" d="M168 369v163q0 205 127 322q117 106 301 107q182 0 299 -107q127 -117 127 -322v-122h-731v-41q0 -152 84 -230t221 -78q195 0 268 146l107 -64q-108 -204 -372 -204h-3q-184 0 -301 106q-127 119 -127 324zM291 532h608q0 152 -88 232q-80 74 -215 74q-137 0 -219 -74 q-86 -80 -86 -232zM864 207z" />
<glyph unicode="f" horiz-adv-x="788" d="M182 838v123h90q0 380 334 380h2v-122q-123 0 -168 -57.5t-45 -200.5h213v-123h-213v-838h-123v838h-90z" />
<glyph unicode="g" horiz-adv-x="1308" d="M174 369v163q0 205 129 322q117 106 299 107q283 0 385 -224l64 162l82 -82q-104 -106 -105 -285v-514q0 -205 -127 -321q-117 -106 -301 -107q-211 0 -330 138l88 86q82 -100 242 -101q137 0 221 77t84 228v31q-116 -110 -300 -110h-3q-182 0 -299 106 q-129 119 -129 324zM297 369q0 -152 88 -232q82 -76 217 -76q137 0 220 78t83 230v163q0 152 -86 232q-80 74 -217 74q-135 0 -217 -74q-88 -80 -88 -232v-163z" />
<glyph unicode="h" horiz-adv-x="1214" d="M180 0v993l62 316h61v-459q117 111 305 111q184 0 299 -107q127 -117 127 -322v-532h-123v532q0 152 -86 232q-80 74 -217 74t-217 -74q-88 -80 -88 -232v-532h-123z" />
<glyph unicode="i" horiz-adv-x="501" d="M190 0v584l62 315h61v-899h-123zM190 1022v123h123v-123h-123z" />
<glyph unicode="j" horiz-adv-x="587" d="M186 -262q90 80 90 233v613l62 315h61v-928q0 -274 -213 -381v148zM276 1022v123h123v-123h-123z" />
<glyph unicode="k" horiz-adv-x="1193" d="M168 0v993l61 316h62v-756l661 334l56 -111l-473 -237h61q168 0 291 -80q135 -86 135 -219l2 -238h-123l-2 238q0 63 -78 116q-90 59 -225 60h-305v-416h-123z" />
<glyph unicode="l" horiz-adv-x="493" d="M184 0v993l62 316h61v-1309h-123z" />
<glyph unicode="m" horiz-adv-x="1896" d="M184 817l82 82l66 -168q104 229 344 230q211 0 323 -187q113 186 326 187q178 0 279 -107q106 -113 106 -322l2 -532h-123l-2 532q0 305 -262 306q-160 0 -264 -306v-532h-121l-2 532q0 305 -262 306q-264 0 -264 -306v-532h-123v532q0 178 -105 285z" />
<glyph unicode="n" horiz-adv-x="1318" d="M180 817l82 82l66 -168q104 229 385 230q184 0 299 -107q127 -117 127 -322v-532h-123v532q0 152 -86 232q-80 74 -217 74t-217 -74q-88 -80 -88 -232v-532h-123v532q0 178 -105 285z" />
<glyph unicode="o" horiz-adv-x="1210" d="M178 369v163q0 205 127 322q117 106 301 107q184 0 299 -107q127 -117 127 -322v-163q0 -207 -127 -324q-115 -106 -299 -106q-182 0 -301 106q-127 119 -127 324zM301 369q0 -152 88 -232q82 -76 217 -76q137 0 220 78t83 230v163q0 152 -86 232q-80 74 -217 74 t-217 -74q-88 -80 -88 -232v-163z" />
<glyph unicode="p" horiz-adv-x="1316" d="M178 817l82 82l64 -162q104 223 387 224q184 0 301 -107q125 -117 125 -322v-163q0 -207 -125 -324q-117 -106 -301 -106q-186 0 -305 110v-143l-62 -316h-61v942q0 178 -105 285zM406 369q0 -152 88 -232q82 -76 217 -76q137 0 220 78t83 230v163q0 152 -86 232 q-80 74 -217 74q-135 0 -217 -74q-88 -80 -88 -232v-163z" />
<glyph unicode="q" horiz-adv-x="1308" d="M174 369v163q0 205 129 322q117 106 299 107q283 0 385 -224l64 162l82 -82q-104 -106 -105 -285v-626l-61 -316h-62v459q-116 -110 -300 -110h-3q-182 0 -299 106q-129 119 -129 324zM297 369q0 -152 88 -232q82 -76 217 -76q137 0 220 78t83 230v163q0 152 -86 232 q-80 74 -217 74q-135 0 -217 -74q-88 -80 -88 -232v-163z" />
<glyph unicode="r" horiz-adv-x="1003" d="M152 817l81 82l66 -168q104 229 385 230q55 0 166 -29l-53 -111q-74 16 -113 17q-135 0 -217 -74q-88 -80 -88 -232v-532h-123v532q0 178 -104 285z" />
<glyph unicode="s" horiz-adv-x="1198" d="M172 238h123q0 -63 80 -117q90 -59 225 -60q135 0 225 60q78 53 78 117q0 63 -78 116q-90 59 -225 60q-166 0 -289 71q-139 78 -139 203t139 203q123 70 289 70t289 -70q137 -78 137 -203h-123q0 51 -76 96q-90 53 -227 54q-137 0 -227 -54q-78 -45 -78 -96t78 -96 q90 -55 227 -55q168 0 291 -80q135 -86 135 -219t-135 -220q-121 -79 -287 -79h-4q-168 0 -293 79q-135 86 -135 220z" />
<glyph unicode="t" horiz-adv-x="880" d="M166 838v123h213v32l61 316h62v-348h213v-123h-213v-838h-123v838h-213z" />
<glyph unicode="u" horiz-adv-x="1267" d="M156 369v530h123v-530q0 -152 88 -232q80 -76 217 -76q135 0 219 78t84 230v530h123v-530q0 -180 104 -287l-82 -82l-63 162q-104 -223 -385 -223q-184 0 -301 106q-127 119 -127 324z" />
<glyph unicode="v" horiz-adv-x="1181" d="M168 877l115 45l307 -758l309 758l115 -45l-424 -1041z" />
<glyph unicode="w" horiz-adv-x="1591" d="M168 877l115 45l307 -758l205 504l204 -504l310 758l114 -45l-424 -1041l-204 504l-205 -504z" />
<glyph unicode="x" horiz-adv-x="1198" d="M184 39l334 412l-334 409l97 78l317 -391l317 391l97 -78l-336 -409l336 -412l-97 -78l-317 391l-317 -391z" />
<glyph unicode="y" horiz-adv-x="1181" d="M168 877l115 45l307 -758l309 758l115 -45l-363 -889v-398h-123v398z" />
<glyph unicode="z" horiz-adv-x="1157" d="M168 0v92l625 684h-625v123h819v-92l-625 -684h625v-123h-819z" />
<glyph unicode="{" horiz-adv-x="837" d="M102 594v123h123v194q0 225 142 389q147 174 368 175v-123q-164 0 -275.5 -130t-111.5 -311v-532q0 -180 111.5 -310t275.5 -130v-123q-221 0 -368 172q-141 166 -142 389v217h-123z" />
<glyph unicode="|" horiz-adv-x="493" d="M186 -410v2048h123v-2048h-123z" />
<glyph unicode="}" horiz-adv-x="837" d="M102 -61v-123q221 0 369 172q141 166 141 389v217h123v123h-123v194q0 225 -141 389q-147 174 -369 175v-123q164 0 275.5 -130t111.5 -311v-532q0 -180 -111.5 -310t-275.5 -130z" />
<glyph unicode="~" horiz-adv-x="1175" d="M176 834q31 33 68 99t63 91q43 43 111 57q16 4 33 4q66 0 124 -61q14 -16 87 -113q43 -61 73 -61q35 0 76 65q29 51 96 148l90 -82q-29 -33 -65.5 -99.5t-63.5 -90.5q-43 -43 -112 -58q-14 -4 -31 -4q-68 0 -125 62q-14 16 -84 112q-43 61 -74 62q-35 0 -77 -66 q-29 -51 -99 -147z" />
<glyph unicode="&#xa1;" horiz-adv-x="491" d="M184 0v748l62 315h61v-1063h-123zM184 1186v123h123v-123h-123z" />
<glyph unicode="&#xa2;" horiz-adv-x="1116" d="M156 655q0 186 106 301q96 106 256 125v189h123v-189q223 -25 317 -202l-106 -64q-74 147 -268 148q-135 0 -217 -76q-88 -80 -88 -232t88 -231q82 -74 217 -74q197 0 268 146l106 -64q-94 -180 -319 -203v-186h-123v186q-158 20 -254 125q-106 115 -106 301z" />
<glyph unicode="&#xa3;" horiz-adv-x="1150" d="M145 0v123h109v471h-109v123h109v262q0 166 96 278.5t254 112.5t254 -112.5t96 -278.5h-123q0 117 -59 192.5t-168 75.5q-106 0 -166.5 -75.5t-60.5 -192.5v-262h268v-123h-268v-471h629v-123h-861z" />
<glyph unicode="&#xa4;" horiz-adv-x="1284" d="M147 455l62 123h741l-61 -123h-742zM147 741l62 123h741l-61 -123h-742zM266 502v307q0 223 142 389q147 174 368 174q216 0 361 -164l-80 -94q-113 135 -281 135q-164 0 -275.5 -130t-111.5 -310v-307q0 -180 111.5 -310.5t275.5 -130.5q162 0 273 125l84 -88 q-147 -160 -357 -159q-221 0 -368 174q-141 166 -142 389z" />
<glyph unicode="&#xa5;" horiz-adv-x="1316" d="M160 1274l100 69l399 -579l398 579l100 -69l-422 -619h191v-123h-205v-122h205v-123h-205v-287h-123v287h-207v123h207v122h-207v123h193z" />
<glyph unicode="&#xa6;" horiz-adv-x="489" d="M184 -410v885h123v-885h-123zM184 793v845h123v-845h-123z" />
<glyph unicode="&#xa7;" horiz-adv-x="966" d="M180 655q0 156 127 246q-90 80 -90 203q0 111 78 188.5t188 77.5q111 0 190 -78t79 -188h-123q0 59 -43 101t-103 42q-59 0 -101 -42t-42 -101t42 -102.5t101 -43.5q125 0 214 -89t89 -214q0 -156 -127 -245q92 -80 93 -203q0 -111 -79 -189.5t-190 -78.5t-189.5 78.5 t-78.5 189.5h123q0 -59 42 -102.5t103 -43.5q59 0 102.5 43t43.5 103q0 59 -43 102t-103 43q-125 0 -214 89t-89 214zM303 655q0 -74 52.5 -127t127.5 -53q74 0 127.5 53t53.5 127t-53.5 127.5t-127.5 53.5q-76 0 -128 -53.5t-52 -127.5z" />
<glyph unicode="&#xa8;" horiz-adv-x="612" d="M59 1473v122h123v-122h-123zM428 1473v122h123v-122h-123z" />
<glyph unicode="&#xa9;" horiz-adv-x="1509" d="M182 655q0 238 168 406t406 168t404.5 -168t166.5 -406t-167 -404.5t-404 -166.5q-238 0 -406 167t-168 404zM305 655q0 -186 132 -317t319 -131q186 0 317 131t131 317t-131 318.5t-317 132.5t-318.5 -132t-132.5 -319zM514 608v92q0 117 74 185q68 61 170 61 q154 0 229 -145l-106 -64q-43 86 -123 86q-121 0 -121 -123v-92q0 -121 121 -121q82 0 123 84l106 -63q-76 -143 -229 -143q-102 0 -170 61q-74 66 -74 182z" />
<glyph unicode="&#xaa;" horiz-adv-x="849" d="M178 958q0 74 74 111q57 31 143 31h107v59q-37 39 -99 39q-106 0 -106 -65h-111q0 90 76 137q59 39 141 39q80 0 140 -35q68 -43 67 -115v-143q1 -68 60 -129l-84 -84l-23 53q-66 -59 -168 -59q-80 0 -143 41q-74 45 -74 120zM287 958q0 -51 108 -51q53 0 86 23 q21 16 21 28v72h-107q-109 0 -108 -72z" />
<glyph unicode="&#xab;" horiz-adv-x="1026" d="M123 752v82l403 284l72 -100l-319 -225l319 -226l-72 -100zM428 752v82l403 284l72 -100l-321 -225l321 -226l-72 -100z" />
<glyph unicode="&#xac;" horiz-adv-x="1226" d="M186 592v123h854v-439h-61l-61 316h-732z" />
<glyph unicode="&#xad;" horiz-adv-x="921" d="M193 731v123h534v-123h-534z" />
<glyph unicode="&#xae;" horiz-adv-x="1509" d="M182 655q0 238 168 406t406 168t404.5 -168t166.5 -406t-167 -404.5t-404 -166.5q-238 0 -406 167t-168 404zM305 655q0 -186 132 -317t319 -131q81 -1 153 26l-180 310h-51v-178h-109v575h240q80 0 140.5 -60.5t60.5 -138.5q0 -68 -45 -125t-111 -69l154 -264 q197 133 196 372q0 186 -131 318.5t-317 132.5t-318.5 -132t-132.5 -319zM678 655h131q45 0 72 35q22 26 22 51t-22 52q-27 35 -72 34h-131v-172z" />
<glyph unicode="&#xaf;" horiz-adv-x="651" d="M59 1516v122h535v-122h-535z" />
<glyph unicode="&#xb0;" horiz-adv-x="655" d="M182 1163q0 59 42 102.5t104 43.5q59 0 102 -43.5t43 -102.5t-43 -102t-102 -43q-61 0 -103.5 43t-42.5 102zM244 1163q0 -35 24.5 -59.5t59.5 -24.5t59.5 24.5t24.5 59.5t-25 59.5t-59 24.5q-35 0 -59.5 -24.5t-24.5 -59.5z" />
<glyph unicode="&#xb1;" horiz-adv-x="987" d="M168 731v123h266v264h123v-264h264v-123h-264v-264h-123v264h-266zM227 221v123h535v-123h-535z" />
<glyph unicode="&#xb2;" horiz-adv-x="833" d="M182 655q0 184 211 297q6 2 27 15q39 23 78 63q47 47 47 84q0 113 -127 113q-55 0 -91 -43t-36 -119h-109q0 121 67.5 197.5t168.5 76.5q100 0 167.5 -62.5t67.5 -162.5q0 -84 -75 -147q-12 -10 -146 -95q-84 -53 -98 -104h319v-113h-471z" />
<glyph unicode="&#xb3;" horiz-adv-x="866" d="M182 924h109q0 -70 39 -113t102 -43q59 0 100 39t41 88q0 51 -45 88t-122 37v92q68 0 106 35q29 27 29 49q0 18 -25 37q-33 25 -84 24q-109 0 -108 -90h-109q0 98 70 156q61 47 147 47q82 0 146 -45q72 -49 71 -129q0 -70 -55 -119q90 -71 90 -182q0 -100 -76 -170 t-176 -70q-104 0 -174 72q-76 76 -76 197z" />
<glyph unicode="&#xb4;" horiz-adv-x="516" d="M98 1360l252 164l68 -103l-252 -164z" />
<glyph unicode="&#xb5;" horiz-adv-x="1314" d="M178 -410v1309h123v-530q0 -152 88 -232q80 -76 217 -76q135 0 219 78t84 230v530h123v-530q1 -181 105 -287l-82 -82l-64 162q-104 -223 -385 -223q-188 0 -305 110v-459h-123z" />
<glyph unicode="&#xb6;" horiz-adv-x="1179" d="M184 983q0 135 96.5 230.5t231.5 95.5h481v-1309h-123v655h-235l2 -655h-123l-2 655q-135 0 -231.5 96.5t-96.5 231.5zM307 983q0 -84 60.5 -144.5t144.5 -60.5v408q-84 0 -144.5 -59.5t-60.5 -143.5zM635 778h235v408h-235v-408z" />
<glyph unicode="&#xb7;" horiz-adv-x="499" d="M188 655v125h123v-123z" />
<glyph unicode="&#xb8;" horiz-adv-x="761" d="M176 -205h123q0 -35 23.5 -58.5t58.5 -23.5q33 0 57.5 23.5t24.5 58.5t-24.5 58.5t-57.5 23.5v123h123v-41q82 -62 82 -164q0 -84 -60.5 -144.5t-144.5 -60.5t-144.5 60.5t-60.5 144.5z" />
<glyph unicode="&#xb9;" horiz-adv-x="593" d="M188 1067v113q29 0 69 47t38 84h111v-656h-109v412h-109z" />
<glyph unicode="&#xba;" horiz-adv-x="792" d="M184 1016v74q0 104 61.5 161.5t151.5 57.5t148 -56q66 -59 65 -163v-74q0 -104 -65 -164q-57 -55 -148 -55q-90 0 -151.5 57t-61.5 162zM291 1016q0 -109 106 -109q107 0 107 109v74q0 109 -107 108q-106 0 -106 -108v-74z" />
<glyph unicode="&#xbb;" horiz-adv-x="1038" d="M123 567l319 228l-319 225l72 100l403 -284v-82l-403 -287zM440 567l320 226l-320 225l72 100l403 -284v-82l-403 -285z" />
<glyph unicode="&#xbc;" horiz-adv-x="1245" d="M166 1067v113q29 0 68.5 47t37.5 84h111v-656h-109v412h-108zM332 354l653 654l86 -86l-653 -654zM600 188v101l309 366h95v-354h45v-113h-45v-188h-109v188h-295zM756 301h139v166z" />
<glyph unicode="&#xbd;" horiz-adv-x="1394" d="M182 1067v113q29 0 69 47t40 84h108v-656h-108v412h-109zM311 342l654 653l86 -86l-654 -653zM741 0q0 184 211 297q152 92 152 141q0 55 -38 95t-89 40q-53 0 -90 -44t-37 -119h-109q0 121 68 198.5t168 77.5q98 0 166.5 -72.5t68.5 -175.5q0 -84 -75 -141 q-10 -8 -146 -84q-84 -49 -98 -100h319v-113h-471z" />
<glyph unicode="&#xbe;" horiz-adv-x="1370" d="M168 924h108q0 -70 39 -113t103 -43q59 0 100 39t41 88q0 51 -45 88t-123 37v92q68 0 107 35q29 27 28 49q0 18 -28.5 39.5t-79.5 21.5q-109 0 -109 -90h-108q0 98 69 156q61 47 148 47q82 0 145 -45q72 -49 72 -129q0 -70 -55 -119q90 -71 90 -182q0 -100 -76 -170 t-176 -70q-104 0 -177 74t-73 195zM457 354l653 654l86 -86l-653 -654zM717 188v101l309 366h94v-354h45v-113h-45v-188h-108v188h-295zM872 301h140v166z" />
<glyph unicode="&#xbf;" horiz-adv-x="1157" d="M152 367q0 141 71 237q33 45 172 162q123 102 123 264h123q0 -162 -72 -258q-29 -39 -182 -170q-113 -96 -113 -235q0 -127 90.5 -216.5t215.5 -89.5t214 89.5t89 216.5h123q0 -176 -125 -302t-301 -126t-302 125.5t-126 302.5zM516 1186v123h123v-123h-123z" />
<glyph unicode="&#xc0;" horiz-adv-x="1431" d="M168 23l485 1286h131l484 -1286l-115 -46l-164 437h-543l-163 -437zM494 537h448l-223 598zM555 1473l68 102l251 -164l-67 -102z" />
<glyph unicode="&#xc1;" horiz-adv-x="1431" d="M168 23l485 1286h131l484 -1286l-115 -46l-164 437h-543l-163 -437zM494 537h448l-223 598zM555 1411l252 164l67 -102l-251 -164z" />
<glyph unicode="&#xc2;" horiz-adv-x="1431" d="M168 23l485 1286h131l484 -1286l-115 -46l-164 437h-543l-163 -437zM428 1395l287 286l286 -286l-86 -86l-200 200l-201 -200zM494 537h448l-223 598z" />
<glyph unicode="&#xc3;" horiz-adv-x="1431" d="M168 23l485 1286h131l484 -1286l-115 -46l-164 437h-543l-163 -437zM326 1391q29 33 66.5 99t62.5 91q43 43 112 57q16 4 31 4q68 0 125 -61q16 -16 86 -113q43 -61 74 -61q35 0 78 66q29 51 96 147l90 -82q-31 -33 -68 -99.5t-63 -90.5q-41 -43 -111 -58q-16 -4 -33 -4 q-66 0 -122 62q-16 16 -86 112q-43 61 -74 62q-33 0 -76 -66q-29 -51 -98 -147zM494 537h448l-223 598z" />
<glyph unicode="&#xc4;" horiz-adv-x="1431" d="M168 23l485 1286h131l484 -1286l-115 -46l-164 437h-543l-163 -437zM469 1309v123h123v-123h-123zM494 537h448l-223 598zM838 1309v123h123v-123h-123z" />
<glyph unicode="&#xc5;" horiz-adv-x="1431" d="M168 23l485 1286h131l484 -1286l-115 -46l-164 437h-543l-163 -437zM494 537h448l-223 598zM569 1493q0 59 43 102t103 43q61 0 103 -43t42 -102t-42 -102t-103 -43q-59 0 -102.5 43t-43.5 102zM631 1493q0 -35 24.5 -59.5t59.5 -24.5t59.5 24.5t24.5 59.5t-24.5 59.5 t-59.5 24.5t-59.5 -24.5t-24.5 -59.5z" />
<glyph unicode="&#xc6;" horiz-adv-x="1665" d="M137 23l486 1286h903v-123h-697v-469h562v-123h-562v-469h697v-125h-819v414h-291l-164 -437zM463 537h244v649z" />
<glyph unicode="&#xc7;" horiz-adv-x="1138" d="M84 502v307q0 223 141 389q150 174 369 174q215 0 360 -164l-80 -94q-113 135 -280 135q-162 0 -274.5 -130t-112.5 -310v-307q0 -180 112.5 -310.5t274.5 -130.5t272 125l84 -88q-145 -160 -356 -159q-219 0 -369 174q-141 166 -141 389zM365 -205h122q0 -35 25 -58.5 t57 -23.5q35 0 58.5 23.5t23.5 58.5t-23.5 58.5t-58.5 23.5v123h123v-41q82 -62 82 -164q0 -84 -59.5 -144.5t-145.5 -60.5q-84 0 -144 60.5t-60 144.5z" />
<glyph unicode="&#xc8;" horiz-adv-x="1095" d="M113 0v1309h819v-123h-696v-469h561v-123h-561v-469h696v-125h-819zM389 1473l68 102l252 -164l-68 -102z" />
<glyph unicode="&#xc9;" horiz-adv-x="1095" d="M113 0v1309h819v-123h-696v-469h561v-123h-561v-469h696v-125h-819zM389 1411l252 164l68 -102l-252 -164z" />
<glyph unicode="&#xca;" horiz-adv-x="1095" d="M113 0v1309h819v-123h-696v-469h561v-123h-561v-469h696v-125h-819zM262 1395l287 286l287 -286l-86 -86l-201 200l-201 -200z" />
<glyph unicode="&#xcb;" horiz-adv-x="1095" d="M113 0v1309h819v-123h-696v-469h561v-123h-561v-469h696v-125h-819zM303 1309v123h123v-123h-123zM672 1309v123h123v-123h-123z" />
<glyph unicode="&#xcc;" horiz-adv-x="493" d="M86 1473l68 102l252 -164l-68 -102zM207 0v1309h123v-1309h-123z" />
<glyph unicode="&#xcd;" horiz-adv-x="493" d="M86 1411l252 164l68 -102l-252 -164zM207 0v1309h123v-1309h-123z" />
<glyph unicode="&#xce;" horiz-adv-x="493" d="M-20 1395l286 286l287 -286l-86 -86l-201 200l-200 -200zM207 0v1309h123v-1309h-123z" />
<glyph unicode="&#xcf;" horiz-adv-x="493" d="M20 1309v123h123v-123h-123zM207 0v1309h123v-1309h-123zM389 1309v123h123v-123h-123z" />
<glyph unicode="&#xd0;" horiz-adv-x="1445" d="M184 594v123h199v592h410q209 0 340 -187.5t131 -466.5q0 -281 -129 -465q-133 -190 -342 -190h-410v594h-199zM506 123h287q139 0 237 133q111 147 111 399t-111 400q-98 131 -237 131h-287v-469h213v-123h-213v-471z" />
<glyph unicode="&#xd1;" horiz-adv-x="1435" d="M207 0v1309h80l862 -1061v1061h123v-1309h-80l-862 1061v-1061h-123zM307 1391q29 33 67 99t62 91q43 43 113 57q16 4 31 4q68 0 125 -61q16 -16 86 -113q43 -61 73 -61q35 0 78 66q29 51 96 147l90 -82q-29 -33 -66.5 -99.5t-62.5 -90.5q-43 -43 -112 -58q-16 -4 -33 -4 q-66 0 -123 62q-16 16 -86 112q-43 61 -74 62q-33 0 -75 -66q-29 -51 -99 -147z" />
<glyph unicode="&#xd2;" horiz-adv-x="1394" d="M211 502v303q0 223 139 389q150 174 371 174t369 -174q141 -164 141 -389v-303q0 -225 -141 -389q-147 -174 -369 -174q-221 0 -371 174q-139 166 -139 389zM334 502q0 -180 111.5 -310.5t275.5 -130.5q162 0 274.5 130.5t112.5 310.5v303q0 180 -112.5 310t-274.5 130 q-164 0 -275.5 -130t-111.5 -310v-303zM537 1473l67 102l252 -164l-68 -102z" />
<glyph unicode="&#xd3;" horiz-adv-x="1394" d="M211 502v303q0 223 139 389q150 174 371 174t369 -174q141 -164 141 -389v-303q0 -225 -141 -389q-147 -174 -369 -174q-221 0 -371 174q-139 166 -139 389zM334 502q0 -180 111.5 -310.5t275.5 -130.5q162 0 274.5 130.5t112.5 310.5v303q0 180 -112.5 310t-274.5 130 q-164 0 -275.5 -130t-111.5 -310v-303zM537 1411l251 164l68 -102l-252 -164z" />
<glyph unicode="&#xd4;" horiz-adv-x="1394" d="M211 502v303q0 223 139 389q150 174 371 174t369 -174q141 -164 141 -389v-303q0 -225 -141 -389q-147 -174 -369 -174q-221 0 -371 174q-139 166 -139 389zM334 502q0 -180 111.5 -310.5t275.5 -130.5q162 0 274.5 130.5t112.5 310.5v303q0 180 -112.5 310t-274.5 130 q-164 0 -275.5 -130t-111.5 -310v-303zM430 1395l287 286l287 -286l-86 -86l-201 200l-201 -200z" />
<glyph unicode="&#xd5;" horiz-adv-x="1394" d="M211 502v303q0 223 139 389q150 174 371 174t369 -174q141 -164 141 -389v-303q0 -225 -141 -389q-147 -174 -369 -174q-221 0 -371 174q-139 166 -139 389zM307 1391q29 33 66 99t63 91q43 43 113 57q16 4 31 4q68 0 125 -61q16 -16 86 -113q43 -61 73 -61q35 0 78 66 q27 51 96 147l90 -82q-31 -33 -67.5 -99.5t-63.5 -90.5q-41 -43 -110 -58q-16 -4 -33 -4q-66 0 -123 62q-16 16 -86 112q-43 61 -74 62q-33 0 -75 -66q-29 -51 -99 -147zM334 502q0 -180 111.5 -310.5t275.5 -130.5q162 0 274.5 130.5t112.5 310.5v303q0 180 -112.5 310 t-274.5 130q-164 0 -275.5 -130t-111.5 -310v-303z" />
<glyph unicode="&#xd6;" horiz-adv-x="1394" d="M211 502v303q0 223 139 389q150 174 371 174t369 -174q141 -164 141 -389v-303q0 -225 -141 -389q-147 -174 -369 -174q-221 0 -371 174q-139 166 -139 389zM334 502q0 -180 111.5 -310.5t275.5 -130.5q162 0 274.5 130.5t112.5 310.5v303q0 180 -112.5 310t-274.5 130 q-164 0 -275.5 -130t-111.5 -310v-303zM473 1309v123h123v-123h-123zM842 1309v123h123v-123h-123z" />
<glyph unicode="&#xd7;" horiz-adv-x="915" d="M182 604l189 189l-189 186l88 88l187 -188l188 188l86 -86l-188 -188l188 -187l-88 -88l-186 189l-189 -189z" />
<glyph unicode="&#xd8;" horiz-adv-x="1394" d="M186 502v303q0 223 142 389q147 174 368 174t371 -174q139 -164 139 -389v-303q0 -225 -139 -389q-150 -174 -371 -174t-368 174q-141 166 -142 389zM309 502q0 -123 53 -226l590 861q-109 109 -256 108q-162 0 -274.5 -130t-112.5 -310v-303zM440 172q111 -111 256 -111 q164 0 275.5 130.5t111.5 310.5v303q0 119 -55 225z" />
<glyph unicode="&#xd9;" horiz-adv-x="1392" d="M209 502l2 807h123l-2 -807q0 -180 111.5 -310.5t275.5 -130.5t275.5 130.5t111.5 310.5v807h123v-807q0 -225 -139 -389q-150 -174 -371 -174t-369 174q-141 164 -141 389zM537 1473l67 102l252 -164l-68 -102z" />
<glyph unicode="&#xda;" horiz-adv-x="1392" d="M209 502l2 807h123l-2 -807q0 -180 111.5 -310.5t275.5 -130.5t275.5 130.5t111.5 310.5v807h123v-807q0 -225 -139 -389q-150 -174 -371 -174t-369 174q-141 164 -141 389zM557 1411l252 164l68 -102l-252 -164z" />
<glyph unicode="&#xdb;" horiz-adv-x="1392" d="M209 502l2 807h123l-2 -807q0 -180 111.5 -310.5t275.5 -130.5t275.5 130.5t111.5 310.5v807h123v-807q0 -225 -139 -389q-150 -174 -371 -174t-369 174q-141 164 -141 389zM430 1395l287 286l287 -286l-86 -86l-201 200l-201 -200z" />
<glyph unicode="&#xdc;" horiz-adv-x="1392" d="M209 502l2 807h123l-2 -807q0 -180 111.5 -310.5t275.5 -130.5t275.5 130.5t111.5 310.5v807h123v-807q0 -225 -139 -389q-150 -174 -371 -174t-369 174q-141 164 -141 389zM471 1309v123h123v-123h-123zM840 1309v123h123v-123h-123z" />
<glyph unicode="&#xdd;" horiz-adv-x="1306" d="M145 1274l101 69l399 -579l397 579l101 -69l-436 -639v-635h-123v635zM494 1411l251 164l68 -102l-252 -164z" />
<glyph unicode="&#xde;" horiz-adv-x="1431" d="M174 -410v1719h123v-447q172 219 410 219q236 0 393 -166.5t157 -406.5t-157.5 -405.5t-392.5 -165.5q-240 0 -410 217v-564h-123zM297 508q0 -190 113.5 -319.5t296.5 -129.5q184 0 306 130.5t122 318.5t-122 319t-306 131q-182 0 -296 -130t-114 -320z" />
<glyph unicode="&#xdf;" horiz-adv-x="1128" d="M176 -412v1463q0 133 93 226t227 93q131 0 225 -93t94 -226q0 -150 -115 -246q115 -57 183 -164q71 -113 71 -244q0 -190 -135 -324t-323 -134v122q137 0 236 98.5t99 237.5t-99 236.5t-236 97.5v123q80 0 138 57.5t58 139.5t-58.5 139t-137.5 57q-82 0 -139.5 -57 t-57.5 -139v-1147l-61 -316h-62z" />
<glyph unicode="&#xe0;" horiz-adv-x="1310" d="M168 238q0 133 135 219q125 80 293 80h303v151q0 53 -68 96q-80 53 -215 54q-139 0 -229 -54q-76 -45 -76 -96h-123q0 125 138 203q125 70 290 70q162 0 279 -70q127 -78 127 -203v-323q0 -176 106 -285l-81 -82l-52 131q-49 -88 -160.5 -139t-238.5 -51q-168 0 -293 79 q-135 86 -135 220zM291 238q0 -63 78 -117q90 -59 227 -60q135 0 223 60q80 54 80 117v176h-303q-137 0 -227 -60q-78 -53 -78 -116zM496 1186l67 102l252 -164l-67 -102z" />
<glyph unicode="&#xe1;" horiz-adv-x="1310" d="M168 238q0 133 135 219q125 80 293 80h303v151q0 53 -68 96q-80 53 -215 54q-139 0 -229 -54q-76 -45 -76 -96h-123q0 125 138 203q125 70 290 70q162 0 279 -70q127 -78 127 -203v-323q0 -176 106 -285l-81 -82l-52 131q-49 -88 -160.5 -139t-238.5 -51q-168 0 -293 79 q-135 86 -135 220zM291 238q0 -63 78 -117q90 -59 227 -60q135 0 223 60q80 54 80 117v176h-303q-137 0 -227 -60q-78 -53 -78 -116zM496 1124l252 164l67 -102l-252 -164z" />
<glyph unicode="&#xe2;" horiz-adv-x="1310" d="M168 238q0 133 135 219q125 80 293 80h303v151q0 53 -68 96q-80 53 -215 54q-139 0 -229 -54q-76 -45 -76 -96h-123q0 125 138 203q125 70 290 70q162 0 279 -70q127 -78 127 -203v-323q0 -176 106 -285l-81 -82l-52 131q-49 -88 -160.5 -139t-238.5 -51q-168 0 -293 79 q-135 86 -135 220zM291 238q0 -63 78 -117q90 -59 227 -60q135 0 223 60q80 54 80 117v176h-303q-137 0 -227 -60q-78 -53 -78 -116zM348 1108l287 287l287 -287l-86 -86l-201 201l-201 -201z" />
<glyph unicode="&#xe3;" horiz-adv-x="1310" d="M168 238q0 133 135 219q125 80 293 80h303v151q0 53 -68 96q-80 53 -215 54q-139 0 -229 -54q-76 -45 -76 -96h-123q0 125 138 203q125 70 290 70q162 0 279 -70q127 -78 127 -203v-323q0 -176 106 -285l-81 -82l-52 131q-49 -88 -160.5 -139t-238.5 -51q-168 0 -293 79 q-135 86 -135 220zM203 1104q31 33 67.5 99.5t63.5 90.5q43 43 110 58q16 4 33 4q66 0 125 -62q14 -16 84 -112q45 -61 76 -62q33 0 76 66q29 51 96 147l90 -82q-29 -33 -65.5 -99.5t-63.5 -90.5q-43 -43 -113 -57q-14 -4 -30 -5q-68 0 -125 62q-16 16 -84 113 q-43 61 -74 61q-35 0 -78 -66q-29 -51 -98 -147zM291 238q0 -63 78 -117q90 -59 227 -60q135 0 223 60q80 54 80 117v176h-303q-137 0 -227 -60q-78 -53 -78 -116z" />
<glyph unicode="&#xe4;" horiz-adv-x="1310" d="M168 238q0 133 135 219q125 80 293 80h303v151q0 53 -68 96q-80 53 -215 54q-139 0 -229 -54q-76 -45 -76 -96h-123q0 125 138 203q125 70 290 70q162 0 279 -70q127 -78 127 -203v-323q0 -176 106 -285l-81 -82l-52 131q-49 -88 -160.5 -139t-238.5 -51q-168 0 -293 79 q-135 86 -135 220zM291 238q0 -63 78 -117q90 -59 227 -60q135 0 223 60q80 54 80 117v176h-303q-137 0 -227 -60q-78 -53 -78 -116zM389 1022v123h123v-123h-123zM758 1022v123h123v-123h-123z" />
<glyph unicode="&#xe5;" horiz-adv-x="1310" d="M168 238q0 133 135 219q125 80 293 80h303v151q0 53 -68 96q-80 53 -215 54q-139 0 -229 -54q-76 -45 -76 -96h-123q0 125 138 203q125 70 290 70q162 0 279 -70q127 -78 127 -203v-323q0 -176 106 -285l-81 -82l-52 131q-49 -88 -160.5 -139t-238.5 -51q-168 0 -293 79 q-135 86 -135 220zM291 238q0 -63 78 -117q90 -59 227 -60q135 0 223 60q80 54 80 117v176h-303q-137 0 -227 -60q-78 -53 -78 -116zM489 1167q0 59 42 102.5t104 43.5q59 0 102 -43.5t43 -102.5t-43 -102t-102 -43q-61 0 -103.5 43t-42.5 102zM551 1167q0 -35 24.5 -59.5 t59.5 -24.5t59.5 24.5t24.5 59.5t-24.5 59.5t-59.5 24.5t-59.5 -24.5t-24.5 -59.5z" />
<glyph unicode="&#xe6;" horiz-adv-x="1923" d="M168 238q0 133 135 219q127 80 293 80h303v151q0 53 -65 96q-80 53 -218 54q-137 0 -227 -54q-78 -45 -78 -96h-123q0 125 140 203q123 70 288 70q262 0 367 -150q119 156 344 156q184 0 301 -107q125 -117 125 -323v-123h-731v-41q0 -152 88 -232q82 -74 217 -73 q197 0 268 145l107 -63q-109 -205 -375 -205q-231 0 -348 157q-53 -76 -158.5 -119.5t-224.5 -43.5q-166 0 -293 79q-135 86 -135 220zM291 238q0 -63 80 -117q90 -59 225 -60q137 0 225 60q78 54 78 117v176h-303q-135 0 -225 -60q-80 -53 -80 -116zM1022 537h608 q0 152 -83 229.5t-220 77.5q-135 0 -217 -76q-88 -80 -88 -231z" />
<glyph unicode="&#xe7;" horiz-adv-x="1103" d="M137 369v163q0 205 127 322q117 106 301 107q266 0 375 -205l-106 -64q-74 145 -269 146q-137 0 -217 -74q-88 -80 -88 -232v-163q0 -152 88 -232q80 -76 217 -76q195 0 269 146l106 -64q-109 -205 -375 -204q-184 0 -301 106q-127 119 -127 324zM348 -205h123 q0 -35 23.5 -58.5t58.5 -23.5q33 0 57.5 23.5t24.5 58.5t-24.5 58.5t-57.5 23.5v123h123v-41q82 -62 82 -164q0 -84 -60.5 -144.5t-144.5 -60.5q-86 0 -145.5 60.5t-59.5 144.5z" />
<glyph unicode="&#xe8;" horiz-adv-x="1187" d="M170 369v163q0 205 127 322q117 106 301 107q184 0 299 -107q127 -117 127 -322v-122h-731v-41q0 -152 88 -232q80 -76 217 -76q195 0 268 146l107 -64q-109 -205 -375 -204q-184 0 -301 106q-127 119 -127 324zM293 532h608q0 152 -86 232q-80 74 -217 74t-217 -74 q-88 -80 -88 -232zM434 1186l68 102l252 -164l-68 -102zM866 207z" />
<glyph unicode="&#xe9;" horiz-adv-x="1187" d="M170 369v163q0 205 127 322q117 106 301 107q184 0 299 -107q127 -117 127 -322v-122h-731v-41q0 -152 88 -232q80 -76 217 -76q195 0 268 146l107 -64q-109 -205 -375 -204q-184 0 -301 106q-127 119 -127 324zM293 532h608q0 152 -86 232q-80 74 -217 74t-217 -74 q-88 -80 -88 -232zM434 1124l252 164l68 -102l-252 -164zM866 207z" />
<glyph unicode="&#xea;" horiz-adv-x="1187" d="M170 369v163q0 205 127 322q117 106 301 107q184 0 299 -107q127 -117 127 -322v-122h-731v-41q0 -152 88 -232q80 -76 217 -76q195 0 268 146l107 -64q-109 -205 -375 -204q-184 0 -301 106q-127 119 -127 324zM293 532h608q0 152 -86 232q-80 74 -217 74t-217 -74 q-88 -80 -88 -232zM307 1108l287 287l287 -287l-86 -86l-201 201l-201 -201zM866 207z" />
<glyph unicode="&#xeb;" horiz-adv-x="1187" d="M170 369v163q0 205 127 322q117 106 301 107q184 0 299 -107q127 -117 127 -322v-122h-731v-41q0 -152 88 -232q80 -76 217 -76q195 0 268 146l107 -64q-109 -205 -375 -204q-184 0 -301 106q-127 119 -127 324zM293 532h608q0 152 -86 232q-80 74 -217 74t-217 -74 q-88 -80 -88 -232zM348 1022v123h123v-123h-123zM717 1022v123h123v-123h-123zM866 207z" />
<glyph unicode="&#xec;" horiz-adv-x="497" d="M88 1186l68 102l252 -164l-68 -102zM186 0v584l62 315h61v-899h-123z" />
<glyph unicode="&#xed;" horiz-adv-x="497" d="M88 1124l252 164l68 -102l-252 -164zM186 0v584l62 315h61v-899h-123z" />
<glyph unicode="&#xee;" horiz-adv-x="497" d="M-39 1108l287 287l287 -287l-86 -86l-201 201l-201 -201zM186 0v584l62 315h61v-899h-123z" />
<glyph unicode="&#xef;" horiz-adv-x="497" d="M2 1022v123h123v-123h-123zM186 0v584l62 315h61v-899h-123zM371 1022v123h123v-123h-123z" />
<glyph unicode="&#xf0;" horiz-adv-x="1275" d="M176 369v163q0 205 127 322q117 106 301 107q170 0 285 -95q-20 160 -62 264l-188 -108l-61 106l188 109q-41 49 -113 100q-63 43 -125 86l74 99q53 -37 156 -109q70 -53 114 -115l168 97l62 -105l-170 -98q84 -184 98 -660v-163q0 -207 -127 -324q-117 -106 -299 -106 q-184 0 -301 106q-127 119 -127 324zM299 369q0 -152 88 -232q80 -76 217 -76q135 0 215 76q88 80 88 232v163q0 143 -79.5 224.5t-223.5 81.5q-137 0 -217 -74q-88 -80 -88 -232v-163zM907 532z" />
<glyph unicode="&#xf1;" horiz-adv-x="1318" d="M197 817l82 82l65 -168q104 229 385 230q184 0 301 -107q125 -117 125 -322v-532h-123v532q0 152 -86 232q-80 74 -217 74q-135 0 -217 -74q-88 -80 -88 -232v-532h-123v532q0 178 -104 285zM311 1104q29 33 66 99.5t63 90.5q43 43 113 58q14 4 31 4q68 0 125 -62 q16 -16 86 -112q43 -61 73 -62q35 0 78 66q27 51 96 147l91 -82q-31 -33 -68 -99.5t-64 -90.5q-41 -43 -110 -57q-16 -4 -33 -5q-66 0 -125 62q-14 16 -84 113q-43 61 -74 61q-33 0 -75 -66q-29 -51 -99 -147z" />
<glyph unicode="&#xf2;" horiz-adv-x="1210" d="M193 369v163q0 205 129 322q117 106 299 107q184 0 301 -107q125 -117 125 -322v-163q0 -207 -125 -324q-117 -106 -301 -106q-182 0 -299 106q-129 119 -129 324zM315 369q0 -152 88 -232q82 -76 218 -76q137 0 220 78t83 230v163q0 152 -86 232q-80 74 -217 74 q-135 0 -218 -74q-88 -80 -88 -232v-163zM446 1186l68 102l252 -164l-68 -102z" />
<glyph unicode="&#xf3;" horiz-adv-x="1210" d="M193 369v163q0 205 129 322q117 106 299 107q184 0 301 -107q125 -117 125 -322v-163q0 -207 -125 -324q-117 -106 -301 -106q-182 0 -299 106q-129 119 -129 324zM315 369q0 -152 88 -232q82 -76 218 -76q137 0 220 78t83 230v163q0 152 -86 232q-80 74 -217 74 q-135 0 -218 -74q-88 -80 -88 -232v-163zM446 1124l252 164l68 -102l-252 -164z" />
<glyph unicode="&#xf4;" horiz-adv-x="1210" d="M193 369v163q0 205 129 322q117 106 299 107q184 0 301 -107q125 -117 125 -322v-163q0 -207 -125 -324q-117 -106 -301 -106q-182 0 -299 106q-129 119 -129 324zM315 369q0 -152 88 -232q82 -76 218 -76q137 0 220 78t83 230v163q0 152 -86 232q-80 74 -217 74 q-135 0 -218 -74q-88 -80 -88 -232v-163zM319 1108l287 287l287 -287l-86 -86l-201 201l-200 -201z" />
<glyph unicode="&#xf5;" horiz-adv-x="1210" d="M193 369v163q0 205 129 322q117 106 299 107q184 0 301 -107q125 -117 125 -322v-163q0 -207 -125 -324q-117 -106 -301 -106q-182 0 -299 106q-129 119 -129 324zM236 1104q31 33 67.5 99.5t63.5 90.5q41 43 110 58q16 4 33 4q66 0 125 -62q14 -16 84 -112 q45 -61 76 -62q33 0 75 66q29 51 97 147l90 -82q-29 -33 -66 -99.5t-63 -90.5q-43 -43 -113 -57q-16 -4 -31 -5q-68 0 -125 62q-16 16 -84 113q-43 61 -75 61q-33 0 -76 -66q-29 -51 -98 -147zM315 369q0 -152 88 -232q82 -76 218 -76q137 0 220 78t83 230v163 q0 152 -86 232q-80 74 -217 74q-135 0 -218 -74q-88 -80 -88 -232v-163z" />
<glyph unicode="&#xf6;" horiz-adv-x="1210" d="M193 369v163q0 205 129 322q117 106 299 107q184 0 301 -107q125 -117 125 -322v-163q0 -207 -125 -324q-117 -106 -301 -106q-182 0 -299 106q-129 119 -129 324zM315 369q0 -152 88 -232q82 -76 218 -76q137 0 220 78t83 230v163q0 152 -86 232q-80 74 -217 74 q-135 0 -218 -74q-88 -80 -88 -232v-163zM360 1022v123h123v-123h-123zM729 1022v123h123v-123h-123z" />
<glyph unicode="&#xf7;" horiz-adv-x="860" d="M162 731v123h534v-123h-534zM369 487v123h123v-123h-123zM369 975v123h123v-123h-123z" />
<glyph unicode="&#xf8;" horiz-adv-x="1210" d="M178 369v163q0 205 127 322q117 106 301 107q184 0 299 -107q127 -117 127 -322v-163q0 -207 -127 -324q-115 -106 -299 -106q-182 0 -301 106q-127 119 -127 324zM301 369q0 -94 31 -158l465 571q-78 55 -191 56q-137 0 -217 -74q-88 -80 -88 -232v-163zM414 117 q78 -55 192 -56q137 0 220 78t83 230v163q0 92 -30 156z" />
<glyph unicode="&#xf9;" horiz-adv-x="1314" d="M170 369v530h123v-530q0 -152 88 -232q80 -76 217 -76q135 0 219 78t84 230v530h123v-530q0 -180 104 -287l-81 -82l-64 162q-104 -223 -385 -223q-184 0 -301 106q-127 119 -127 324zM457 1186l67 102l252 -164l-67 -102z" />
<glyph unicode="&#xfa;" horiz-adv-x="1314" d="M170 369v530h123v-530q0 -152 88 -232q80 -76 217 -76q135 0 219 78t84 230v530h123v-530q0 -180 104 -287l-81 -82l-64 162q-104 -223 -385 -223q-184 0 -301 106q-127 119 -127 324zM457 1124l252 164l67 -102l-252 -164z" />
<glyph unicode="&#xfb;" horiz-adv-x="1314" d="M170 369v530h123v-530q0 -152 88 -232q80 -76 217 -76q135 0 219 78t84 230v530h123v-530q0 -180 104 -287l-81 -82l-64 162q-104 -223 -385 -223q-184 0 -301 106q-127 119 -127 324zM309 1108l287 287l287 -287l-86 -86l-201 201l-201 -201z" />
<glyph unicode="&#xfc;" horiz-adv-x="1314" d="M170 369v530h123v-530q0 -152 88 -232q80 -76 217 -76q135 0 219 78t84 230v530h123v-530q0 -180 104 -287l-81 -82l-64 162q-104 -223 -385 -223q-184 0 -301 106q-127 119 -127 324zM371 1022v123h123v-123h-123zM739 1022v123h123v-123h-123z" />
<glyph unicode="&#xfd;" horiz-adv-x="1181" d="M172 877l115 45l307 -758l309 758l115 -45l-363 -889v-398h-123v398zM430 1124l252 164l68 -102l-252 -164z" />
<glyph unicode="&#xfe;" horiz-adv-x="1206" d="M176 -94v1087l62 316h61v-459q117 111 305 111q184 0 299 -107q127 -117 127 -322v-163q0 -207 -127 -324q-115 -106 -299 -106q-188 0 -305 110v-459h-61zM299 369q0 -152 88 -232q82 -76 217 -76q137 0 220 78t83 230v163q0 152 -86 232q-80 74 -217 74t-217 -74 q-88 -80 -88 -232v-163z" />
<glyph unicode="&#xff;" horiz-adv-x="1181" d="M172 877l115 45l307 -758l309 758l115 -45l-363 -889v-398h-123v398zM354 1022v123h123v-123h-123zM723 1022v123h123v-123h-123z" />
<glyph unicode="&#x152;" horiz-adv-x="1755" d="M141 502v303q0 223 142 389q147 174 368 174q125 0 232 -59h731v-123h-613v-332h445v-123h-445v-608h611v-123h-725q-109 -61 -236 -61q-221 0 -368 174q-141 166 -142 389zM264 502q0 -180 111.5 -310.5t275.5 -130.5q126 0 228 84v1018q-100 82 -228 82 q-164 0 -275.5 -130t-111.5 -310v-303z" />
<glyph unicode="&#x153;" horiz-adv-x="1918" d="M168 369v163q0 205 127 322q117 106 301 107q250 0 365 -187q113 186 366 187q182 0 299 -107q127 -117 127 -322v-122h-731v-41q0 -152 84 -230t221 -78q195 0 268 146l107 -64q-109 -205 -375 -204q-254 0 -366 186q-115 -186 -365 -186q-184 0 -301 106 q-127 119 -127 324zM291 369q0 -152 84 -230t221 -78q135 0 215 76q88 80 88 232v163q0 152 -88 232q-80 74 -215 74q-137 0 -219 -74q-86 -80 -86 -232v-163zM1022 532h608q0 152 -88 232q-80 74 -215 74q-137 0 -219 -74q-86 -80 -86 -232zM1595 207z" />
<glyph unicode="&#x178;" horiz-adv-x="1306" d="M145 1274l101 69l399 -579l397 579l101 -69l-436 -639v-635h-123v635zM387 1309v123h123v-123h-123zM756 1309v123h123v-123h-123z" />
<glyph unicode="&#x2c6;" horiz-adv-x="872" d="M150 1395l286 286l287 -286l-86 -86l-201 200l-200 -200z" />
<glyph unicode="&#x2dc;" horiz-adv-x="1175" d="M176 1391q31 33 68 99t63 91q43 43 111 57q16 4 33 4q66 0 124 -61q14 -16 87 -113q43 -61 73 -61q35 0 76 66q29 51 96 147l90 -82q-29 -33 -65.5 -99.5t-63.5 -90.5q-43 -43 -112 -58q-14 -4 -31 -4q-68 0 -125 62q-14 16 -84 112q-43 61 -74 62q-35 0 -77 -66 q-29 -51 -99 -147z" />
<glyph unicode="&#x2000;" horiz-adv-x="840" />
<glyph unicode="&#x2001;" horiz-adv-x="1681" />
<glyph unicode="&#x2002;" horiz-adv-x="840" />
<glyph unicode="&#x2003;" horiz-adv-x="1681" />
<glyph unicode="&#x2004;" horiz-adv-x="560" />
<glyph unicode="&#x2005;" horiz-adv-x="420" />
<glyph unicode="&#x2006;" horiz-adv-x="280" />
<glyph unicode="&#x2007;" horiz-adv-x="280" />
<glyph unicode="&#x2008;" horiz-adv-x="210" />
<glyph unicode="&#x2009;" horiz-adv-x="336" />
<glyph unicode="&#x200a;" horiz-adv-x="93" />
<glyph unicode="&#x2010;" horiz-adv-x="921" d="M193 731v123h534v-123h-534z" />
<glyph unicode="&#x2011;" horiz-adv-x="921" d="M193 731v123h534v-123h-534z" />
<glyph unicode="&#x2012;" horiz-adv-x="921" d="M193 731v123h534v-123h-534z" />
<glyph unicode="&#x2013;" horiz-adv-x="1118" d="M193 731v123h731v-123h-731z" />
<glyph unicode="&#x2014;" horiz-adv-x="1372" d="M193 731v123h985v-123h-985z" />
<glyph unicode="&#x2018;" horiz-adv-x="491" d="M184 1063v123l54 123h28v-123h41v-123h-123z" />
<glyph unicode="&#x2019;" horiz-adv-x="501" d="M190 1186v123h123v-123l-53 -123h-29v123h-41z" />
<glyph unicode="&#x201a;" horiz-adv-x="493" d="M186 0v123h123v-123l-53 -123h-29v123h-41z" />
<glyph unicode="&#x201c;" horiz-adv-x="737" d="M184 1063v123l54 123h28v-123h41v-123h-123zM430 1063v123l53 123h29v-123h41v-123h-123z" />
<glyph unicode="&#x201d;" horiz-adv-x="747" d="M190 1186v123h123v-123l-53 -123h-29v123h-41zM436 1186v123h123v-123l-53 -123h-29v123h-41z" />
<glyph unicode="&#x201e;" horiz-adv-x="739" d="M186 0v123h123v-123l-53 -123h-29v123h-41zM432 0v123h123v-123l-53 -123h-29v123h-41z" />
<glyph unicode="&#x2022;" horiz-adv-x="1015" d="M180 655q0 135 96.5 231.5t231.5 96.5t230.5 -96.5t95.5 -231.5t-94.5 -230t-231.5 -95q-135 0 -231.5 95t-96.5 230z" />
<glyph unicode="&#x2026;" horiz-adv-x="987" d="M186 0v123h123v-123h-123zM432 0v123h123v-123h-123zM678 0v123h123v-123h-123z" />
<glyph unicode="&#x202f;" horiz-adv-x="336" />
<glyph unicode="&#x2039;" horiz-adv-x="720" d="M123 752v82l403 284l72 -100l-319 -225l319 -226l-72 -100z" />
<glyph unicode="&#x203a;" horiz-adv-x="720" d="M123 567l319 226l-319 225l72 100l403 -284v-82l-403 -285z" />
<glyph unicode="&#x205f;" horiz-adv-x="420" />
<glyph unicode="&#x2122;" horiz-adv-x="1427" d="M188 1196v113h443v-113h-164v-543h-115v543h-164zM737 653v656h80l172 -295l170 295h80v-656h-115v365l-135 -232l-135 232v-365h-117z" />
<glyph unicode="&#x25fc;" horiz-adv-x="942" d="M0 0v942h942v-942h-942z" />
</font>
</defs>
</svg>
